<svg width="358" height="165" viewBox="0 0 358 165" fill="none" xmlns="http://www.w3.org/2000/svg">
<g opacity="0.1">
<path d="M349.338 152.733C349.517 146.216 272.135 138.808 176.502 136.187C80.8689 133.566 3.19809 136.724 3.01947 143.241C2.84085 149.758 80.2221 157.166 175.855 159.788C271.489 162.409 349.159 159.251 349.338 152.733Z" fill="#263238"/>
<path d="M10.8261 118.044L47.5091 121.363C47.5091 121.363 43.8826 85.4777 37.255 77.2816C30.6274 69.0855 16.2388 67.5079 9.57497 80.8356C2.91111 94.1633 10.8261 118.044 10.8261 118.044Z" fill="#263238"/>
<path d="M48.0078 121.834L10.4907 118.462L10.3909 118.18C10.1099 117.201 2.49403 93.982 9.20323 80.6361C12.1317 74.7792 16.8463 71.2161 22.4766 70.5905C25.3323 70.3134 28.2123 70.748 30.8591 71.8555C33.506 72.963 35.8373 74.7088 37.6448 76.937C44.3177 85.1513 47.8446 119.794 47.9897 121.263L48.0078 121.834ZM11.1616 117.618L47.0014 120.837C46.5118 116.304 42.9578 84.9881 36.9013 77.5354C35.1937 75.4197 32.9878 73.7606 30.4815 72.7068C27.9751 71.653 25.2465 71.2374 22.54 71.4971C17.2271 72.0774 12.7664 75.4683 9.97388 81.0442C3.86307 93.2567 10.3093 114.898 11.1616 117.618Z" fill="#263238"/>
<path d="M41.8426 85.668H25.269V142.832H41.8426C48.4792 142.832 53.8557 130.039 53.8557 114.255C53.8557 98.4699 48.5064 85.668 41.8426 85.668Z" fill="#263238"/>
<path d="M41.8427 143.285H24.8158V85.2147H41.8427C48.8329 85.2147 54.3091 97.9712 54.3091 114.227C54.3091 130.484 48.8601 143.285 41.8427 143.285ZM25.6952 142.379H41.8427C48.1892 142.379 53.4024 129.758 53.4024 114.273C53.4024 98.7872 48.2164 86.1666 41.8427 86.1666H25.7224L25.6952 142.379Z" fill="#263238"/>
<path d="M25.2691 142.841C31.9037 142.841 37.2822 130.043 37.2822 114.255C37.2822 98.4667 31.9037 85.668 25.2691 85.668C18.6344 85.668 13.256 98.4667 13.256 114.255C13.256 130.043 18.6344 142.841 25.2691 142.841Z" fill="#878787"/>
<path d="M25.2691 143.286C18.2697 143.286 12.7936 130.529 12.7936 114.273C12.7936 98.0166 18.2335 85.2601 25.2691 85.2601C32.3047 85.2601 37.7355 98.0166 37.7355 114.273C37.7355 130.529 32.2593 143.286 25.2691 143.286ZM25.2691 86.1214C18.9225 86.1214 13.7002 98.7419 13.7002 114.228C13.7002 129.713 18.8863 142.334 25.2691 142.334C31.6519 142.334 36.8288 129.713 36.8288 114.228C36.8288 98.7419 31.6428 86.1214 25.2691 86.1214Z" fill="#263238"/>
<path d="M25.2691 138.507C30.8572 138.507 35.3873 128.173 35.3873 115.424C35.3873 102.676 30.8572 92.3409 25.2691 92.3409C19.681 92.3409 15.1509 102.676 15.1509 115.424C15.1509 128.173 19.681 138.507 25.2691 138.507Z" fill="white"/>
<path d="M25.2691 138.961C19.3396 138.961 14.6885 128.625 14.6885 115.388C14.6885 102.151 19.3396 91.8151 25.2691 91.8151C31.1985 91.8151 35.8406 102.151 35.8406 115.388C35.8406 128.625 31.1985 138.961 25.2691 138.961ZM25.2691 92.7943C19.938 92.7943 15.5951 102.949 15.5951 115.46C15.5951 127.972 19.938 138.127 25.2691 138.127C30.6002 138.127 34.9339 127.972 34.9339 115.46C34.9339 102.949 30.5911 92.7943 25.2691 92.7943Z" fill="#263238"/>
<path d="M169.798 78.161H150.885C143.324 78.161 137.195 91.7064 137.195 108.416C137.195 125.125 143.324 138.662 150.885 138.662H169.798C177.368 138.662 183.497 125.116 183.497 108.416C183.497 91.7154 177.368 78.161 169.798 78.161Z" fill="#263238"/>
<path d="M169.798 139.115H150.885C143.088 139.115 136.741 125.343 136.741 108.416C136.741 91.4888 143.088 77.7077 150.885 77.7077H169.798C177.604 77.7077 183.951 91.4797 183.951 108.416C183.951 125.352 177.604 139.115 169.798 139.115ZM150.885 78.6144C143.587 78.6144 137.648 91.9874 137.648 108.416C137.648 124.844 143.587 138.208 150.885 138.208H169.798C177.105 138.208 183.044 124.844 183.044 108.416C183.044 91.9874 177.105 78.6144 169.798 78.6144H150.885Z" fill="#263238"/>
<path d="M188.856 87.5629H166.189V154.909H188.856C197.922 154.909 205.266 139.84 205.266 121.254C205.266 102.668 197.922 87.5629 188.856 87.5629Z" fill="#263238"/>
<path d="M188.856 155.335H165.736V87.1096H188.856C198.158 87.1096 205.719 102.414 205.719 121.227C205.719 140.04 198.158 155.335 188.856 155.335ZM166.643 154.428H188.856C197.659 154.428 204.813 139.532 204.813 121.227C204.813 102.922 197.659 88.0162 188.856 88.0162H166.643V154.428Z" fill="#263238"/>
<path d="M166.189 154.882C175.253 154.882 182.6 139.814 182.6 121.227C182.6 102.64 175.253 87.5719 166.189 87.5719C157.126 87.5719 149.779 102.64 149.779 121.227C149.779 139.814 157.126 154.882 166.189 154.882Z" fill="#878787"/>
<path d="M166.189 155.335C156.887 155.335 149.326 140.031 149.326 121.227C149.326 102.423 156.887 87.1096 166.189 87.1096C175.492 87.1096 183.053 102.414 183.053 121.227C183.053 140.04 175.483 155.335 166.189 155.335ZM166.189 88.0162C157.386 88.0162 150.232 102.912 150.232 121.227C150.232 139.541 157.386 154.428 166.189 154.428C174.993 154.428 182.146 139.532 182.146 121.227C182.146 102.922 174.984 88.0162 166.189 88.0162Z" fill="#263238"/>
<path d="M166.189 149.786C173.82 149.786 180.007 137.617 180.007 122.605C180.007 107.593 173.82 95.4236 166.189 95.4236C158.558 95.4236 152.372 107.593 152.372 122.605C152.372 137.617 158.558 149.786 166.189 149.786Z" fill="white"/>
<path d="M166.189 150.24C158.32 150.24 151.919 137.846 151.919 122.605C151.919 107.364 158.32 94.9702 166.189 94.9702C174.059 94.9702 180.46 107.373 180.46 122.605C180.46 137.837 174.059 150.24 166.189 150.24ZM166.189 95.8406C158.818 95.8406 152.825 107.836 152.825 122.569C152.825 137.302 158.818 149.297 166.189 149.297C173.561 149.297 179.553 137.311 179.553 122.569C179.553 107.826 173.561 95.8769 166.189 95.8769V95.8406Z" fill="#263238"/>
<path d="M317.355 80.745H294.689C285.622 80.745 278.278 95.8135 278.278 114.4C278.278 132.986 285.622 148.064 294.689 148.064H317.355C326.421 148.064 333.765 132.986 333.765 114.4C333.765 95.8135 326.412 80.745 317.355 80.745Z" fill="#263238"/>
<path d="M317.355 148.562H294.689C285.396 148.562 277.825 133.258 277.825 114.445C277.825 95.6321 285.396 80.3369 294.689 80.3369H317.355C326.648 80.3369 334.219 95.6411 334.219 114.445C334.219 133.249 326.648 148.562 317.355 148.562ZM294.689 81.2436C285.894 81.2436 278.732 96.1398 278.732 114.445C278.732 132.75 285.894 147.656 294.689 147.656H317.355C326.149 147.656 333.312 132.759 333.312 114.445C333.312 96.1307 326.149 81.2436 317.355 81.2436H294.689Z" fill="#263238"/>
<path d="M94.9087 3.77048C91.078 4.18642 87.2816 4.87419 83.5484 5.82857C75.4865 7.87213 67.6032 10.5646 59.9756 13.8796C45.1881 20.48 27.2274 33.8984 21.7694 36.3917C16.3114 38.885 7.89767 39.3564 6.98195 42.9921C6.28028 46.2867 5.75069 49.6156 5.39531 52.9652C5.39531 52.9652 1.76872 56.1476 1.29726 65.0146C0.825802 73.8816 0.163949 103.447 0.843935 107.319C1.52392 111.19 1.29726 112.088 4.71533 113.91C8.13339 115.733 10.1552 118.008 10.8533 118.008C11.5515 118.008 6.95475 89.8386 14.2351 83.2836C21.5155 76.7285 32.4316 78.2789 36.9739 93.2567C41.5162 108.235 39.9296 124.418 41.7519 125.325C43.0492 125.919 44.4323 126.305 45.85 126.467L146.597 134.627C146.597 134.627 141.819 113.022 147.277 98.6875C152.735 84.3534 163.197 77.0821 172.971 80.7268C182.745 84.3715 189.808 101.19 191.848 112.106C193.888 123.022 194.568 128.48 194.123 132.351C193.679 136.223 193.67 138.036 196.626 138.263C199.581 138.489 328.996 134.4 339.223 133.258C349.45 132.116 356.277 130.756 356.957 128.027C357.637 125.298 357.637 126.893 357.637 125.307C357.637 123.72 356.504 96.6566 355.824 92.7852C355.144 88.9138 354.682 86.1939 353.104 83.9182C351.401 81.711 349.585 79.5928 347.664 77.5717C347.664 77.5717 348.344 72.567 345.389 69.158C342.433 65.749 298.542 48.6858 298.542 48.6858C298.542 48.6858 267.38 28.2137 255.784 21.3957C244.188 14.5777 225.765 7.79599 207.342 4.79498C188.919 1.79397 158.9 0.696939 141.619 0.470277C128.337 0.288947 105.045 2.6553 94.9087 3.77048Z" fill="#3B82F6"/>
<path d="M197.287 138.743H196.589C196.133 138.745 195.681 138.651 195.263 138.468C194.845 138.286 194.469 138.018 194.16 137.682C193.253 136.604 193.398 134.854 193.697 132.297C194.132 128.625 193.561 123.548 191.431 112.197C189.554 102.169 182.845 84.8702 172.844 81.1529C163.37 77.626 153.043 84.9064 147.73 98.8507C142.417 112.795 147.014 134.328 147.014 134.545L147.141 135.144L45.7865 126.902C44.3122 126.74 42.8734 126.342 41.5253 125.724C40.6186 125.252 40.4192 123.049 40.1018 117.673C39.7392 111.507 39.1952 102.187 36.4752 93.3836C34.3265 86.3118 30.5367 81.6969 25.7858 80.3822C21.996 79.3305 17.8708 80.5001 14.4709 83.5827C9.03097 88.5239 10.4453 106.512 11.0528 114.191C11.3429 117.818 11.3429 118.081 11.1072 118.335L10.9712 118.48H10.7536C10.2912 118.48 9.74722 118.063 8.76804 117.292C7.40195 116.179 5.93949 115.19 4.398 114.336C1.16126 112.614 0.979935 111.508 0.490345 108.57C0.435946 108.216 0.372481 107.836 0.299949 107.419C-0.407237 103.42 0.299947 73.0565 0.744205 65.0146C1.18846 56.9726 4.17134 53.4639 4.86039 52.7748C5.22637 49.4513 5.7681 46.1495 6.48329 42.8833C7.13608 40.2721 11.0165 39.2023 15.1599 38.069C17.3269 37.5417 19.449 36.8444 21.5065 35.9837C25.073 34.0521 28.5352 31.9336 31.8785 29.6371C39.6848 24.569 50.3832 17.6331 59.7126 13.4716C67.3575 10.1377 75.2627 7.43589 83.349 5.39335C87.1188 4.43405 90.9512 3.74028 94.8181 3.31714C104.41 2.26542 128.183 -0.155337 141.556 0.00785957C161.067 0.270788 189.998 1.54917 207.342 4.33258C224.569 7.09786 243.164 13.4807 255.939 20.9968C267.226 27.6334 297.391 47.4256 298.678 48.2688C301.026 49.1754 342.687 65.4135 345.661 68.8497C348.38 72.0048 348.163 76.3658 348.063 77.3994C349.957 79.3935 351.745 81.4846 353.421 83.6643C355.035 85.9763 355.516 88.6962 356.141 92.4679L356.187 92.7217C356.876 96.6294 358 123.983 358 125.316C358 126.168 358 126.222 357.855 126.485C357.589 127.01 357.406 127.573 357.311 128.154C356.549 131.2 349.804 132.551 339.178 133.729C329.25 134.836 208.086 138.743 197.287 138.743ZM167.976 79.3759C169.736 79.3673 171.483 79.6744 173.134 80.2825C183.479 84.1358 190.361 101.788 192.292 112.015C194.441 123.475 195.012 128.616 194.577 132.397C194.314 134.645 194.178 136.295 194.83 137.093C195.069 137.328 195.353 137.512 195.664 137.633C195.976 137.755 196.309 137.812 196.644 137.8C198.72 137.8 327.582 134.083 339.133 132.796C347.338 131.889 355.815 130.592 356.486 127.909C356.601 127.242 356.818 126.596 357.13 125.996C357.145 125.76 357.145 125.524 357.13 125.289C357.13 123.965 356.005 96.7382 355.316 92.8487V92.5948C354.664 88.9682 354.201 86.3027 352.705 84.163C351.004 81.9538 349.188 79.8354 347.265 77.8164L347.12 77.6623V77.4447C347.12 77.3994 347.737 72.5941 344.953 69.3846C342.678 66.7553 313.429 54.9326 298.288 49.0485L298.197 49.0032C297.889 48.7946 266.918 28.4585 255.458 21.7221C242.765 14.2604 224.278 7.92291 207.179 5.17577C189.889 2.40142 161.003 1.12304 141.52 0.860111C128.183 0.687848 104.474 3.11767 94.8997 4.16939C91.0753 4.58347 87.285 5.26819 83.5575 6.21841C75.5209 8.24655 67.6642 10.9302 60.0662 14.2423C50.8003 18.3766 40.12 25.2943 32.35 30.3443C28.9822 32.6826 25.4928 34.8404 21.8963 36.8087C19.7913 37.6895 17.6209 38.4049 15.4047 38.9484C11.5333 40.0092 7.8886 41.0065 7.36274 43.1009C6.66462 46.3961 6.13505 49.7248 5.77611 53.074V53.2463L5.64918 53.3641C5.64918 53.3641 2.14045 56.5646 1.70525 65.1052C1.2338 74.2896 0.581011 103.538 1.24286 107.301C1.3154 107.718 1.37886 108.108 1.44232 108.461C1.92285 111.362 2.03165 112.088 4.87853 113.575C6.47897 114.447 7.99636 115.464 9.41177 116.612C9.77443 116.893 10.1643 117.201 10.4544 117.401C10.4544 116.739 10.3456 115.533 10.2459 114.291C9.5659 105.814 8.16966 88.1794 13.945 82.939C17.5716 79.6388 22.0233 78.4058 26.1213 79.53C31.1804 80.9353 35.1878 85.7677 37.4272 93.1297C40.1472 102.042 40.6821 111.426 41.0538 117.609C41.2623 121.027 41.4709 124.563 41.9604 124.862C43.2082 125.426 44.5355 125.793 45.8953 125.95L146.026 134.11C145.318 130.484 141.918 111.444 146.851 98.5243C151.411 86.5747 159.616 79.3759 167.976 79.3759Z" fill="#263238"/>
<path d="M267.353 77.5626L273.945 82.794L216.644 78.2426L196.172 61.1886L194.577 54.8148L235.974 69.3756L267.353 77.5626Z" fill="#263238"/>
<path d="M275.395 83.3561L216.463 78.6778L216.345 78.5871L195.764 61.4424L193.951 54.1076L236.137 68.9404L267.598 77.1455L275.395 83.3561ZM216.826 77.8437L272.512 82.2681L267.154 78.0159L235.865 69.8561L195.229 55.5673L196.58 61.0072L216.826 77.8437Z" fill="#263238"/>
<path d="M242.266 80.2735L247.344 77.5535H265.785C265.785 77.5535 245.539 75.9578 244.179 75.9578C242.819 75.9578 238.259 77.7711 236.446 78.2335C234.632 78.6959 227.805 78.6869 224.841 77.0912C221.876 75.4955 218.703 68.9313 218.703 68.9313L246.056 72.0139L235.992 69.3937L201.594 57.2809C198.675 58.5683 198.276 62.2493 198.221 62.893L198.439 63.0744L213.68 68.0065L222.973 78.7503L242.266 80.2735Z" fill="white"/>
<path d="M242.366 80.7359L222.755 79.1855L213.426 68.3964L198.149 63.4279L197.759 63.0925V62.8658C197.813 62.1042 198.258 58.251 201.386 56.8638L201.549 56.7913L236.101 68.9403L246.138 71.5606L245.974 72.4672L219.455 69.4843C220.362 71.2251 222.801 75.5317 225.022 76.7375C227.842 78.2607 234.469 78.297 236.301 77.8346C236.953 77.6714 238.014 77.3178 239.129 76.9279C240.745 76.283 242.426 75.8178 244.143 75.5408C245.503 75.5408 264.996 77.073 265.776 77.1365V78.0431H247.452L242.366 80.7359ZM223.172 78.306L242.212 79.8111L247.262 77.0911H253.998C249.266 76.7285 244.769 76.4021 244.161 76.4021C242.547 76.6947 240.965 77.1441 239.438 77.7439C238.304 78.1247 237.234 78.4874 236.536 78.6506C234.551 79.1492 227.66 79.1129 224.614 77.4719C221.567 75.8309 218.412 69.3121 218.267 69.0854L217.914 68.351L239.791 70.8171L235.865 69.8107L201.621 57.7704C199.346 58.8947 198.82 61.6872 198.711 62.6845L213.952 67.6166L223.172 78.306Z" fill="#263238"/>
<path d="M329.63 77.1181L324.897 77.4051L324.952 78.3101L329.685 78.0231L329.63 77.1181Z" fill="#263238"/>
<path d="M280.79 79.385L270.953 78.4783L271.034 77.5717L280.763 78.4783C281.869 78.3061 298.832 75.7584 307.191 76.4384C313.647 76.9461 318.833 77.345 321.045 77.4901L320.981 78.3967C318.769 78.2426 313.574 77.8618 307.119 77.345C298.614 76.6832 281.016 79.3668 280.826 79.394L280.79 79.385Z" fill="#263238"/>
<path d="M345.361 69.1489C344.545 68.2423 340.647 66.2386 335.388 63.8813L334.645 64.1442C334.645 64.1442 338.734 67.0999 337.827 70.0556C336.92 73.0113 331.481 76.4021 331.481 76.4021L331.707 81.4068C331.707 81.4068 344.899 80.5002 347.628 77.5445C347.637 77.5627 348.29 72.5579 345.361 69.1489Z" fill="white"/>
<path d="M331.281 81.9054L331.018 76.1754L331.245 76.0394C331.299 76.0394 336.576 72.6848 337.419 69.9195C338.226 67.3084 334.445 64.534 334.409 64.4796L333.702 63.9719L335.443 63.3645L335.606 63.4461C341.608 66.166 344.917 67.9068 345.706 68.8225C348.761 72.3494 348.108 77.3813 348.081 77.5898V77.7349L347.982 77.8437C345.171 80.89 332.306 81.8148 331.762 81.8511L331.281 81.9054ZM331.952 76.665L332.142 80.9353C334.454 80.7449 344.709 79.7657 347.202 77.3087C347.274 76.4837 347.528 72.295 345.017 69.3937C344.554 68.8678 342.596 67.5804 335.95 64.5703C337.174 65.7218 338.988 67.8886 338.299 70.1462C337.41 72.9568 333.022 75.9669 331.97 76.665H331.952Z" fill="#263238"/>
<path d="M340.357 77.5626C338.988 76.1936 332.85 76.8736 332.85 76.8736C332.85 76.8736 335.805 76.1936 337.383 75.7402C338.96 75.2869 339.196 74.8336 339.885 71.6422C340.108 70.792 340.052 69.8929 339.725 69.0769C339.399 68.2609 338.819 67.5711 338.072 67.109L334.917 64.0626L334.663 64.1533C334.663 64.1533 338.752 67.109 337.845 70.0646C336.939 73.0203 331.499 76.4112 331.499 76.4112L331.725 81.4159C335.058 81.1627 338.371 80.6963 341.644 80.0196C341.467 79.0915 341.019 78.2366 340.357 77.5626Z" fill="#263238"/>
<path d="M331.281 81.9055L331.018 76.1754L331.245 76.0394C331.299 76.0394 336.576 72.6848 337.419 69.9196C338.226 67.3084 334.445 64.5341 334.409 64.4797L333.702 63.9719L335.044 63.5005L338.362 66.71C339.175 67.2315 339.804 67.9949 340.16 68.8928C340.517 69.7907 340.582 70.7777 340.348 71.7147C339.649 74.9424 339.359 75.6224 337.528 76.1482L337.165 76.248C338.625 76.3296 340.039 76.5834 340.674 77.209C341.402 77.9562 341.891 78.903 342.079 79.929L342.161 80.3642L341.735 80.4639C338.444 81.1474 335.113 81.6168 331.762 81.8692L331.281 81.9055ZM331.952 76.665L332.142 80.9354C335.144 80.6943 338.129 80.2765 341.082 79.6842C340.893 79.0013 340.535 78.3774 340.039 77.8709C339.133 76.9642 335.189 77.064 332.904 77.3178L332.75 76.4112C332.75 76.4112 335.715 75.7221 337.283 75.2779C338.589 74.9061 338.779 74.7339 339.468 71.5243C339.651 70.8247 339.625 70.0869 339.393 69.4021C339.161 68.7173 338.733 68.1155 338.163 67.6711C338.489 68.4628 338.537 69.3418 338.299 70.1644C337.41 72.9568 333.022 75.9669 331.97 76.665H331.952Z" fill="#263238"/>
<path d="M348.29 87.5629C348.29 87.5629 315.315 92.3409 258.006 88.9319C258.006 88.9319 262.095 94.1633 272.331 96.1851C282.567 98.2069 313.266 97.7808 328.96 96.1851C344.654 94.5894 345.107 93.4652 346.921 91.6519C347.45 91.1228 347.849 90.4781 348.087 89.7685C348.324 89.059 348.394 88.3039 348.29 87.5629Z" fill="#263238"/>
<path d="M296.402 98.0257C286.375 98.0257 277.127 97.6267 272.267 96.6566C261.986 94.5985 257.842 89.4034 257.67 89.213L257.054 88.4152L258.06 88.4787C314.653 91.8423 347.918 87.164 348.253 87.1187L348.68 87.0552L348.761 87.4723C348.888 88.2916 348.82 89.1294 348.561 89.9172C348.303 90.705 347.862 91.4206 347.274 92.0055L347.039 92.2412C345.316 93.9911 344.183 95.1516 329.033 96.6838C321.009 97.4726 308.171 98.0257 296.402 98.0257ZM259.148 89.4487C260.744 90.9719 264.914 94.254 272.449 95.7953C282.222 97.7536 312.559 97.4545 328.942 95.7953C343.766 94.2902 344.808 93.2295 346.386 91.6156L346.631 91.3709C347.057 90.9459 347.39 90.4373 347.61 89.8772C347.83 89.317 347.932 88.7173 347.909 88.116C343.702 88.6237 311.525 92.486 259.148 89.4487Z" fill="#263238"/>
<path d="M355.597 125.316C339.394 127.649 323.067 129.018 306.702 129.414C281.452 129.867 251.886 127.138 247.117 128.961C242.348 130.783 237.334 134.183 235.285 134.872C233.236 135.561 223.689 136.005 223.689 136.005C223.689 136.005 243.472 119.404 251.433 116.902C259.393 114.4 269.856 114.182 272.811 114.182C275.767 114.182 341.037 112.124 344.663 111.897C348.29 111.671 351.916 113.711 353.077 115.995C354.237 118.28 355.597 125.316 355.597 125.316Z" fill="#263238"/>
<path d="M222.365 136.522L223.399 135.615C224.206 134.935 243.345 118.924 251.297 116.422C259.629 113.81 270.681 113.702 272.811 113.702C276.13 113.702 341.254 111.644 344.645 111.426C348.652 111.181 352.352 113.484 353.494 115.769C354.636 118.054 355.978 124.926 356.042 125.216L356.132 125.678L355.661 125.751C339.435 128.073 323.088 129.442 306.702 129.849C295.251 130.048 283.129 129.613 272.385 129.223C259.765 128.761 249.801 128.398 247.271 129.359C244.583 130.469 241.975 131.762 239.465 133.231C238.175 134.018 236.826 134.703 235.43 135.28C233.345 135.978 224.106 136.422 223.707 136.44L222.365 136.522ZM345.234 112.296H344.709C341.309 112.514 276.13 114.572 272.811 114.572C270.699 114.572 259.774 114.699 251.569 117.292C244.832 119.404 229.238 131.989 225.04 135.425C227.76 135.271 233.635 134.89 235.149 134.382C236.488 133.818 237.785 133.157 239.03 132.406C241.575 130.912 244.223 129.6 246.954 128.48C249.674 127.446 259.647 127.818 272.412 128.281C283.12 128.67 295.26 129.106 306.693 128.906C322.875 128.532 339.022 127.224 355.053 124.989C354.727 123.385 353.621 118.099 352.687 116.24C351.753 114.382 348.562 112.296 345.234 112.296Z" fill="#263238"/>
<path d="M229.147 90.0653C229.147 90.0653 216.635 128.498 215.049 128.045C213.462 127.591 211.866 125.769 211.866 124.862C211.866 123.956 214.822 98.479 217.306 93.71C219.791 88.9411 229.147 90.0653 229.147 90.0653Z" fill="#263238"/>
<path d="M215.13 128.516C215.061 128.526 214.991 128.526 214.922 128.516C213.109 128.009 211.413 126.014 211.413 124.89C211.413 123.765 214.369 98.3883 216.916 93.5196C219.464 88.6509 228.812 89.5938 229.202 89.6482L229.746 89.7117L229.582 90.2375C229.582 90.3282 226.409 99.9568 223.127 109.404C216.998 126.957 215.792 128.516 215.13 128.516ZM226.799 90.437C223.952 90.437 219.31 90.9175 217.732 93.9457C215.348 98.479 212.293 123.865 212.293 124.89C212.293 125.488 213.544 127.093 215.012 127.61C216.626 125.869 224.034 104.318 228.54 90.5095C228.132 90.437 227.524 90.4098 226.799 90.4098V90.437Z" fill="#263238"/>
<path d="M188.003 84.9609L187.686 84.1086C188.239 83.9092 188.819 83.7006 189.436 83.5011C193.507 82.1412 213.199 77.753 214.042 77.5717L214.233 78.4783C214.033 78.5237 193.742 83.0116 189.753 84.3716C189.119 84.5619 188.538 84.7614 188.003 84.9609Z" fill="#263238"/>
<path d="M182.953 87.0643L182.554 86.2483C182.554 86.2483 183.316 85.8675 184.585 85.3416L184.939 86.1757C183.697 86.6925 182.962 87.0552 182.953 87.0643Z" fill="#263238"/>
<path d="M181.385 47.9968C181.385 47.9968 173.225 47.3077 169.598 44.5787C165.972 41.8497 135.49 8.42157 135.49 8.42157C135.49 8.42157 214.632 10.0173 223.952 10.4706C233.272 10.9239 233.281 12.7463 243.962 16.6086C254.642 20.4709 288.542 44.1254 288.542 44.1254L295.133 48.6586C295.133 48.6586 279.212 49.112 240.553 48.2053C201.893 47.2987 181.385 47.9968 181.385 47.9968Z" fill="#878787"/>
<path d="M282.304 49.2389C273.464 49.2389 259.783 49.1301 240.507 48.6768C202.301 47.7701 181.575 48.441 181.403 48.4501H181.349C181.013 48.4501 172.989 47.7248 169.29 44.9414C165.591 42.158 136.361 10.0989 135.119 8.72982L134.402 7.9501H135.463C136.252 7.9501 214.713 9.5458 223.943 9.99912C230.29 10.3074 232.42 11.2594 236.31 13.0001C238.214 13.8433 240.571 14.895 244.08 16.1643C254.706 20.0085 287.381 42.7745 288.759 43.7355L296.502 49.0757H295.115C295.033 49.1301 291.008 49.2389 282.304 49.2389ZM203.081 47.2986C212.592 47.2986 225.14 47.4075 240.526 47.7701C272.458 48.5226 289.022 48.3413 293.682 48.2506L288.242 44.5062C287.907 44.2614 254.288 20.8336 243.817 17.0347C240.281 15.7563 237.896 14.6956 235.983 13.8433C232.067 12.1026 230.108 11.2231 223.943 10.9239C215.312 10.5069 145.971 9.11062 136.542 8.90209C141.157 13.9431 166.625 41.7772 169.88 44.2614C173.27 46.8 180.95 47.5344 181.448 47.5797C181.947 47.625 189.345 47.2986 203.081 47.2986Z" fill="#263238"/>
<path d="M150.912 58.4595C150.912 58.4595 155.691 52.7748 155.446 48.9035C155.201 45.0321 138.854 21.84 130.449 15.022C122.045 8.204 111.12 5.46591 104.973 5.46591C98.8255 5.46591 80.6381 8.87491 69.2688 13.1996C57.8994 17.5243 43.121 24.3514 43.121 24.3514L25.1512 36.1378C25.1512 36.1378 47.21 42.7382 87.9185 48.8763C128.627 55.0143 150.912 58.4595 150.912 58.4595Z" fill="#878787"/>
<path d="M151.103 58.9401H150.849C150.622 58.9401 128.092 55.4585 87.855 49.393C47.6179 43.3276 25.2418 36.7 25.0242 36.6365L24.1176 36.3645L42.8943 23.9978C43.1028 23.8981 57.8812 17.0892 69.1327 12.8098C80.7922 8.38534 98.9342 5.04888 105 5.04888C111.654 5.01261 122.534 8.03175 130.694 14.6684C139.062 21.4501 155.636 44.6694 155.881 48.8763C156.117 52.8746 151.429 58.5139 151.23 58.7497L151.103 58.9401ZM26.221 36.0019C30.854 37.3074 52.405 43.0918 87.9909 48.4592C125.925 54.1802 148.12 57.5257 150.731 57.9699C151.547 56.9454 155.201 52.1855 155.01 48.9035C154.802 45.2769 138.745 22.3024 130.159 15.3575C122.153 8.86586 111.491 5.91019 104.972 5.91019C98.9705 5.91019 81.0007 9.21946 69.4319 13.6167C58.2075 17.878 43.4564 24.6778 43.3113 24.7413L26.221 36.0019Z" fill="#263238"/>
<path d="M130.449 15.022C122.036 8.19493 111.12 5.46591 104.973 5.46591C98.8255 5.46591 80.6381 8.87491 69.2688 13.1996C57.8994 17.5243 43.121 24.3514 43.121 24.3514L25.1512 36.1378C25.1512 36.1378 31.0989 37.9511 42.4864 40.4807L52.4595 22.7194L60.8732 18.4038L51.9155 42.5025L53.8013 42.8924L62.4689 18.4129C70.2026 14.3148 92.488 8.85678 92.488 8.85678C85.8876 17.7873 80.7832 40.9521 79.4232 47.5525C82.1432 47.9968 84.9991 48.4592 87.9367 48.8853L88.3991 48.9578C88.7345 28.794 98.3722 8.15866 98.3722 8.15866C98.3722 8.15866 107.439 7.25201 119.071 11.341C125.994 13.7787 132.18 17.945 137.041 23.4448L131.111 55.4495L133.514 55.8121L138.636 26.1647L145.681 35.0317L142.154 57.1177L150.912 58.4595C150.912 58.4595 155.691 52.7748 155.446 48.9035C155.201 45.0321 138.854 21.84 130.449 15.022Z" fill="#263238"/>
<path d="M151.103 58.94L141.637 57.4985L145.2 35.1586L138.899 27.2345L133.876 56.3198L130.567 55.8212L136.551 23.5626C131.74 18.2332 125.681 14.183 118.917 11.7762C112.435 9.42711 105.561 8.34969 98.6713 8.60291C97.6105 10.9602 89.1333 30.2809 88.8251 48.9578V49.4746L87.855 49.3205C84.9084 48.8853 82.0796 48.4139 79.3325 47.9877L78.8701 47.9152L78.9607 47.4528C80.3207 40.8433 85.1169 19.1563 91.409 9.58209C86.7579 10.7607 69.5135 15.2486 62.8133 18.7211L54.0732 43.4091L51.2898 42.847L60.0209 19.3376L52.7677 23.064L42.7492 41.0247L42.4137 40.9521C31.1441 38.4135 25.1058 36.6183 25.0514 36.6002L24.1448 36.3282L42.9215 23.9615C43.13 23.8618 57.9084 17.0529 69.1599 12.7735C80.8194 8.34904 98.9614 5.01257 105.027 5.01257C111.654 5.01257 122.534 8.03172 130.694 14.6684C139.062 21.4501 155.636 44.6694 155.881 48.8762C156.117 52.8746 151.429 58.5139 151.23 58.7496L151.103 58.94ZM142.68 56.7369L150.731 57.9699C151.547 56.9454 155.201 52.1855 155.01 48.9034C154.802 45.2768 138.745 22.3024 130.159 15.3574C122.153 8.86583 111.491 5.91016 104.972 5.91016C98.9705 5.91016 81.0007 9.21943 69.4319 13.6167C58.2076 17.8779 43.4564 24.6778 43.3113 24.7412L26.221 36.0018C28.2972 36.5912 33.7462 38.069 42.2596 39.9911L52.1149 22.4112L61.6891 17.4971L52.5047 42.1942L53.4839 42.3937L62.079 18.1136L62.2331 18.032C69.9305 13.9521 91.4453 8.6573 92.361 8.4397L93.5759 8.14051L92.8325 9.14689C86.4859 17.7782 81.4722 39.8732 79.949 47.2261C82.5239 47.6432 85.1864 48.0603 87.9366 48.4773C88.4262 28.6126 97.9097 8.24024 97.9732 8.03171L98.082 7.79599H98.3358C105.431 7.4764 112.518 8.56729 119.189 11.0055C126.161 13.4826 132.398 17.6765 137.322 23.1999L137.449 23.3631L131.564 55.0958L133.07 55.3225L138.283 25.122L146.089 34.941L142.68 56.7369Z" fill="#263238"/>
<path d="M148.183 42.5387C148.183 42.5387 144.094 38.9122 142.045 40.4897C140.678 41.7143 139.659 43.2781 139.09 45.023L134.992 44.5606C134.992 44.5606 131.365 35.0136 128.645 34.7869C125.925 34.5602 112.951 33.8802 109.995 35.0136C107.04 36.1469 106.586 38.6402 106.369 40.2449C106.151 41.8497 105.689 46.8363 107.955 47.9786C110.222 49.121 131.61 51.6052 131.61 51.6052L138.863 54.3252L137.721 56.8275L150.912 58.4232C150.912 58.4232 155.01 51.17 155.446 48.8671C155.881 46.5643 148.183 42.5387 148.183 42.5387Z" fill="#263238"/>
<path d="M151.157 58.9401L137.041 57.2356L138.228 54.6154L131.456 52.0768C130.005 51.9045 109.995 49.5381 107.711 48.3958C105.109 47.0993 105.643 41.7954 105.897 40.2359C106.097 38.8306 106.514 35.9203 109.823 34.6419C112.996 33.427 126.714 34.2249 128.672 34.388C131.392 34.6147 134.638 42.4391 135.327 44.198L138.791 44.5878C139.384 42.882 140.413 41.3602 141.773 40.1725C143.995 38.4408 147.975 41.7772 148.455 42.1943C149.897 42.9649 156.407 46.5734 155.917 49.0304C155.455 51.3514 151.484 58.4142 151.32 58.7134L151.157 58.9401ZM138.392 56.4921L150.64 57.97C151.375 56.6463 154.603 50.7168 154.992 48.8128C155.255 47.48 151.03 44.5697 147.948 42.9377L147.857 42.8743C146.796 41.9676 143.732 39.7373 142.299 40.8434C141.007 42.0185 140.042 43.5086 139.498 45.1681L139.38 45.5308L134.647 45.0049L134.547 44.742C133.178 41.1154 130.341 35.4035 128.564 35.2584C125.445 34.9955 112.897 34.3518 110.113 35.4579C107.33 36.564 106.949 39.0029 106.759 40.3266C106.36 43.1644 106.469 46.7729 108.11 47.5798C109.923 48.4864 125.689 50.4811 131.61 51.2064H131.719L139.452 54.1077L138.392 56.4921Z" fill="#263238"/>
<path d="M133.632 45.7211L134.992 44.5787C134.992 44.5787 131.365 35.0317 128.645 34.8051C125.925 34.5784 112.951 33.8984 109.995 35.0317C107.04 36.165 106.586 38.6583 106.369 40.2631C106.165 41.6742 106.126 43.1041 106.251 44.5243C112.561 45.0592 132.507 46.6731 133.632 45.7211Z" fill="white"/>
<path d="M130.123 46.4555C125.771 46.4555 117.765 45.9569 106.187 44.9777H105.816L105.77 44.606C105.648 43.1494 105.687 41.6838 105.888 40.2359C106.088 38.8306 106.505 35.9203 109.814 34.6419C112.987 33.427 126.705 34.2249 128.663 34.388C131.592 34.6328 135.01 43.4545 135.418 44.4609L135.536 44.7601L133.922 46.111C133.614 46.3286 132.344 46.4555 130.123 46.4555ZM106.641 44.1073C121.891 45.3948 132.353 45.9206 133.351 45.3585L134.457 44.4518C133.051 40.8252 130.322 35.3854 128.591 35.2675C125.472 35.0046 112.924 34.3608 110.14 35.467C107.357 36.5731 106.976 39.012 106.786 40.3357C106.614 41.5851 106.566 42.8484 106.641 44.1073Z" fill="#263238"/>
<path d="M141.365 63.4552L140.459 63.2104C141.202 60.572 141.801 58.786 141.81 58.7678L142.671 59.0579C142.671 59.0579 142.109 60.844 141.365 63.4552Z" fill="#263238"/>
<path d="M134.085 128.045C132.39 128.045 54.7079 119.033 53.9735 118.978C52.5713 118.782 51.2538 118.191 50.1746 117.274L49.268 116.63C46.9742 115.107 33.3926 77.8074 32.0417 72.9387C31.7558 71.8174 31.5647 70.674 31.4705 69.5207L32.3771 69.43C32.4705 70.5308 32.6524 71.6223 32.9211 72.6939C34.6709 78.9408 47.9171 114.536 49.7938 115.878L50.7005 116.521C51.6666 117.353 52.8486 117.893 54.1095 118.081C54.8348 118.171 132.507 127.147 134.103 127.147C135.391 127.147 135.735 126.93 136.161 124.781C136.397 123.602 136.578 112.813 136.76 102.378C136.914 93.1026 137.077 83.5012 137.294 79.5935C137.62 75.4668 138.324 71.3788 139.398 67.381L140.305 67.5986C139.243 71.5398 138.545 75.5701 138.219 79.6389C138.011 83.5375 137.848 93.1207 137.693 102.396C137.503 113.357 137.331 123.702 137.077 124.962C136.578 127.238 136.061 128.045 134.085 128.045Z" fill="#263238"/>
<path d="M31.1442 65.0871C30.941 58.8952 31.0711 52.6968 31.534 46.5189C31.7607 45.6123 36.1217 43.255 39.6939 41.4507L40.1019 42.2577C36.5478 44.071 32.6855 46.2106 32.3681 46.7909C31.9427 52.8738 31.8247 58.9742 32.0145 65.0689L31.1442 65.0871Z" fill="#263238"/>
<path d="M79.9219 119.178H79.0152V118.035C79.0152 117.809 78.8702 115.56 78.6617 112.45C78.4259 108.824 78.0905 103.91 77.755 98.5969L78.6617 98.5425C78.988 103.855 79.3144 108.806 79.5683 112.387C79.8222 115.968 79.9219 117.827 79.9219 118.035V119.178Z" fill="#263238"/>
<path d="M77.347 91.0717C76.6489 79.0223 76.3859 71.479 76.5491 68.6593C77.0025 60.9619 80.1757 50.6895 80.1757 50.5898L81.0824 50.8618C81.0824 50.9615 77.9091 61.1251 77.4558 68.7137C77.2926 71.4971 77.5555 79.0042 78.2536 91.0173L77.347 91.0717Z" fill="#263238"/>
<path d="M43.0757 55.93C42.5951 58.3961 41.208 60.2003 39.9749 59.9646C38.7419 59.7288 38.1616 57.5348 38.6149 55.0687C39.0683 52.6026 40.4282 50.7983 41.7066 51.0341C42.985 51.2698 43.5562 53.4639 43.0757 55.93Z" fill="#263238"/>
<path d="M40.2015 60.436C40.099 60.4448 39.9958 60.4448 39.8933 60.436C39.4584 60.3051 39.0698 60.0531 38.7728 59.7095C38.4758 59.366 38.2827 58.945 38.216 58.4958C37.9323 57.3516 37.9137 56.1577 38.1616 55.0052C38.6965 52.2852 40.2922 50.3178 41.7882 50.617C43.2841 50.9162 44.0457 53.2916 43.5108 56.0569C43.308 57.2176 42.8463 58.3178 42.1599 59.2755C41.9427 59.6047 41.6536 59.8802 41.3143 60.0813C40.9751 60.2823 40.5945 60.4036 40.2015 60.436ZM41.489 51.4693C40.6548 51.4693 39.4943 52.9018 39.0591 55.1503C38.8302 56.162 38.8302 57.2121 39.0591 58.2238C39.2677 58.9672 39.6213 59.4387 40.0383 59.5203C40.4554 59.6019 40.945 59.2936 41.4255 58.6862C42.0273 57.8412 42.4302 56.8711 42.6041 55.8484C43.0665 53.473 42.4409 51.6415 41.5978 51.4783L41.489 51.4693Z" fill="#263238"/>
<path d="M42.8762 54.1983L37.4363 53.6362C37.2022 53.6059 36.9643 53.6241 36.7374 53.6897C36.5106 53.7552 36.2996 53.8667 36.1177 54.0172C35.9358 54.1677 35.7867 54.354 35.6798 54.5645C35.5728 54.775 35.5103 55.0053 35.4961 55.241C35.4674 55.6783 35.6075 56.1101 35.8874 56.4474C36.1674 56.7846 36.566 57.0018 37.0011 57.0542L42.441 57.7433C42.6947 57.7701 42.9511 57.7431 43.1935 57.664C43.436 57.5849 43.6591 57.4556 43.8482 57.2845C44.0373 57.1134 44.1881 56.9043 44.2909 56.6709C44.3937 56.4375 44.4461 56.185 44.4447 55.93C44.4294 55.5028 44.2635 55.0947 43.9766 54.7779C43.6896 54.461 43.2998 54.2557 42.8762 54.1983Z" fill="#3B82F6"/>
<path d="M42.6949 58.2147C42.6014 58.2237 42.5073 58.2237 42.4138 58.2147L36.9739 57.5347C36.4084 57.4706 35.8902 57.1885 35.5296 56.7483C35.1689 56.308 34.9943 55.7444 35.0427 55.1774C35.0599 54.8855 35.1373 54.6004 35.2699 54.3398C35.4025 54.0793 35.5875 53.849 35.8134 53.6633C36.0354 53.4732 36.2937 53.3301 36.5727 53.2428C36.8517 53.1556 37.1455 53.1259 37.4363 53.1556L42.8762 53.7177C43.31 53.7608 43.7218 53.9296 44.061 54.2033C44.4003 54.4771 44.6523 54.8439 44.7861 55.2588C44.9199 55.6737 44.9297 56.1186 44.8143 56.539C44.6989 56.9594 44.4633 57.3369 44.1364 57.6254C43.7406 57.9859 43.2299 58.1947 42.6949 58.2147ZM37.255 54.0804C36.9558 54.0786 36.6661 54.1848 36.439 54.3795C36.3064 54.4919 36.1985 54.6304 36.1221 54.7864C36.0456 54.9425 36.0023 55.1126 35.9947 55.2862C35.9735 55.6096 36.0759 55.9291 36.2812 56.1799C36.4866 56.4307 36.7795 56.5941 37.1008 56.6371L42.5407 57.3171C42.7174 57.3426 42.8974 57.3324 43.07 57.2871C43.2427 57.2417 43.4044 57.1621 43.5457 57.0531C43.687 56.944 43.805 56.8076 43.8926 56.6521C43.9802 56.4966 44.0357 56.3251 44.0557 56.1477C44.0757 55.9703 44.06 55.7907 44.0093 55.6196C43.9586 55.4484 43.874 55.2892 43.7606 55.1514C43.6473 55.0135 43.5073 54.8998 43.3492 54.8171C43.191 54.7343 43.0178 54.6842 42.8399 54.6697L37.4 54.1076L37.255 54.0804Z" fill="#263238"/>
<path d="M90.4208 61.9591C89.8678 64.942 88.254 67.127 86.7943 66.8369C85.3345 66.5468 84.6546 63.8903 85.2076 60.9074C85.7607 57.9246 87.3836 55.7395 88.8342 56.0297C90.2849 56.3198 90.9739 58.9763 90.4208 61.9591Z" fill="#263238"/>
<path d="M87.0753 67.3175C86.9576 67.3264 86.8394 67.3264 86.7217 67.3175C85.0262 66.9729 84.1649 64.1351 84.7815 60.8621C85.1894 58.6499 86.1777 56.7913 87.3563 56.0025C87.5781 55.8357 87.8316 55.7158 88.1013 55.6504C88.371 55.5849 88.6512 55.5751 88.9248 55.6217C90.6203 55.9662 91.4816 58.804 90.8651 62.077C90.4571 64.2892 89.4688 66.1479 88.2993 66.9367C87.9373 67.1806 87.5117 67.313 87.0753 67.3175ZM88.5712 56.4377C88.3159 56.4522 88.0703 56.5404 87.8641 56.6915C86.8939 57.3443 86.0508 59.0307 85.67 60.9709C85.126 63.8994 85.8876 66.166 86.903 66.4108C87.0622 66.4345 87.2246 66.4258 87.3804 66.3853C87.5361 66.3448 87.6822 66.2733 87.8097 66.1751C88.7707 65.5223 89.623 63.845 89.9947 61.8957C90.5387 58.9672 89.7862 56.7006 88.7616 56.4558L88.5712 56.4377Z" fill="#263238"/>
<path d="M90.1852 59.8558L83.8386 59.1758C83.5648 59.1523 83.2891 59.1844 83.028 59.2701C82.7669 59.3558 82.5258 59.4934 82.3192 59.6746C82.1126 59.8558 81.9447 60.0769 81.8256 60.3246C81.7066 60.5723 81.6388 60.8415 81.6264 61.116C81.584 61.6392 81.7421 62.1588 82.0687 62.5697C82.3954 62.9805 82.8661 63.2517 83.3853 63.3283L89.7318 64.1533C90.0296 64.1856 90.3308 64.1541 90.6153 64.0606C90.8999 63.9672 91.1612 63.814 91.3818 63.6115C91.6023 63.4089 91.7771 63.1616 91.8944 62.886C92.0117 62.6104 92.0688 62.313 92.0619 62.0136C92.0724 61.4852 91.8862 60.9718 91.5394 60.573C91.1925 60.1743 90.7099 59.9186 90.1852 59.8558Z" fill="#3B82F6"/>
<path d="M89.9766 64.6247H89.6593L83.3128 63.7996C82.6766 63.703 82.1008 63.3684 81.7019 62.8635C81.303 62.3586 81.1107 61.721 81.164 61.0797C81.1856 60.732 81.277 60.3923 81.4328 60.0808C81.5885 59.7692 81.8055 59.4922 82.0706 59.2664C82.3198 59.0565 82.609 58.8993 82.9207 58.8042C83.2323 58.7092 83.56 58.6782 83.8839 58.7133L90.2305 59.3933C90.8642 59.4676 91.4475 59.7753 91.8666 60.2564C92.2857 60.7375 92.5105 61.3575 92.4971 61.9954C92.497 62.372 92.416 62.7442 92.2596 63.0867C92.1031 63.4293 91.8749 63.7342 91.5904 63.981C91.148 64.3835 90.5747 64.6122 89.9766 64.6247ZM83.6301 59.62C83.2738 59.6215 82.9298 59.7501 82.66 59.9826C82.4219 60.1865 82.2464 60.4536 82.1539 60.7531C82.0613 61.0526 82.0555 61.3722 82.1371 61.6748C82.2187 61.9775 82.3844 62.2508 82.6149 62.4632C82.8454 62.6755 83.1314 62.8183 83.4397 62.8749L89.7862 63.709C90.0091 63.7373 90.2355 63.7172 90.4499 63.6499C90.6643 63.5826 90.8616 63.4697 91.0283 63.3191C91.2128 63.1557 91.3601 62.9546 91.4602 62.7293C91.5603 62.5041 91.6109 62.26 91.6086 62.0135C91.6208 61.5988 91.4781 61.1943 91.2082 60.8792C90.9383 60.564 90.5606 60.3607 90.1489 60.309L83.8023 59.6291L83.6301 59.62Z" fill="#263238"/>
<path d="M16.5109 44.1254C16.6469 42.6022 13.4827 40.9068 10.9985 39.8188C8.89503 40.5895 7.37186 41.5324 6.9548 42.9921C6.25313 46.2867 5.72354 49.6156 5.36816 52.9652C5.36816 52.9652 16.2842 46.6277 16.5109 44.1254Z" fill="#263238"/>
<path d="M4.8241 53.8446L4.91476 52.938C5.25876 49.5609 5.78234 46.2046 6.48327 42.8833C6.94566 41.0246 9.04001 40.0454 10.808 39.3927L10.9802 39.3292L11.1434 39.4017C15.169 41.1606 17.0548 42.7201 16.9279 44.1707C16.6921 46.7728 7.41712 52.3305 5.55849 53.3913L4.8241 53.8446ZM11.0165 40.3084C8.84962 41.1334 7.70724 42.0219 7.43525 43.1008C6.78595 46.0954 6.29267 49.1216 5.95741 52.1673C10.1008 49.6831 15.9305 45.6667 16.0937 44.1163C16.1391 43.1643 14.2532 41.759 11.0165 40.3084Z" fill="#263238"/>
<path d="M229.727 11.1324L187.65 47.8608C195.22 47.7429 209.545 47.6341 230.217 48.0058L250.236 19.6096C248.193 18.4614 246.073 17.4586 243.889 16.6086C236.074 13.7708 233.989 12.03 229.727 11.1324Z" fill="white"/>
<path d="M230.426 48.4682H230.19C210.108 48.1056 195.973 48.1872 187.641 48.3232H186.399L229.582 10.6338L229.809 10.6791C232.052 11.2054 234.227 11.9872 236.292 13.0092C238.196 13.8524 240.562 14.9041 244.062 16.1734C246.245 17.0331 248.366 18.045 250.408 19.2016L250.861 19.4464L230.426 48.4682ZM203.008 47.2986C210.325 47.2986 219.328 47.3621 229.963 47.5525L249.556 19.7637C247.686 18.7265 245.747 17.8178 243.753 17.0438C240.217 15.7654 237.842 14.7046 235.929 13.8524C233.982 12.8998 231.94 12.1552 229.836 11.6311L188.865 47.3984C192.576 47.3379 197.297 47.3047 203.027 47.2986H203.008Z" fill="#263238"/>
<path d="M269.312 48.722L272.032 33.0189C268.922 30.9789 265.622 28.8483 262.376 26.8174L253.246 48.4863C259.32 48.6042 264.651 48.6767 269.312 48.722Z" fill="white"/>
<path d="M269.683 49.1754H269.303C264.307 49.121 258.912 49.0484 253.264 48.9396H252.593L252.847 48.3231C255.83 41.2513 259.057 33.581 261.986 26.6452L262.158 26.1646L262.611 26.4457C265.603 28.3225 268.849 30.4168 272.267 32.6562L272.521 32.8194L269.683 49.1754ZM253.944 48.0511C259.202 48.1418 264.243 48.2143 268.931 48.2597L271.56 33.2365C268.414 31.1693 265.404 29.2382 262.621 27.4793C259.828 34.0887 256.782 41.3238 253.944 48.0511Z" fill="#263238"/>
</g>
</svg>
