<svg width="199" height="82" viewBox="0 0 199 82" fill="none" xmlns="http://www.w3.org/2000/svg">
<g filter="url(#filter0_dd_366_5677)">
<path d="M5 67.6025V6.49929C5 4.80198 5.40801 3.47808 6.22402 2.52758C7.10804 1.50919 8.23006 1 9.59008 1H26.6244C37.4366 1 45.6307 3.7157 51.2068 9.1471C56.8509 14.5785 59.6729 23.133 59.6729 34.8105C59.6729 59.7949 48.9968 72.2871 27.6444 72.2871H10.2021C6.73403 72.2871 5 70.7256 5 67.6025ZM24.5843 20.3494V50.7992C24.5843 52.2249 24.6863 53.1414 24.8903 53.5488C25.0943 53.8883 25.7064 54.058 26.7264 54.058C30.4664 54.058 33.2885 52.6662 35.1925 49.8826C37.1646 47.099 38.1506 42.4823 38.1506 36.0325C38.1506 29.5149 37.1306 25.2716 35.0905 23.3027C33.1185 21.3338 29.9564 20.3494 25.6044 20.3494H24.5843Z" fill="white"/>
<path d="M89.6728 23.8119C89.6728 22.8614 92.2432 22.3861 97.3841 22.3861C102.573 22.3861 105.167 22.8614 105.167 23.8119V56.5327C105.167 61.3802 103.429 65.3485 99.9545 68.4376C96.4797 71.4792 91.672 73 85.5315 73C79.4386 73 74.4643 71.4317 70.6086 68.295C66.8006 65.1109 64.8965 60.8337 64.8965 55.4634V23.8832C64.8965 22.9327 67.467 22.4574 72.6079 22.4574C77.7964 22.4574 80.3906 22.9327 80.3906 23.8832V56.0337C80.3906 56.9842 80.8904 57.7446 81.89 58.3148C82.9373 58.8851 84.0321 59.1703 85.1745 59.1703C86.3169 59.1703 87.3403 58.9089 88.2447 58.3861C89.1968 57.8634 89.6728 57.0792 89.6728 56.0337V23.8119Z" fill="white"/>
<path d="M111.16 69.0079V26.2356C111.16 25.0475 111.445 24.1208 112.016 23.4554C112.635 22.7426 113.421 22.3861 114.373 22.3861H126.297C133.865 22.3861 139.601 24.2871 143.504 28.0891C147.455 31.8911 149.431 37.8792 149.431 46.0535C149.431 63.5426 141.957 72.2871 127.011 72.2871H114.801C112.373 72.2871 111.16 71.1941 111.16 69.0079ZM124.869 35.9307V57.2455C124.869 58.2436 124.94 58.8851 125.083 59.1703C125.226 59.4079 125.654 59.5267 126.368 59.5267C128.986 59.5267 130.961 58.5525 132.294 56.604C133.675 54.6554 134.365 51.4238 134.365 46.9089C134.365 42.3465 133.651 39.3762 132.223 37.998C130.842 36.6198 128.629 35.9307 125.583 35.9307H124.869Z" fill="white"/>
<path d="M178.506 23.8119C178.506 22.8614 181.076 22.3861 186.217 22.3861C191.406 22.3861 194 22.8614 194 23.8119V56.5327C194 61.3802 192.263 65.3485 188.788 68.4376C185.313 71.4792 180.505 73 174.365 73C168.272 73 163.297 71.4317 159.442 68.295C155.634 65.1109 153.73 60.8337 153.73 55.4634V23.8832C153.73 22.9327 156.3 22.4574 161.441 22.4574C166.63 22.4574 169.224 22.9327 169.224 23.8832V56.0337C169.224 56.9842 169.724 57.7446 170.723 58.3148C171.77 58.8851 172.865 59.1703 174.008 59.1703C175.15 59.1703 176.173 58.9089 177.078 58.3861C178.03 57.8634 178.506 57.0792 178.506 56.0337V23.8119Z" fill="white"/>
</g>
<defs>
<filter id="filter0_dd_366_5677" x="0" y="0" width="199" height="82" filterUnits="userSpaceOnUse" color-interpolation-filters="sRGB">
<feFlood flood-opacity="0" result="BackgroundImageFix"/>
<feColorMatrix in="SourceAlpha" type="matrix" values="0 0 0 0 0 0 0 0 0 0 0 0 0 0 0 0 0 0 127 0" result="hardAlpha"/>
<feMorphology radius="1" operator="erode" in="SourceAlpha" result="effect1_dropShadow_366_5677"/>
<feOffset dy="4"/>
<feGaussianBlur stdDeviation="3"/>
<feComposite in2="hardAlpha" operator="out"/>
<feColorMatrix type="matrix" values="0 0 0 0 0 0 0 0 0 0 0 0 0 0 0 0 0 0 0.1 0"/>
<feBlend mode="normal" in2="BackgroundImageFix" result="effect1_dropShadow_366_5677"/>
<feColorMatrix in="SourceAlpha" type="matrix" values="0 0 0 0 0 0 0 0 0 0 0 0 0 0 0 0 0 0 127 0" result="hardAlpha"/>
<feMorphology radius="2" operator="erode" in="SourceAlpha" result="effect2_dropShadow_366_5677"/>
<feOffset dy="2"/>
<feGaussianBlur stdDeviation="2"/>
<feComposite in2="hardAlpha" operator="out"/>
<feColorMatrix type="matrix" values="0 0 0 0 0 0 0 0 0 0 0 0 0 0 0 0 0 0 0.1 0"/>
<feBlend mode="normal" in2="effect1_dropShadow_366_5677" result="effect2_dropShadow_366_5677"/>
<feBlend mode="normal" in="SourceGraphic" in2="effect2_dropShadow_366_5677" result="shape"/>
</filter>
</defs>
</svg>
