<svg width="358" height="20" viewBox="0 0 358 20" fill="none" xmlns="http://www.w3.org/2000/svg">
<line y1="9.25" x2="161" y2="9.25" stroke="#60A5FA" stroke-width="1.5"/>
<path d="M174.522 15.098C173.607 15.098 172.767 14.8833 172.002 14.454C171.236 14.0247 170.63 13.432 170.182 12.676C169.734 11.9107 169.51 11.0473 169.51 10.086C169.51 9.134 169.734 8.28 170.182 7.524C170.63 6.75867 171.236 6.16133 172.002 5.732C172.767 5.30267 173.607 5.088 174.522 5.088C175.446 5.088 176.286 5.30267 177.042 5.732C177.807 6.16133 178.409 6.75867 178.848 7.524C179.296 8.28 179.52 9.134 179.52 10.086C179.52 11.0473 179.296 11.9107 178.848 12.676C178.409 13.432 177.807 14.0247 177.042 14.454C176.276 14.8833 175.436 15.098 174.522 15.098ZM174.522 13.348C175.11 13.348 175.628 13.2173 176.076 12.956C176.524 12.6853 176.874 12.3027 177.126 11.808C177.378 11.3133 177.504 10.7393 177.504 10.086C177.504 9.43267 177.378 8.86333 177.126 8.378C176.874 7.88333 176.524 7.50533 176.076 7.244C175.628 6.98267 175.11 6.852 174.522 6.852C173.934 6.852 173.411 6.98267 172.954 7.244C172.506 7.50533 172.156 7.88333 171.904 8.378C171.652 8.86333 171.526 9.43267 171.526 10.086C171.526 10.7393 171.652 11.3133 171.904 11.808C172.156 12.3027 172.506 12.6853 172.954 12.956C173.411 13.2173 173.934 13.348 174.522 13.348ZM186.018 15L183.862 11.192H182.938V15H180.978V5.228H184.646C185.402 5.228 186.046 5.36333 186.578 5.634C187.11 5.89533 187.506 6.25467 187.768 6.712C188.038 7.16 188.174 7.664 188.174 8.224C188.174 8.868 187.987 9.45133 187.614 9.974C187.24 10.4873 186.685 10.842 185.948 11.038L188.286 15H186.018ZM182.938 9.722H184.576C185.108 9.722 185.504 9.596 185.766 9.344C186.027 9.08267 186.158 8.72333 186.158 8.266C186.158 7.818 186.027 7.47267 185.766 7.23C185.504 6.978 185.108 6.852 184.576 6.852H182.938V9.722Z" fill="black"/>
<line x1="197" y1="9.25" x2="358" y2="9.25001" stroke="#60A5FA" stroke-width="1.5"/>
</svg>
