<svg width="38" height="38" viewBox="0 0 38 38" fill="none" xmlns="http://www.w3.org/2000/svg">
<g clip-path="url(#clip0_511_2048)">
<path d="M37.4063 19.0001C37.4062 22.6404 36.3267 26.199 34.3041 29.2258C32.2816 32.2527 29.407 34.6118 26.0437 36.0049C22.6805 37.398 18.9797 37.7625 15.4092 37.0523C11.8388 36.3421 8.55918 34.5892 5.98502 32.0151C2.94416 28.9738 1.06402 24.964 0.670864 20.6813C0.277709 16.3986 1.39635 12.1134 3.83268 8.56937C3.87619 8.50346 3.93241 8.44688 3.99805 8.40296C4.0637 8.35904 4.13745 8.32866 4.21498 8.31359C4.29251 8.29853 4.37227 8.29908 4.44959 8.31523C4.5269 8.33137 4.60022 8.36278 4.66525 8.40761C4.73027 8.45244 4.7857 8.5098 4.82828 8.57632C4.87087 8.64284 4.89975 8.71719 4.91325 8.79501C4.92674 8.87283 4.92457 8.95256 4.90687 9.02953C4.88916 9.10651 4.85628 9.17917 4.81014 9.24328C2.3772 12.782 1.35431 17.1021 1.94214 21.3561C2.52997 25.61 4.68608 29.4908 7.98751 32.2372C11.2889 34.9835 15.4974 36.3971 19.7873 36.2007C24.0772 36.0044 28.1389 34.2121 31.1756 31.1757C34.1985 28.1519 35.9883 24.1117 36.1969 19.8412C36.4054 15.5707 35.0178 11.3753 32.304 8.07133C29.5902 4.76738 25.7443 2.5912 21.5146 1.9662C17.2849 1.3412 12.974 2.31209 9.42061 4.68996L10.3602 5.80769L6.27967 6.53133L7.6928 2.63559L8.65244 3.77707C11.4194 1.89648 14.6466 0.805567 17.9871 0.621604C21.3276 0.43764 24.6551 1.16758 27.6119 2.73296C30.5686 4.29834 33.0428 6.63996 34.7685 9.5061C36.4942 12.3722 37.4062 15.6545 37.4063 19.0001Z" fill="#A855F7"/>
<path d="M19 33.8438C27.1848 33.8438 33.8438 27.1848 33.8438 19C33.8438 10.8152 27.1848 4.15625 19 4.15625C10.8152 4.15625 4.15625 10.8152 4.15625 19C4.15625 27.1848 10.8152 33.8438 19 33.8438ZM19 5.34375C26.5301 5.34375 32.6562 11.4699 32.6562 19C32.6562 26.5301 26.5301 32.6562 19 32.6562C11.4699 32.6562 5.34375 26.5301 5.34375 19C5.34375 11.4699 11.4699 5.34375 19 5.34375Z" fill="#A855F7"/>
<path d="M19 7.71875C19.1575 7.71875 19.3085 7.65619 19.4198 7.54484C19.5312 7.43349 19.5938 7.28247 19.5938 7.125V6.53125C19.5938 6.37378 19.5312 6.22276 19.4198 6.11141C19.3085 6.00006 19.1575 5.9375 19 5.9375C18.8425 5.9375 18.6915 6.00006 18.5802 6.11141C18.4688 6.22276 18.4062 6.37378 18.4062 6.53125V7.125C18.4062 7.28247 18.4688 7.43349 18.5802 7.54484C18.6915 7.65619 18.8425 7.71875 19 7.71875ZM19 30.2812C18.8425 30.2812 18.6915 30.3438 18.5802 30.4552C18.4688 30.5665 18.4062 30.7175 18.4062 30.875V31.4688C18.4062 31.6262 18.4688 31.7772 18.5802 31.8886C18.6915 31.9999 18.8425 32.0625 19 32.0625C19.1575 32.0625 19.3085 31.9999 19.4198 31.8886C19.5312 31.7772 19.5938 31.6262 19.5938 31.4688V30.875C19.5938 30.7175 19.5312 30.5665 19.4198 30.4552C19.3085 30.3438 19.1575 30.2812 19 30.2812ZM30.875 19.5938H31.4688C31.6262 19.5938 31.7772 19.5312 31.8886 19.4198C31.9999 19.3085 32.0625 19.1575 32.0625 19C32.0625 18.8425 31.9999 18.6915 31.8886 18.5802C31.7772 18.4688 31.6262 18.4062 31.4688 18.4062H30.875C30.7175 18.4062 30.5665 18.4688 30.4552 18.5802C30.3438 18.6915 30.2812 18.8425 30.2812 19C30.2812 19.1575 30.3438 19.3085 30.4552 19.4198C30.5665 19.5312 30.7175 19.5938 30.875 19.5938ZM6.53125 19.5938H7.125C7.28247 19.5938 7.43349 19.5312 7.54484 19.4198C7.65619 19.3085 7.71875 19.1575 7.71875 19C7.71875 18.8425 7.65619 18.6915 7.54484 18.5802C7.43349 18.4688 7.28247 18.4062 7.125 18.4062H6.53125C6.37378 18.4062 6.22276 18.4688 6.11141 18.5802C6.00006 18.6915 5.9375 18.8425 5.9375 19C5.9375 19.1575 6.00006 19.3085 6.11141 19.4198C6.22276 19.5312 6.37378 19.5938 6.53125 19.5938ZM27.3969 11.1969C27.4749 11.197 27.5521 11.1816 27.6241 11.1518C27.6962 11.122 27.7616 11.0782 27.8167 11.023L28.2365 10.6031C28.2927 10.5482 28.3374 10.4827 28.368 10.4104C28.3987 10.3381 28.4147 10.2605 28.4152 10.1819C28.4156 10.1034 28.4005 10.0256 28.3706 9.95293C28.3408 9.88029 28.2968 9.81429 28.2413 9.75875C28.1858 9.70322 28.1198 9.65925 28.0472 9.62939C27.9745 9.59954 27.8967 9.58439 27.8182 9.58482C27.7396 9.58525 27.662 9.60126 27.5897 9.63191C27.5174 9.66257 27.4519 9.70726 27.397 9.7634L26.977 10.1833C26.894 10.2663 26.8374 10.3721 26.8145 10.4873C26.7916 10.6025 26.8034 10.7218 26.8483 10.8303C26.8933 10.9388 26.9694 11.0316 27.067 11.0968C27.1647 11.162 27.2795 11.1969 27.3969 11.1969ZM10.1833 28.4105C10.2612 28.4106 10.3385 28.3953 10.4105 28.3654C10.4826 28.3356 10.548 28.2918 10.6031 28.2366L11.023 27.8167C11.0782 27.7616 11.1219 27.6961 11.1518 27.6241C11.1816 27.552 11.197 27.4748 11.197 27.3969C11.197 27.3189 11.1816 27.2416 11.1518 27.1696C11.1219 27.0976 11.0782 27.0321 11.023 26.977C10.9679 26.9218 10.9024 26.8781 10.8304 26.8482C10.7583 26.8184 10.6811 26.803 10.6031 26.803C10.5252 26.803 10.448 26.8184 10.3759 26.8482C10.3039 26.8781 10.2384 26.9218 10.1833 26.977L9.7634 27.3969C9.68036 27.4799 9.62381 27.5857 9.6009 27.7009C9.57798 27.8161 9.58974 27.9355 9.63468 28.044C9.67962 28.1525 9.75573 28.2452 9.85338 28.3104C9.95102 28.3757 10.0658 28.4105 10.1833 28.4105ZM27.8167 26.977C27.7616 26.9218 27.6961 26.8781 27.6241 26.8482C27.552 26.8184 27.4748 26.803 27.3969 26.803C27.3189 26.803 27.2416 26.8184 27.1696 26.8482C27.0976 26.8781 27.0321 26.9218 26.977 26.977C26.9218 27.0321 26.8781 27.0976 26.8482 27.1696C26.8184 27.2416 26.803 27.3189 26.803 27.3969C26.803 27.4748 26.8184 27.552 26.8482 27.6241C26.8781 27.6961 26.9218 27.7616 26.977 27.8167L27.3969 28.2366C27.5082 28.3479 27.6593 28.4105 27.8167 28.4105C27.9742 28.4105 28.1252 28.3479 28.2366 28.2366C28.3479 28.1252 28.4105 27.9742 28.4105 27.8167C28.4105 27.6593 28.3479 27.5082 28.2366 27.3969L27.8167 26.977ZM10.1833 11.023C10.2383 11.0787 10.3038 11.1229 10.376 11.1532C10.4482 11.1835 10.5256 11.1992 10.6039 11.1994C10.6822 11.1996 10.7597 11.1844 10.8321 11.1545C10.9045 11.1247 10.9702 11.0808 11.0256 11.0255C11.0809 10.9701 11.1248 10.9044 11.1546 10.832C11.1844 10.7597 11.1997 10.6821 11.1994 10.6038C11.1992 10.5256 11.1835 10.4481 11.1532 10.3759C11.1229 10.3037 11.0787 10.2383 11.023 10.1833L10.603 9.7634C10.5481 9.70726 10.4826 9.66257 10.4103 9.63191C10.338 9.60126 10.2604 9.58525 10.1818 9.58482C10.1033 9.58439 10.0255 9.59954 9.95283 9.62939C9.88019 9.65925 9.8142 9.70322 9.75868 9.75875C9.70315 9.81429 9.65919 9.88029 9.62935 9.95293C9.59951 10.0256 9.58437 10.1034 9.58482 10.1819C9.58527 10.2605 9.60128 10.3381 9.63195 10.4104C9.66262 10.4827 9.70732 10.5482 9.76348 10.6031L10.1833 11.023ZM10.2316 20.9403L15.3145 26.0232C15.3697 26.0783 15.4351 26.122 15.5071 26.1519C15.5792 26.1817 15.6564 26.1971 15.7344 26.1971C15.8124 26.1971 15.8896 26.1817 15.9616 26.1519C16.0336 26.122 16.0991 26.0783 16.1542 26.0232L27.7684 14.4091C27.8236 14.3539 27.8673 14.2885 27.8972 14.2164C27.927 14.1444 27.9424 14.0671 27.9424 13.9892C27.9424 13.9112 27.927 13.834 27.8972 13.7619C27.8673 13.6899 27.8236 13.6244 27.7684 13.5693L26.5089 12.3097C26.4537 12.2545 26.3883 12.2108 26.3162 12.181C26.2442 12.1511 26.167 12.1357 26.089 12.1357C26.011 12.1357 25.9338 12.1511 25.8617 12.181C25.7897 12.2108 25.7242 12.2545 25.6691 12.3097L15.7344 22.2445L12.3309 18.8409C12.2758 18.7858 12.2103 18.7421 12.1383 18.7122C12.0662 18.6824 11.989 18.667 11.911 18.667C11.833 18.667 11.7558 18.6824 11.6838 18.7122C11.6117 18.7421 11.5463 18.7858 11.4911 18.8409L10.2316 20.1005C10.1764 20.1557 10.1327 20.2211 10.1028 20.2932C10.073 20.3652 10.0576 20.4424 10.0576 20.5204C10.0576 20.5984 10.073 20.6756 10.1028 20.7477C10.1327 20.8197 10.1764 20.8852 10.2316 20.9403ZM11.911 20.1005L15.3145 23.5041C15.3697 23.5593 15.4351 23.603 15.5071 23.6328C15.5792 23.6627 15.6564 23.678 15.7344 23.678C15.8124 23.678 15.8896 23.6627 15.9616 23.6328C16.0336 23.603 16.0991 23.5593 16.1542 23.5041L26.089 13.5693L26.5089 13.9891L15.7344 24.7636L11.4911 20.5204L11.911 20.1005Z" fill="#A855F7"/>
</g>
<defs>
<clipPath id="clip0_511_2048">
<rect width="38" height="38" fill="white"/>
</clipPath>
</defs>
</svg>
