<svg width="16" height="16" viewBox="0 0 16 16" fill="none" xmlns="http://www.w3.org/2000/svg">
<g clip-path="url(#clip0_91_1967)">
<path fill-rule="evenodd" clip-rule="evenodd" d="M8 15.2C11.9764 15.2 15.2 11.9765 15.2 8C15.2 4.02355 11.9765 0.799983 8 0.799983C4.02355 0.799983 0.799983 4.02355 0.799983 8C0.799983 11.9764 4.02355 15.2 8 15.2ZM8 16C12.4182 16 16 12.4182 16 8C16 3.58169 12.4182 0 8 0C3.58169 0 0 3.58169 0 8C0 12.4182 3.58169 16 8 16Z" fill="#A855F7"/>
<path fill-rule="evenodd" clip-rule="evenodd" d="M11.2 7.99997C11.1999 8.10604 11.1578 8.20777 11.0828 8.28278C11.0078 8.35779 10.906 8.39994 10.8 8.39996H5.19992C5.09383 8.39996 4.99209 8.35782 4.91708 8.2828C4.84207 8.20779 4.79993 8.10605 4.79993 7.99997C4.79993 7.89388 4.84207 7.79214 4.91708 7.71713C4.99209 7.64212 5.09383 7.59998 5.19992 7.59998H10.7999C10.906 7.6 11.0077 7.64214 11.0827 7.71715C11.1577 7.79216 11.1999 7.89388 11.2 7.99997Z" fill="#A855F7"/>
<path fill-rule="evenodd" clip-rule="evenodd" d="M7.99997 11.2C7.89389 11.1999 7.79216 11.1578 7.71715 11.0828C7.64215 11.0078 7.6 10.906 7.59998 10.8V5.19992C7.59998 5.09383 7.64212 4.99209 7.71713 4.91708C7.79214 4.84207 7.89388 4.79993 7.99997 4.79993C8.10605 4.79993 8.20779 4.84207 8.2828 4.91708C8.35782 4.99209 8.39996 5.09383 8.39996 5.19992V10.7999C8.39994 10.906 8.35779 11.0077 8.28278 11.0827C8.20778 11.1577 8.10605 11.1999 7.99997 11.2Z" fill="#A855F7"/>
</g>
<defs>
<clipPath id="clip0_91_1967">
<rect width="16" height="16" fill="white"/>
</clipPath>
</defs>
</svg>
