<svg width="44" height="44" viewBox="0 0 44 44" fill="none" xmlns="http://www.w3.org/2000/svg">
<rect width="44" height="44" rx="22" fill="#CBD5E1"/>
<path d="M31.2806 28.424C30.9328 29.2275 30.5211 29.9672 30.0441 30.6472C29.3938 31.5743 28.8614 32.216 28.4511 32.5724C27.8151 33.1573 27.1336 33.4568 26.4039 33.4739C25.88 33.4739 25.2483 33.3248 24.5129 33.0224C23.775 32.7214 23.097 32.5724 22.477 32.5724C21.8268 32.5724 21.1294 32.7214 20.3835 33.0224C19.6364 33.3248 19.0346 33.4824 18.5745 33.498C17.8747 33.5278 17.1772 33.2197 16.481 32.5724C16.0366 32.1848 15.4808 31.5204 14.815 30.5791C14.1006 29.5739 13.5132 28.4084 13.0531 27.0795C12.5603 25.6442 12.3133 24.2543 12.3133 22.9087C12.3133 21.3673 12.6464 20.0379 13.3135 18.9238C13.8378 18.029 14.5353 17.3231 15.4083 16.8049C16.2812 16.2867 17.2245 16.0227 18.2403 16.0058C18.7961 16.0058 19.525 16.1777 20.4308 16.5156C21.334 16.8546 21.9139 17.0265 22.1682 17.0265C22.3583 17.0265 23.0026 16.8255 24.0948 16.4247C25.1276 16.0531 25.9993 15.8992 26.7134 15.9598C28.6485 16.1159 30.1023 16.8788 31.0691 18.253C29.3385 19.3016 28.4824 20.7703 28.4994 22.6544C28.515 24.122 29.0474 25.3432 30.0937 26.3129C30.5679 26.7629 31.0975 27.1107 31.6867 27.3578C31.5589 27.7283 31.424 28.0832 31.2806 28.424ZM26.8426 10.9601C26.8426 12.1104 26.4224 13.1844 25.5847 14.1785C24.5739 15.3602 23.3513 16.0431 22.0254 15.9354C22.0085 15.7974 21.9987 15.6521 21.9987 15.4995C21.9987 14.3953 22.4794 13.2135 23.3331 12.2472C23.7593 11.758 24.3013 11.3512 24.9586 11.0267C25.6146 10.7071 26.235 10.5303 26.8185 10.5C26.8355 10.6538 26.8426 10.8076 26.8426 10.9601V10.9601Z" fill="black"/>
</svg>
