<svg width="16" height="16" viewBox="0 0 16 16" fill="none" xmlns="http://www.w3.org/2000/svg">
<g clip-path="url(#clip0_395_8864)">
<path d="M5 8H3.66667C3.11533 8 2.66667 8.44867 2.66667 9V10.3333C2.66667 10.8847 3.11533 11.3333 3.66667 11.3333H5C5.55133 11.3333 6 10.8847 6 10.3333V9C6 8.44867 5.55133 8 5 8ZM5.33333 10.3333C5.33333 10.4217 5.29821 10.5065 5.2357 10.569C5.17319 10.6315 5.08841 10.6667 5 10.6667H3.66667C3.57826 10.6667 3.49348 10.6315 3.43096 10.569C3.36845 10.5065 3.33333 10.4217 3.33333 10.3333V9C3.33333 8.91159 3.36845 8.82681 3.43096 8.7643C3.49348 8.70179 3.57826 8.66667 3.66667 8.66667H5C5.08841 8.66667 5.17319 8.70179 5.2357 8.7643C5.29821 8.82681 5.33333 8.91159 5.33333 9V10.3333ZM13 1.33333H12V0.333333C12 0.244928 11.9649 0.160143 11.9024 0.0976311C11.8399 0.035119 11.7551 0 11.6667 0C11.5783 0 11.4935 0.035119 11.431 0.0976311C11.3685 0.160143 11.3333 0.244928 11.3333 0.333333V1.33333H4.66667V0.333333C4.66667 0.244928 4.63155 0.160143 4.56904 0.0976311C4.50652 0.035119 4.42174 0 4.33333 0C4.24493 0 4.16014 0.035119 4.09763 0.0976311C4.03512 0.160143 4 0.244928 4 0.333333V1.33333H3C2.20462 1.33422 1.44207 1.65057 0.879654 2.21299C0.317236 2.77541 0.000882284 3.53795 0 4.33333L0 13C0 14.654 1.346 16 3 16H13C14.654 16 16 14.654 16 13V4.33333C16 2.67933 14.654 1.33333 13 1.33333ZM3 2H13C14.2867 2 15.3333 3.04667 15.3333 4.33333V5.33333H0.666667V4.33333C0.666667 3.04667 1.71333 2 3 2ZM13 15.3333H3C1.71333 15.3333 0.666667 14.2867 0.666667 13V6H15.3333V13C15.3333 14.2867 14.2867 15.3333 13 15.3333Z" fill="#A855F7"/>
</g>
<defs>
<clipPath id="clip0_395_8864">
<rect width="16" height="16" fill="white"/>
</clipPath>
</defs>
</svg>
