<svg width="38" height="38" viewBox="0 0 38 38" fill="none" xmlns="http://www.w3.org/2000/svg">
<path d="M35.3317 16.5669C35.1964 12.4365 33.4898 8.51349 30.5604 5.59859C27.4711 2.50871 23.3653 0.807617 19.0001 0.807617C10.1835 0.807617 2.97949 7.82515 2.66896 16.5669C1.98914 16.8681 1.41124 17.3599 1.0053 17.9828C0.599355 18.6058 0.382786 19.3331 0.381836 20.0766V24.3884C0.382936 25.4066 0.787899 26.3828 1.50787 27.1027C2.22784 27.8227 3.20402 28.2277 4.22221 28.2288C4.88099 28.228 5.51256 27.9659 5.97839 27.5001C6.44422 27.0343 6.70627 26.4027 6.70705 25.7439V18.7205C6.70705 17.4338 5.72024 16.3846 4.46565 16.26C4.92877 8.64393 11.2688 2.58887 19.0001 2.58887C22.8903 2.58887 26.5484 4.1053 29.3016 6.85852C31.8298 9.38671 33.3094 12.682 33.5321 16.2606C32.2787 16.3864 31.2936 17.435 31.2936 18.7205V25.7433C31.2936 27.0407 32.2959 28.0964 33.5653 28.2062V29.9809C33.5642 30.9419 33.182 31.8632 32.5024 32.5427C31.8228 33.2221 30.9015 33.6042 29.9405 33.6052H27.2561C27.0752 33.0776 26.7335 32.6199 26.2791 32.2963C25.8247 31.9728 25.2804 31.7997 24.7226 31.8014H21.9557C21.5585 31.8014 21.1773 31.8857 20.8282 32.0484C20.3607 32.2643 19.9648 32.6095 19.687 33.0432C19.4093 33.4768 19.2614 33.9808 19.2607 34.4958C19.2607 35.2166 19.5416 35.8935 20.0504 36.4C20.2998 36.6514 20.5967 36.8508 20.9237 36.9865C21.2508 37.1223 21.6016 37.1917 21.9557 37.1908H24.7226C25.8697 37.1908 26.8809 36.4492 27.2579 35.3864H29.9405C32.9217 35.3864 35.3466 32.9616 35.3466 29.9809V27.8891C36.0224 27.5863 36.5963 27.0947 36.9993 26.4735C37.4023 25.8522 37.6172 25.1277 37.6183 24.3872V20.0754C37.6183 18.5115 36.6766 17.1648 35.3317 16.5669ZM4.92521 18.7205V25.7433C4.92521 26.1311 4.60993 26.4469 4.22162 26.4469C3.6757 26.4463 3.15231 26.2292 2.76629 25.8431C2.38027 25.4571 2.16312 24.9337 2.16249 24.3878V20.076C2.16312 19.5301 2.38027 19.0067 2.76629 18.6207C3.15231 18.2346 3.6757 18.0175 4.22162 18.0169C4.60993 18.0169 4.92521 18.3327 4.92521 18.7205ZM25.6162 34.687C25.572 34.8915 25.4592 35.0747 25.2966 35.2063C25.1339 35.338 24.9312 35.4101 24.722 35.4108H21.9551C21.7117 35.4108 21.4831 35.3158 21.3086 35.1412C21.2236 35.0569 21.1562 34.9565 21.1104 34.8459C21.0645 34.7353 21.041 34.6167 21.0414 34.497C21.042 34.2549 21.1385 34.0229 21.3097 33.8518C21.481 33.6806 21.713 33.5843 21.9551 33.5838H24.722C24.9655 33.5838 25.1941 33.6782 25.368 33.8528C25.5402 34.0244 25.6352 34.2536 25.6352 34.497C25.6358 34.5623 25.6287 34.6276 25.6162 34.687ZM35.837 24.3878C35.8364 24.9337 35.6192 25.4571 35.2332 25.8431C34.8472 26.2292 34.3238 26.4463 33.7779 26.4469C33.5913 26.4468 33.4125 26.3726 33.2806 26.2407C33.1486 26.1088 33.0745 25.9299 33.0743 25.7433V18.7205C33.0743 18.3327 33.3896 18.0169 33.7779 18.0169C34.3238 18.0175 34.8472 18.2346 35.2332 18.6207C35.6192 19.0067 35.8364 19.5301 35.837 20.076V24.3878Z" fill="#A855F7"/>
<path d="M24.767 24.6944C25.7676 24.6933 26.7269 24.2954 27.4344 23.5879C28.1419 22.8804 28.5398 21.9211 28.5409 20.9206V13.2309C28.5409 12.2251 28.1479 11.2775 27.4342 10.5638C26.7205 9.85009 25.7735 9.45703 24.767 9.45703H13.2329C12.2323 9.45813 11.273 9.85609 10.5655 10.5636C9.85804 11.2711 9.46008 12.2304 9.45898 13.2309V20.9206C9.46008 21.9211 9.85804 22.8804 10.5655 23.5879C11.273 24.2954 12.2323 24.6933 13.2329 24.6944H13.3035V26.6871C13.3023 26.9304 13.3493 27.1715 13.4416 27.3966C13.534 27.6217 13.6699 27.8264 13.8417 27.9988C14.0134 28.1711 14.2175 28.3079 14.4422 28.4011C14.667 28.4943 14.9079 28.5422 15.1513 28.5419C15.3944 28.5424 15.6352 28.4939 15.8592 28.3994C16.0832 28.3048 16.2859 28.1661 16.4551 27.9915L19.77 24.6944H24.767ZM18.7755 23.1721L15.1881 26.7399C15.172 26.7565 15.1602 26.769 15.1263 26.7542C15.0854 26.7375 15.0854 26.7108 15.0854 26.6871V23.8038C15.0854 23.5676 14.9915 23.3411 14.8245 23.174C14.6575 23.007 14.4309 22.9132 14.1947 22.9132H13.2335C12.7052 22.9126 12.1987 22.7024 11.8251 22.3289C11.4516 21.9553 11.2415 21.4488 11.2408 20.9206V13.2309C11.2415 12.7026 11.4516 12.1962 11.8251 11.8226C12.1987 11.449 12.7052 11.2389 13.2335 11.2383H24.7676C25.2985 11.2383 25.7978 11.4461 26.1754 11.8231C26.553 12.2007 26.7603 12.7007 26.7603 13.2309V20.9206C26.7596 21.4488 26.5495 21.9553 26.1759 22.3289C25.8024 22.7024 25.2959 22.9126 24.7676 22.9132H19.4037C19.168 22.9132 18.9424 23.0064 18.7755 23.1721Z" fill="#A855F7"/>
<path d="M14.6733 15.9043C13.949 15.9043 13.3594 16.4945 13.3594 17.2183C13.3594 17.942 13.9496 18.5322 14.6733 18.5322C15.3983 18.5322 15.9885 17.942 15.9885 17.2183C15.9885 16.4945 15.3989 15.9043 14.6733 15.9043ZM18.9994 15.9043C18.275 15.9043 17.6854 16.4945 17.6854 17.2183C17.6854 17.942 18.2756 18.5322 18.9994 18.5322C19.725 18.5322 20.3146 17.942 20.3146 17.2183C20.3146 16.4945 19.725 15.9043 18.9994 15.9043ZM23.3255 15.9043C22.6011 15.9043 22.0115 16.4945 22.0115 17.2183C22.0115 17.942 22.6017 18.5322 23.3255 18.5322C24.0504 18.5322 24.6406 17.942 24.6406 17.2183C24.6406 16.4945 24.0504 15.9043 23.3255 15.9043Z" fill="#A855F7"/>
</svg>
