<svg width="19" height="18" viewBox="0 0 19 18" fill="none" xmlns="http://www.w3.org/2000/svg">
<path d="M17.7039 13.6C17.1576 13.1419 13.9539 11.1131 13.4214 11.2063C13.1714 11.2506 12.9801 11.4638 12.4683 12.0744C12.2315 12.3749 11.9716 12.6564 11.6908 12.9163C11.1762 12.792 10.6782 12.6074 10.207 12.3663C8.35905 11.4666 6.86615 9.97322 5.967 8.125C5.7259 7.65379 5.54129 7.15576 5.417 6.64125C5.67683 6.36044 5.95832 6.10047 6.25888 5.86375C6.86888 5.35188 7.08263 5.16187 7.127 4.91062C7.22013 4.37687 5.1895 1.17437 4.73325 0.628125C4.542 0.401875 4.36825 0.25 4.14575 0.25C3.50075 0.25 0.583252 3.8575 0.583252 4.325C0.583252 4.36313 0.645752 8.11875 5.38888 12.9444C10.2145 17.6875 13.9701 17.75 14.0083 17.75C14.4758 17.75 18.0833 14.8325 18.0833 14.1875C18.0833 13.965 17.9314 13.7913 17.7039 13.6ZM13.7083 8.375H14.9583C14.9568 7.04937 14.4295 5.77847 13.4921 4.84111C12.5548 3.90375 11.2839 3.37649 9.95825 3.375V4.625C10.9525 4.62599 11.9058 5.0214 12.6088 5.72445C13.3119 6.42749 13.7073 7.38074 13.7083 8.375Z" fill="white"/>
<path d="M16.8333 8.375H18.0833C18.0808 6.22088 17.2239 4.15569 15.7008 2.6325C14.1776 1.1093 12.1124 0.252481 9.95825 0.25V1.5C11.781 1.50215 13.5284 2.22717 14.8172 3.51602C16.1061 4.80486 16.8311 6.5523 16.8333 8.375Z" fill="white"/>
</svg>
