<svg width="68" height="44" viewBox="0 0 68 44" fill="none" xmlns="http://www.w3.org/2000/svg">
<path d="M54.126 28.1618C53.2144 28.162 52.3231 27.8919 51.565 27.3855C50.8069 26.8791 50.216 26.1593 49.867 25.3171C49.5181 24.4749 49.4267 23.5481 49.6045 22.6539C49.7823 21.7598 50.2213 20.9384 50.866 20.2938C51.5106 19.6492 52.3319 19.2102 53.2261 19.0324C54.1202 18.8546 55.047 18.9459 55.8893 19.2949C56.7315 19.6438 57.4513 20.2347 57.9577 20.9928C58.464 21.7509 58.7342 22.6422 58.734 23.5539C58.7327 24.7756 58.2468 25.9469 57.3829 26.8107C56.519 27.6746 55.3477 28.1605 54.126 28.1618ZM54.126 20.9448C53.61 20.9447 53.1054 21.0975 52.6763 21.3841C52.2471 21.6706 51.9125 22.078 51.7149 22.5547C51.5173 23.0314 51.4655 23.5561 51.566 24.0622C51.6666 24.5684 51.915 25.0334 52.2798 25.3983C52.6447 25.7633 53.1095 26.0119 53.6157 26.1126C54.1218 26.2134 54.6464 26.1618 55.1232 25.9643C55.6 25.7669 56.0075 25.4325 56.2942 25.0034C56.581 24.5744 56.734 24.0699 56.734 23.5539C56.7335 22.8622 56.4586 22.1991 55.9696 21.7099C55.4807 21.2208 54.8176 20.9456 54.126 20.9448ZM13.907 28.1618C12.9954 28.1618 12.1042 27.8915 11.3463 27.385C10.5883 26.8785 9.99756 26.1586 9.64875 25.3164C9.29993 24.4742 9.20872 23.5474 9.38664 22.6533C9.56456 21.7592 10.0036 20.938 10.6483 20.2934C11.293 19.6489 12.1143 19.21 13.0084 19.0323C13.9026 18.8546 14.8293 18.946 15.6715 19.295C16.5137 19.644 17.2334 20.2349 17.7397 20.993C18.2461 21.751 18.5162 22.6422 18.516 23.5539C18.5147 24.7757 18.0286 25.9472 17.1645 26.8111C16.3004 27.675 15.1289 28.1608 13.907 28.1618ZM13.907 20.9448C13.391 20.9448 12.8866 21.0979 12.4575 21.3845C12.0285 21.6712 11.6941 22.0787 11.4966 22.5554C11.2991 23.0322 11.2475 23.5567 11.3481 24.0628C11.4488 24.5689 11.6973 25.0338 12.0622 25.3987C12.427 25.7636 12.8919 26.0121 13.398 26.1127C13.9041 26.2134 14.4287 26.1617 14.9054 25.9643C15.3822 25.7668 15.7896 25.4324 16.0763 25.0033C16.363 24.5743 16.516 24.0699 16.516 23.5539C16.5152 22.8621 16.2401 22.199 15.751 21.7099C15.2619 21.2208 14.5987 20.9456 13.907 20.9448ZM47.332 30.2908H20.994C20.8159 30.2907 20.641 30.243 20.4875 30.1526C20.334 30.0622 20.2074 29.9325 20.1209 29.7768C20.0343 29.6211 19.9909 29.4451 19.9952 29.267C19.9994 29.089 20.0511 28.9152 20.145 28.7638L23.078 24.0319C23.1678 23.8874 23.293 23.7682 23.4418 23.6856C23.5905 23.603 23.7579 23.5597 23.928 23.5599H44.4C44.5701 23.5597 44.7375 23.603 44.8862 23.6856C45.035 23.7682 45.1602 23.8874 45.25 24.0319L48.184 28.7638C48.2779 28.9153 48.3297 29.0891 48.3339 29.2673C48.3381 29.4454 48.2946 29.6215 48.2079 29.7772C48.1212 29.9329 47.9945 30.0627 47.8409 30.153C47.6872 30.2433 47.5122 30.2909 47.334 30.2908H47.332ZM22.791 28.2908H45.535L43.842 25.5599H24.484L22.791 28.2908ZM49.939 33.9219H17.865C17.5998 33.9219 17.3454 33.8165 17.1579 33.629C16.9704 33.4414 16.865 33.1871 16.865 32.9219C16.865 32.6566 16.9704 32.4023 17.1579 32.2147C17.3454 32.0272 17.5998 31.9219 17.865 31.9219H49.939C50.2042 31.9219 50.4586 32.0272 50.6461 32.2147C50.8337 32.4023 50.939 32.6566 50.939 32.9219C50.939 33.1871 50.8337 33.4414 50.6461 33.629C50.4586 33.8165 50.2042 33.9219 49.939 33.9219Z" fill="#A855F7"/>
<path d="M60.077 38.2831H7.956C6.92206 38.2818 5.93085 37.8705 5.19975 37.1394C4.46864 36.4082 4.05732 35.417 4.056 34.3831V25.4181C4.06023 22.6824 5.14908 20.06 7.08381 18.1258C9.01854 16.1916 11.6413 15.1035 14.377 15.1001H53.655C56.391 15.1033 59.0141 16.1912 60.9492 18.1254C62.8843 20.0595 63.9735 22.6821 63.978 25.4181V34.3821C63.9769 35.4164 63.5656 36.408 62.8343 37.1394C62.1029 37.8707 61.1113 38.282 60.077 38.2831ZM14.377 17.1001C12.1706 17.1025 10.0553 17.98 8.49509 19.5402C6.93493 21.1003 6.05738 23.2157 6.055 25.4221V34.3861C6.055 34.89 6.25518 35.3733 6.6115 35.7296C6.96782 36.0859 7.45109 36.2861 7.955 36.2861H60.077C60.5809 36.2861 61.0642 36.0859 61.4205 35.7296C61.7768 35.3733 61.977 34.89 61.977 34.3861V25.4181C61.9733 23.2125 61.0952 21.0983 59.5352 19.5391C57.9752 17.9798 55.8606 17.1027 53.655 17.1001H14.377Z" fill="#A855F7"/>
<path d="M57.432 43.1071H52.021C51.4274 43.1063 50.8584 42.8701 50.4387 42.4504C50.0189 42.0307 49.7828 41.4617 49.782 40.8681V37.2831C49.782 37.0179 49.8874 36.7635 50.0749 36.576C50.2624 36.3884 50.5168 36.2831 50.782 36.2831H58.671C58.9362 36.2831 59.1906 36.3884 59.3781 36.576C59.5657 36.7635 59.671 37.0179 59.671 37.2831V40.8681C59.6702 41.4617 59.4341 42.0307 59.0143 42.4504C58.5946 42.8701 58.0256 43.1063 57.432 43.1071ZM51.782 38.2831V40.8681C51.7823 40.9314 51.8075 40.992 51.8523 41.0368C51.8971 41.0816 51.9577 41.1068 52.021 41.1071H57.432C57.4953 41.1068 57.556 41.0816 57.6007 41.0368C57.6455 40.992 57.6707 40.9314 57.671 40.8681V38.2831H51.782ZM16.012 43.1071H10.6C10.0064 43.1066 9.43716 42.8705 9.01738 42.4507C8.5976 42.0309 8.36154 41.4617 8.36101 40.8681V37.2831C8.36101 37.0179 8.46636 36.7635 8.6539 36.576C8.84144 36.3884 9.09579 36.2831 9.36101 36.2831H17.25C17.5152 36.2831 17.7696 36.3884 17.9571 36.576C18.1447 36.7635 18.25 37.0179 18.25 37.2831V40.8681C18.2495 41.4616 18.0136 42.0306 17.594 42.4504C17.1744 42.8701 16.6055 43.1063 16.012 43.1071ZM10.362 38.2831V40.8681C10.362 40.9315 10.3872 40.9923 10.432 41.0371C10.4768 41.0819 10.5376 41.1071 10.601 41.1071H16.012C16.0433 41.1071 16.0744 41.1009 16.1033 41.0889C16.1323 41.0768 16.1585 41.0592 16.1807 41.037C16.2028 41.0148 16.2203 40.9885 16.2322 40.9595C16.2441 40.9305 16.2501 40.8994 16.25 40.8681V38.2831H10.362ZM57.64 17.9891C57.445 17.9896 57.2541 17.933 57.0908 17.8264C56.9276 17.7198 56.799 17.5678 56.721 17.3891L51.483 5.30008C50.9909 4.5573 50.3222 3.94821 49.5369 3.52743C48.7515 3.10665 47.874 2.88731 46.983 2.88908H21.053C20.1621 2.88776 19.2848 3.10728 18.4995 3.52803C17.7142 3.94877 17.0454 4.55761 16.553 5.30008L11.312 17.3851C11.261 17.5073 11.1862 17.6183 11.092 17.7114C10.9978 17.8045 10.886 17.878 10.7632 17.9275C10.6403 17.9771 10.5088 18.0018 10.3764 18.0001C10.2439 17.9984 10.1131 17.9704 9.99153 17.9177C9.86997 17.8651 9.76009 17.7888 9.66827 17.6933C9.57644 17.5978 9.50451 17.485 9.45664 17.3615C9.40877 17.238 9.38592 17.1062 9.38941 16.9737C9.39291 16.8413 9.42268 16.7109 9.47701 16.5901L14.747 4.43008C14.7694 4.37958 14.7955 4.33079 14.825 4.28409C15.4952 3.2417 16.417 2.38474 17.5054 1.79214C18.5937 1.19954 19.8138 0.890364 21.053 0.893084H46.98C48.2192 0.890364 49.4392 1.19966 50.5275 1.79245C51.6157 2.38525 52.5372 3.24247 53.207 4.28508C53.2371 4.3311 53.2632 4.37961 53.285 4.43008L58.557 16.5921C58.6234 16.7443 58.6509 16.9107 58.6369 17.0762C58.623 17.2417 58.568 17.4011 58.477 17.54C58.386 17.6789 58.2618 17.793 58.1157 17.872C57.9696 17.9509 57.8061 17.9922 57.64 17.9921V17.9891Z" fill="#A855F7"/>
<path d="M59.522 16.8608H56.91C56.6448 16.8608 56.3904 16.7555 56.2029 16.5679C56.0154 16.3804 55.91 16.1261 55.91 15.8608C55.91 15.5956 56.0154 15.3413 56.2029 15.1537C56.3904 14.9662 56.6448 14.8608 56.91 14.8608H59.522C59.7872 14.8608 60.0416 14.9662 60.2291 15.1537C60.4166 15.3413 60.522 15.5956 60.522 15.8608C60.522 16.1261 60.4166 16.3804 60.2291 16.5679C60.0416 16.7555 59.7872 16.8608 59.522 16.8608Z" fill="#A855F7"/>
<path d="M65.67 16.8599H59.522C59.2568 16.8599 59.0024 16.7546 58.8149 16.567C58.6274 16.3795 58.522 16.1252 58.522 15.8599V11.4399C58.522 11.1747 58.6274 10.9204 58.8149 10.7328C59.0024 10.5453 59.2568 10.4399 59.522 10.4399H64.4C65.118 10.4407 65.8063 10.7263 66.314 11.234C66.8217 11.7416 67.1072 12.43 67.108 13.1479V15.4239C67.1075 15.805 66.9557 16.1702 66.6861 16.4395C66.4165 16.7087 66.0511 16.8599 65.67 16.8599ZM60.522 14.8599H65.107V13.1479C65.1068 12.9602 65.0321 12.7803 64.8994 12.6476C64.7666 12.5149 64.5867 12.4402 64.399 12.4399H60.522V14.8599ZM11.09 16.8609H8.47801C8.2128 16.8609 7.95844 16.7556 7.77091 16.568C7.58337 16.3805 7.47801 16.1262 7.47801 15.8609C7.47801 15.5957 7.58337 15.3414 7.77091 15.1538C7.95844 14.9663 8.2128 14.8609 8.47801 14.8609H11.09C11.3552 14.8609 11.6096 14.9663 11.7971 15.1538C11.9847 15.3414 12.09 15.5957 12.09 15.8609C12.09 16.1262 11.9847 16.3805 11.7971 16.568C11.6096 16.7556 11.3552 16.8609 11.09 16.8609Z" fill="#A855F7"/>
<path d="M8.478 16.8599H2.33001C1.94914 16.8597 1.58394 16.7083 1.31454 16.4391C1.04513 16.1699 0.893535 15.8048 0.893005 15.4239V13.1479C0.893799 12.4302 1.17922 11.742 1.68668 11.2343C2.19414 10.7267 2.88222 10.441 3.60001 10.4399H8.47701C8.74222 10.4399 8.99658 10.5453 9.18411 10.7328C9.37165 10.9204 9.47701 11.1747 9.47701 11.4399V15.8599C9.47701 16.125 9.37179 16.3792 9.18447 16.5667C8.99715 16.7542 8.74305 16.8597 8.478 16.8599ZM2.893 14.8599H7.478V12.4399H3.60001C3.41231 12.4402 3.23238 12.5149 3.09967 12.6476C2.96695 12.7803 2.89227 12.9602 2.89201 13.1479L2.893 14.8599Z" fill="#A855F7"/>
</svg>
