<svg width="16" height="16" viewBox="0 0 16 16" fill="none" xmlns="http://www.w3.org/2000/svg">
<g clip-path="url(#clip0_157_1918)">
<path d="M14.9602 8.53296L5.26514 13.8687C5.00987 14.0091 4.70928 14.0424 4.42948 13.9612C4.14968 13.88 3.91359 13.691 3.77314 13.4358L0.818548 8.06778C0.678201 7.81254 0.644967 7.512 0.726154 7.23226C0.807341 6.95252 0.996302 6.71647 1.25149 6.57602L10.9463 1.23955C11.2016 1.09912 11.5022 1.06585 11.782 1.14704C12.0618 1.22823 12.2979 1.41724 12.4383 1.67249L15.3929 7.04072C15.5332 7.29597 15.5665 7.5965 15.4853 7.87624C15.4041 8.15599 15.2151 8.39203 14.96 8.53249L14.9602 8.53296Z" fill="#FEBC1F"/>
<path d="M14.7485 8.14819L5.05322 13.484C4.79796 13.6244 4.49736 13.6577 4.21756 13.5765C3.93777 13.4953 3.70167 13.3063 3.56122 13.051L0.606634 7.68302C0.466286 7.42777 0.433053 7.12724 0.51424 6.84749C0.595427 6.56775 0.784388 6.3317 1.03958 6.19125L10.7346 0.85478C10.9899 0.714358 11.2905 0.681083 11.5703 0.762274C11.8501 0.843464 12.0862 1.03247 12.2266 1.28772L15.1812 6.65596C15.3216 6.9112 15.3548 7.21174 15.2736 7.49148C15.1924 7.77122 15.0035 8.00727 14.7483 8.14772L14.7485 8.14819Z" fill="#FFD475"/>
<path d="M10.7347 0.854972L1.03967 6.19074C0.784425 6.33119 0.595417 6.56728 0.514227 6.84708C0.433036 7.12688 0.466311 7.42747 0.606733 7.68274L3.56132 13.0512C3.56132 13.0512 0.80838 7.78627 11.715 0.816854C11.5599 0.746589 11.3905 0.713449 11.2203 0.720066C11.0502 0.726682 10.8839 0.772873 10.7347 0.854972Z" fill="#FEBC1F"/>
<path d="M1.47509 8.34123L1.84615 9.01535C1.89108 9.09691 1.96655 9.1573 2.05599 9.18325C2.14542 9.20919 2.24149 9.19856 2.32309 9.1537L12.5509 3.52476C12.6324 3.47983 12.6928 3.40436 12.7188 3.31493C12.7447 3.22549 12.7341 3.12942 12.6892 3.04782L12.3182 2.3737C12.2732 2.29214 12.1978 2.23175 12.1083 2.2058C12.0189 2.17986 11.9228 2.19049 11.8412 2.23535L1.61345 7.86429C1.53188 7.90922 1.47149 7.98469 1.44555 8.07412C1.41961 8.16356 1.43023 8.25963 1.47509 8.34123Z" fill="#1D2943"/>
<path d="M1.3723 8.15422L1.74336 8.82834C1.78829 8.9099 1.86376 8.97029 1.95319 8.99623C2.04263 9.02218 2.1387 9.01155 2.2203 8.96669L12.4481 3.33775C12.5296 3.29282 12.59 3.21735 12.616 3.12792C12.6419 3.03848 12.6313 2.94241 12.5864 2.86081L12.2154 2.18669C12.1704 2.10512 12.095 2.04474 12.0055 2.01879C11.9161 1.99285 11.82 2.00348 11.7384 2.04834L1.51042 7.67751C1.42886 7.72244 1.36847 7.79791 1.34252 7.88735C1.31658 7.97678 1.32721 8.07285 1.37207 8.15445L1.3723 8.15422Z" fill="#4C5C75"/>
<path d="M13.2072 15.281H2.14107C1.84975 15.281 1.57035 15.1653 1.36433 14.9593C1.15831 14.7534 1.04254 14.474 1.04248 14.1827V8.0549C1.04254 7.76357 1.15831 7.4842 1.36433 7.27823C1.57035 7.07225 1.84975 6.95654 2.14107 6.95654H13.207C13.4983 6.95654 13.7777 7.07225 13.9837 7.27823C14.1897 7.4842 14.3055 7.76357 14.3055 8.0549V14.1827C14.3055 14.474 14.1897 14.7534 13.9837 14.9593C13.7777 15.1653 13.4985 15.281 13.2072 15.281Z" fill="#5094FF"/>
<path d="M2.14083 14.842H13.207C13.3512 14.8421 13.4941 14.8137 13.6274 14.7585C13.7607 14.7033 13.8819 14.6224 13.9839 14.5204C14.086 14.4183 14.1669 14.2972 14.2221 14.1639C14.2774 14.0306 14.3058 13.8877 14.3058 13.7435V7.61592C14.3058 7.32456 14.19 7.04513 13.984 6.8391C13.778 6.63308 13.4986 6.51733 13.2072 6.51733H2.14107C1.9968 6.51733 1.85394 6.54575 1.72066 6.60096C1.58737 6.65617 1.46626 6.73709 1.36425 6.8391C1.26224 6.94112 1.18131 7.06222 1.12611 7.19551C1.0709 7.3288 1.04248 7.47165 1.04248 7.61592V13.7435C1.04245 13.8877 1.07084 14.0306 1.12604 14.1639C1.18123 14.2972 1.26215 14.4184 1.36417 14.5204C1.46618 14.6225 1.5873 14.7034 1.7206 14.7586C1.85391 14.8139 1.99678 14.8423 2.14107 14.8423L2.14083 14.842Z" fill="#57B3FE"/>
<path d="M2.14108 6.51757H13.2072C13.4985 6.51757 13.7779 6.63328 13.9839 6.83926C14.19 7.04523 14.3057 7.3246 14.3058 7.61592V13.7435C14.3058 13.7435 14.1794 7.80369 1.26367 6.95663C1.36568 6.82027 1.49807 6.70956 1.65034 6.63331C1.80261 6.55705 1.97055 6.51734 2.14085 6.51733L2.14108 6.51757Z" fill="#5094FF"/>
<path d="M13.4449 12.8706V13.041H13.4426C13.447 13.2716 13.2548 13.4652 13.0228 13.4652H11.9082C11.6807 13.4652 11.484 13.2751 11.4887 13.041H11.4863V12.8706H11.5136C11.5795 12.705 11.7586 12.5916 11.9468 12.5916H12.9844C13.1727 12.5916 13.3517 12.705 13.4176 12.8706H13.4449Z" fill="#E3E7F0"/>
<path d="M13.0219 13.296H11.9445C11.7275 13.296 11.5224 13.1487 11.4918 12.9336C11.483 12.8733 11.4872 12.8118 11.5043 12.7533C11.5213 12.6948 11.5508 12.6407 11.5906 12.5946C11.6305 12.5484 11.6798 12.5114 11.7352 12.4861C11.7906 12.4607 11.8508 12.4475 11.9118 12.4475H12.9849C13.2151 12.4475 13.4297 12.6146 13.4435 12.8442C13.4475 12.902 13.4395 12.96 13.4201 13.0146C13.4008 13.0693 13.3703 13.1193 13.3308 13.1617C13.2913 13.204 13.2434 13.2378 13.1903 13.2609C13.1372 13.284 13.0798 13.296 13.0219 13.296Z" fill="white"/>
<path d="M10.2506 12.8706V13.041H10.2482C10.2529 13.2716 10.0605 13.4652 9.8287 13.4652H8.71411C8.48634 13.4652 8.28987 13.2751 8.29434 13.041H8.29199V12.8706H8.31929C8.38517 12.705 8.56446 12.5916 8.7527 12.5916H9.79011C9.97835 12.5916 10.1576 12.705 10.2235 12.8706H10.2506Z" fill="#E3E7F0"/>
<path d="M9.82755 13.296H8.7499C8.53296 13.296 8.32779 13.1487 8.29743 12.9336C8.28862 12.8733 8.29289 12.8119 8.30993 12.7534C8.32698 12.6949 8.35641 12.6408 8.39623 12.5946C8.43604 12.5485 8.48532 12.5115 8.5407 12.4861C8.59608 12.4608 8.65627 12.4476 8.7172 12.4475H9.79037C10.0207 12.4475 10.2351 12.6146 10.2492 12.8442C10.2532 12.902 10.2452 12.96 10.2258 13.0146C10.2064 13.0693 10.176 13.1193 10.1365 13.1617C10.0969 13.204 10.0491 13.2378 9.99597 13.2609C9.94282 13.284 9.8855 13.296 9.82755 13.296Z" fill="white"/>
<path d="M7.05599 12.8706V13.041H7.05364C7.05811 13.2716 6.86587 13.4652 6.63387 13.4652H5.51929C5.29152 13.4652 5.09505 13.2751 5.09952 13.041H5.09717V12.8706H5.1247C5.19058 12.705 5.36964 12.5916 5.55787 12.5916H6.59552C6.78376 12.5916 6.96281 12.705 7.0287 12.8706H7.05599Z" fill="#E3E7F0"/>
<path d="M6.63273 13.296H5.55531C5.33837 13.296 5.1332 13.1487 5.10261 12.9336C5.0938 12.8733 5.09806 12.8118 5.11512 12.7533C5.13218 12.6948 5.16164 12.6407 5.20148 12.5946C5.24132 12.5484 5.29062 12.5114 5.34603 12.4861C5.40144 12.4607 5.46167 12.4475 5.52261 12.4475H6.59555C6.82614 12.4475 7.04026 12.6146 7.05437 12.8442C7.05834 12.902 7.05038 12.96 7.03099 13.0146C7.0116 13.0693 6.98119 13.1193 6.94165 13.1617C6.90211 13.204 6.85428 13.2378 6.80114 13.2609C6.748 13.284 6.69067 13.296 6.63273 13.296Z" fill="white"/>
<path d="M3.86142 12.8706V13.041H3.85907C3.86377 13.2716 3.6713 13.4652 3.43954 13.4652H2.32495C2.09718 13.4652 1.90071 13.2751 1.90518 13.041H1.90283V12.8706H1.93013C1.99601 12.705 2.17507 12.5916 2.36354 12.5916H3.40095C3.58918 12.5916 3.76848 12.705 3.83413 12.8706H3.86142Z" fill="#E3E7F0"/>
<path d="M3.43839 13.296H2.36074C2.1438 13.296 1.93863 13.1487 1.90827 12.9336C1.89946 12.8733 1.90373 12.8119 1.92077 12.7534C1.93782 12.6949 1.96725 12.6408 2.00707 12.5946C2.04688 12.5485 2.09616 12.5115 2.15154 12.4861C2.20692 12.4608 2.26711 12.4476 2.32804 12.4475H3.40121C3.63157 12.4475 3.84592 12.6146 3.86004 12.8442C3.864 12.902 3.85604 12.96 3.83665 13.0146C3.81726 13.0693 3.78685 13.1193 3.74731 13.1617C3.70777 13.204 3.65995 13.2378 3.60681 13.2609C3.55366 13.284 3.49634 13.296 3.43839 13.296Z" fill="white"/>
<path d="M1.90381 8.45311V9.47805C1.90381 9.7364 2.11322 9.94581 2.37157 9.94581H4.2911C4.54946 9.94581 4.75887 9.7364 4.75887 9.47805V8.45311C4.75887 8.19475 4.54946 7.98511 4.2911 7.98511H2.37157C2.11322 7.98511 1.90381 8.19452 1.90381 8.45311Z" fill="#FEBC1F"/>
<path d="M1.90381 8.29344V9.31838C1.90381 9.57673 2.11322 9.78638 2.37157 9.78638H4.2911C4.54946 9.78638 4.75887 9.57697 4.75887 9.31838V8.29344C4.75887 8.03509 4.54946 7.82544 4.2911 7.82544H2.37157C2.11322 7.82544 1.90381 8.03485 1.90381 8.29344Z" fill="#FFD475"/>
<path d="M3.28194 8.69532V7.82544H3.05959V8.69532H1.9043V8.91744H2.5363V9.78638H2.75841V8.91744H3.75912V9.78638H3.98124V8.91744H4.75912V8.69532H3.28194Z" fill="#FEBC1F"/>
<path d="M13.2421 9.46243H11.9909C11.8866 9.46243 11.7883 9.39184 11.7734 9.28855C11.7692 9.25958 11.7712 9.23004 11.7794 9.20192C11.7876 9.17381 11.8017 9.14778 11.8208 9.12562C11.84 9.10345 11.8636 9.08566 11.8903 9.07346C11.9169 9.06126 11.9458 9.05493 11.9751 9.0549H13.2245C13.3349 9.0549 13.4377 9.13514 13.4445 9.24549C13.4464 9.27324 13.4426 9.30109 13.4333 9.3273C13.424 9.35352 13.4094 9.37754 13.3904 9.39788C13.3714 9.41822 13.3485 9.43445 13.323 9.44555C13.2975 9.45665 13.27 9.4624 13.2421 9.46243ZM13.2421 8.5902H11.0454C10.9412 8.5902 10.8429 8.51961 10.828 8.41608C10.8238 8.38713 10.8259 8.35761 10.8341 8.32952C10.8423 8.30144 10.8564 8.27544 10.8755 8.2533C10.8947 8.23117 10.9183 8.2134 10.9449 8.20121C10.9715 8.18902 11.0004 8.1827 11.0297 8.18267H13.2243C13.3349 8.18267 13.4377 8.26267 13.4445 8.37326C13.4464 8.40101 13.4426 8.42885 13.4333 8.45507C13.424 8.48128 13.4094 8.5053 13.3904 8.52564C13.3714 8.54598 13.3485 8.56221 13.323 8.57331C13.2975 8.58442 13.27 8.59017 13.2421 8.5902ZM12.908 3.83984C13.4299 4.50804 13.8598 5.24323 14.1861 6.02573C13.6643 5.35753 13.2343 4.62235 12.908 3.83984ZM3.16309 6.02502C3.92259 5.44292 4.74853 4.95306 5.62356 4.56573C4.86404 5.14782 4.0381 5.63768 3.16309 6.02502ZM9.45673 14.2904C10.4069 14.1772 11.3671 14.1772 12.3172 14.2904C11.3643 14.4041 10.4097 14.4034 9.45673 14.2904Z" fill="white"/>
</g>
<defs>
<clipPath id="clip0_157_1918">
<rect width="16" height="16" fill="white"/>
</clipPath>
</defs>
</svg>
