<?xml version="1.0" encoding="UTF-8"?>
<svg version="1.1" xmlns="http://www.w3.org/2000/svg" width="512" height="512">
<path d="M0 0 C1.32396412 -0.00935994 1.32396412 -0.00935994 2.67467499 -0.01890898 C5.63820449 -0.03488939 8.60091723 -0.02221496 11.56445312 -0.00964355 C13.68660971 -0.01506242 15.80876253 -0.02218375 17.9309082 -0.03088379 C23.69944448 -0.04914793 29.46769519 -0.04203675 35.23623657 -0.02936745 C41.26687401 -0.01925584 47.29748663 -0.02862801 53.328125 -0.03491211 C63.45642497 -0.04219387 73.58460835 -0.03258689 83.71289062 -0.0135498 C95.43046156 0.00821986 107.14775411 0.00116887 118.8653183 -0.02085543 C128.9172072 -0.03899431 138.96901219 -0.04157513 149.02091217 -0.03110075 C155.02822942 -0.02485753 161.03541572 -0.024053 167.04272461 -0.0372467 C172.68986066 -0.04878253 178.33663703 -0.04082075 183.98373413 -0.01766968 C186.05902509 -0.01237048 188.1343462 -0.01391694 190.20962524 -0.02272034 C193.03729732 -0.0336115 195.86380863 -0.01999008 198.69140625 0 C199.51747124 -0.00892289 200.34353622 -0.01784577 201.19463348 -0.02703905 C204.672276 0.02082311 206.92727082 0.23083668 209.85920715 2.17244911 C211.73932701 5.12637073 211.8237307 6.89065382 211.78393555 10.38363647 C211.77879189 12.18689392 211.77879189 12.18689392 211.77354431 14.02658081 C211.74966141 15.34284454 211.7257785 16.65910828 211.70117188 18.01525879 C211.69025698 19.41854535 211.6812778 20.8218481 211.67408752 22.22515869 C211.65553763 25.24931298 211.62542146 28.27305736 211.58703613 31.29702377 C211.52833549 36.10049797 211.50883958 40.90363812 211.49707031 45.70742798 C211.45876342 59.36881727 211.38914231 73.02947516 211.23291016 86.69006348 C211.14696035 94.23417103 211.10523062 101.77724876 211.11028957 109.32185757 C211.11103951 113.30428289 211.09023992 117.28377376 211.01400757 121.26552963 C210.66785425 140.00374053 211.91095512 154.52458058 222.96755981 170.47386551 C224.80521622 173.18615241 226.26040556 175.98366615 227.72070312 178.91418457 C228.1615625 179.76754395 228.60242188 180.62090332 229.05664062 181.50012207 C229.48203125 182.3277002 229.90742188 183.15527832 230.34570312 184.00793457 C234.25577101 191.55912387 238.25142061 199.05506093 242.34570312 206.50793457 C246.9576445 214.90310911 251.42779978 223.3627084 255.82592773 231.8717041 C258.37813177 236.79312238 260.97523672 241.68197117 263.66210938 246.53137207 C264.20544922 247.51299316 264.74878906 248.49461426 265.30859375 249.50598145 C266.34089938 251.36261903 267.37951556 253.21576851 268.42578125 255.0645752 C268.89564453 255.90955566 269.36550781 256.75453613 269.84960938 257.62512207 C270.46557983 258.71736084 270.46557983 258.71736084 271.09399414 259.83166504 C274.28457263 266.65341682 275.79216967 272.82695724 275.73338318 280.34590149 C275.74146149 281.60889518 275.74146149 281.60889518 275.74970299 282.8974039 C275.76390741 285.69327052 275.75689776 288.48865865 275.74975586 291.2845459 C275.75546308 293.29906594 275.76242871 295.31358274 275.77055359 297.32809448 C275.78845374 302.78018244 275.78732341 308.2321092 275.7816112 313.68421769 C275.77851713 318.23742538 275.78461371 322.7906022 275.79064995 327.34380549 C275.80468103 338.08010067 275.80314352 348.81631623 275.79174805 359.5526123 C275.78024688 370.63351388 275.79437932 381.71417398 275.82114452 392.79504377 C275.84327246 402.31199913 275.84994609 411.82887853 275.84406811 421.3458578 C275.84069296 427.02894327 275.84315167 432.71187366 275.86031914 438.39493752 C275.8757416 443.73269917 275.8718851 449.07010115 275.85301399 454.40784836 C275.84931616 456.36865735 275.85247115 458.32949274 275.86289978 460.29027748 C275.87602879 462.96223295 275.86463507 465.63298309 275.84690857 468.30488586 C275.85651358 469.08473982 275.86611858 469.86459378 275.87601465 470.66807967 C275.83246865 473.84723406 275.52500958 476.17560433 274.00712681 478.9888792 C269.63443218 481.4846732 265.20714135 481.05691466 260.26171875 481.01586914 C259.11772865 481.0221091 257.97373856 481.02834907 256.79508209 481.03477812 C253.61919297 481.04798641 250.44391376 481.04321429 247.2680397 481.03083324 C243.84329199 481.02179517 240.4186277 481.03574625 236.99389648 481.04675293 C230.28468511 481.06455614 223.57565254 481.06069023 216.8664341 481.04910237 C211.41460322 481.04007537 205.96282253 481.03884085 200.51098633 481.04319763 C199.34787988 481.04411703 199.34787988 481.04411703 198.16127634 481.045055 C196.58614539 481.04633388 195.01101445 481.04763073 193.43588352 481.04894537 C178.65965332 481.06035644 163.88352232 481.04722922 149.10730839 481.0257439 C136.42370278 481.00787242 123.74024359 481.01097638 111.05664062 481.02941895 C96.33393695 481.05081638 81.61132026 481.05925775 66.88860321 481.04696989 C65.31920879 481.04569567 63.74981436 481.04443819 62.18041992 481.04319763 C61.40821185 481.04258053 60.63600377 481.04196343 59.84039545 481.04132763 C54.39398266 481.03787133 48.94762496 481.04370906 43.5012207 481.05311584 C36.86544822 481.06432472 30.22986505 481.06131938 23.5941143 481.03999287 C20.20723932 481.02946726 16.82068015 481.02538586 13.43380737 481.03858948 C9.76544888 481.04946386 6.09798824 481.03587811 2.4296875 481.01586914 C1.35460182 481.02479203 0.27951614 481.03371491 -0.82814789 481.04290819 C-7.97560889 480.96689736 -7.97560889 480.96689736 -11.32470322 478.70207214 C-13.34206227 475.37296233 -13.02896438 472.20119029 -12.81933594 468.4473877 C-12.76196406 466.75114324 -12.70471422 465.05489465 -12.64756775 463.35864258 C-12.59059377 462.00265709 -12.59059377 462.00265709 -12.5324688 460.61927795 C-12.33718672 455.70873475 -12.24010029 450.79616019 -12.13793945 445.88293457 C-12.11575631 444.84238167 -12.09357317 443.80182877 -12.07071781 442.72974396 C-11.36272143 407.11084617 -12.65107149 374.33826177 -24.46679688 340.50793457 C-24.73622227 339.73524734 -25.00564766 338.96256012 -25.28323746 338.16645813 C-27.97047325 330.50505749 -30.76926619 322.88814168 -33.64624691 315.29614639 C-37.00711508 306.41616232 -40.02832337 297.47340908 -42.81835938 288.39855957 C-43.01824778 287.74868954 -43.21813618 287.0988195 -43.4240818 286.42925644 C-44.42407382 283.17033599 -45.41713902 279.90935812 -46.4067688 276.64727783 C-48.1863604 270.79058557 -50.02074948 264.95098775 -51.84975624 259.10958481 C-52.89916422 255.75581803 -53.94472068 252.40085079 -54.99072266 249.04602051 C-59.73326132 233.84094271 -64.48234994 218.63790882 -69.231987 203.43504715 C-70.02533161 200.89562701 -70.81860575 198.35618486 -71.61187744 195.81674194 C-80.06880555 168.74570467 -88.55705988 141.68459444 -97.07182598 114.63169384 C-97.95228967 111.83421309 -98.8324983 109.0366521 -99.71270943 106.23909187 C-100.30316557 104.36297772 -100.89411705 102.48701947 -101.48509216 100.61106873 C-102.19745205 98.34736943 -102.90796445 96.08308767 -103.61636353 93.81814575 C-104.33553077 91.52455392 -105.06174289 89.23316367 -105.79354858 86.943573 C-106.15647003 85.7952298 -106.51939148 84.6468866 -106.89331055 83.46374512 C-107.21974045 82.44016403 -107.54617035 81.41658295 -107.88249207 80.36198425 C-109.0314378 76.11330871 -109.21029166 72.88639351 -108.65429688 68.50793457 C-105.97482061 65.17981547 -103.55833937 63.82185738 -99.52148438 62.56262207 C-97.88808105 62.04321045 -97.88808105 62.04321045 -96.22167969 61.51330566 C-94.3939502 60.95377197 -94.3939502 60.95377197 -92.52929688 60.38293457 C-91.2252819 59.9745617 -89.92158317 59.56517797 -88.61816406 59.15490723 C-85.53652317 58.18806835 -82.45214508 57.23050994 -79.36621094 56.27746582 C-74.46080292 54.76092435 -69.56090874 53.2271465 -64.66198921 51.68978691 C-58.07656247 49.6232237 -51.48890063 47.56385313 -44.90055084 45.50662994 C-42.90171174 44.88212689 -40.90319619 44.25659688 -38.90472412 43.63092041 C-35.1197877 42.44653383 -31.33249084 41.26981413 -27.54492188 40.09387207 C-26.38995209 39.73184692 -25.2349823 39.36982178 -24.04501343 38.99682617 C-22.98311798 38.66839722 -21.92122253 38.33996826 -20.82714844 38.00158691 C-19.89694885 37.7119809 -18.96674927 37.42237488 -18.00836182 37.12399292 C-15.65429688 36.50793457 -15.65429688 36.50793457 -12.65429688 36.50793457 C-12.68571777 35.08529297 -12.68571777 35.08529297 -12.71777344 33.63391113 C-12.78603247 30.10777032 -12.83613616 26.58233358 -12.87402344 23.05578613 C-12.89411287 21.53093372 -12.92139003 20.00615809 -12.95605469 18.48156738 C-13.00469483 16.28703859 -13.02729084 14.09352988 -13.04492188 11.89855957 C-13.07634277 9.91904297 -13.07634277 9.91904297 -13.10839844 7.89953613 C-12.65429688 4.50793457 -12.65429688 4.50793457 -11.16680908 2.32770538 C-7.58935579 -0.26338455 -4.25250806 -0.04593422 0 0 Z M3.34570312 16.50793457 C3.34570312 164.34793457 3.34570312 312.18793457 3.34570312 464.50793457 C54.82570313 464.50793457 106.30570313 464.50793457 159.34570312 464.50793457 C155.7121475 460.87437895 152.12231432 457.54737552 148.21289062 454.25402832 C146.34570312 452.50793457 146.34570312 452.50793457 145.2980957 450.4299469 C142.59073692 447.76471604 140.61084103 448.02396765 136.91348267 447.9801178 C136.03131073 447.9898613 135.14913879 447.9996048 134.24023438 448.00964355 C133.3082724 448.00412476 132.37631042 447.99860596 131.41610718 447.99291992 C129.39122628 447.98358853 127.3662867 447.98350412 125.34140015 447.99151421 C122.13916563 448.00410316 118.93779824 447.99289267 115.7355957 447.97547913 C110.09455293 447.94873152 104.45372141 447.9431853 98.81262207 447.94458008 C89.78262403 447.9468057 80.75288722 447.93280306 71.72299194 447.88899422 C68.56364348 447.87912343 65.40470168 447.88788996 62.24536133 447.89768982 C60.3139621 447.89154771 58.3825651 447.88463669 56.45117188 447.87683105 C55.56899994 447.88455032 54.686828 447.89226959 53.77792358 447.90022278 C52.97037628 447.89346527 52.16282898 447.88670776 51.33081055 447.87974548 C50.62953537 447.88033179 49.92826019 447.8809181 49.20573425 447.88152218 C46.76679742 447.39166125 45.87194058 446.43406517 44.34570312 444.50793457 C43.91333008 442.3314209 43.91333008 442.3314209 43.83398438 439.83996582 C43.79853516 438.94729004 43.76308594 438.05461426 43.7265625 437.1348877 C43.69272461 435.7417334 43.69272461 435.7417334 43.65820312 434.32043457 C43.62404297 433.38006348 43.58988281 432.43969238 43.5546875 431.4708252 C43.47222094 429.14998064 43.40306909 426.82951309 43.34570312 424.50793457 C42.7555542 424.49335205 42.16540527 424.47876953 41.55737305 424.46374512 C38.88199083 424.38924613 36.20785421 424.29259462 33.53320312 424.19543457 C32.60443359 424.17287598 31.67566406 424.15031738 30.71875 424.1270752 C29.82607422 424.09162598 28.93339844 424.05617676 28.01367188 424.01965332 C26.78040161 423.9803772 26.78040161 423.9803772 25.5222168 423.94030762 C22.76859864 423.39329048 22.02737399 422.74632181 20.34570312 420.50793457 C19.96965563 417.83046055 19.96965563 417.83046055 19.9681797 414.5249176 C19.96035646 413.26677215 19.95253322 412.00862669 19.94447291 410.71235561 C19.95095969 409.30835786 19.95772969 407.90436139 19.9647522 406.50036621 C19.96129767 405.01498349 19.9565345 403.52960332 19.95057046 402.04422855 C19.93800247 397.95216257 19.94425704 393.86030545 19.95352912 389.76823854 C19.96029564 385.35918008 19.94985033 380.95015842 19.94158936 376.54110718 C19.92822413 367.89969642 19.93114215 359.25836366 19.93982728 350.6169498 C19.94659247 343.59615865 19.9475256 336.57538942 19.94425583 329.55459595 C19.94379613 328.55673854 19.94333643 327.55888113 19.9428628 326.53078562 C19.94190366 324.50388741 19.94093102 322.4769892 19.93994503 320.450091 C19.93138296 301.4276619 19.94123806 282.40527611 19.95734613 263.3828541 C19.97075005 247.04789829 19.96842218 230.71300642 19.95458984 214.37805176 C19.93854843 195.42537475 19.93220701 176.47273575 19.94142663 157.52005291 C19.94238232 155.50045968 19.94332543 153.48086644 19.94425583 151.46127319 C19.94471866 150.4675006 19.94518148 149.473728 19.94565833 148.44984108 C19.94825255 141.43453853 19.94386796 134.41926001 19.93681717 127.40396118 C19.92841793 118.85886813 19.93064899 110.3138578 19.9466594 101.76877427 C19.95456343 97.40591137 19.95759761 93.04318655 19.94771194 88.68032455 C19.93880842 84.69067845 19.94362559 80.70129914 19.9596446 76.71167743 C19.96301093 75.2642159 19.96125708 73.81673209 19.95401724 72.36928475 C19.94496423 70.40985557 19.95599593 68.45036375 19.9681797 66.49095154 C19.96866676 65.40012237 19.96915382 64.30929319 19.96965563 63.18540859 C20.34570312 60.50793457 20.34570312 60.50793457 21.73326623 58.66101933 C23.8844236 57.12268516 25.38290225 57.07999829 28.01367188 56.99621582 C28.90634766 56.9607666 29.79902344 56.92531738 30.71875 56.88879395 C32.1119043 56.85495605 32.1119043 56.85495605 33.53320312 56.82043457 C34.47357422 56.78627441 35.41394531 56.75211426 36.3828125 56.71691895 C38.70365705 56.63445239 41.02412461 56.56530054 43.34570312 56.50793457 C43.36028564 55.91778564 43.37486816 55.32763672 43.38989258 54.71960449 C43.46439156 52.04422228 43.56104308 49.37008565 43.65820312 46.69543457 C43.68076172 45.76666504 43.70332031 44.83789551 43.7265625 43.88098145 C43.76201172 42.98830566 43.79746094 42.09562988 43.83398438 41.17590332 C43.86016846 40.35372314 43.88635254 39.53154297 43.91333008 38.68444824 C44.45060411 35.97987568 45.20728546 35.21247225 47.34570312 33.50793457 C49.33067322 33.13041115 49.33067322 33.13041115 51.63452148 33.12698364 C52.94681229 33.11429443 52.94681229 33.11429443 54.28561401 33.10134888 C55.72108078 33.11045792 55.72108078 33.11045792 57.18554688 33.11975098 C58.70053268 33.11186554 58.70053268 33.11186554 60.24612427 33.1038208 C63.59197352 33.09059334 66.93734885 33.09936881 70.28320312 33.10949707 C72.60343518 33.10747713 74.92366661 33.10456636 77.24389648 33.10079956 C82.10959917 33.09637248 86.97513679 33.10281976 91.84082031 33.11682129 C98.08567951 33.13391321 104.33015195 33.12407411 110.57499695 33.1061039 C115.36701383 33.09527654 120.15893863 33.09870761 124.95095825 33.10648727 C127.25391688 33.10849218 129.55688381 33.10601989 131.85983276 33.09904861 C135.07540108 33.09145153 138.29033822 33.10301433 141.50585938 33.11975098 C142.46283722 33.11367828 143.41981506 33.10760559 144.40579224 33.10134888 C145.28065277 33.10980835 146.15551331 33.11826782 147.05688477 33.12698364 C148.19728966 33.12868026 148.19728966 33.12868026 149.36073303 33.13041115 C151.89013945 33.61148145 152.77898526 34.50161693 154.34570312 36.50793457 C154.77807617 38.68444824 154.77807617 38.68444824 154.85742188 41.17590332 C154.89287109 42.0685791 154.92832031 42.96125488 154.96484375 43.88098145 C154.98740234 44.80975098 155.00996094 45.73852051 155.03320312 46.69543457 C155.06736328 47.63580566 155.10152344 48.57617676 155.13671875 49.54504395 C155.21918531 51.8658885 155.28833716 54.18635605 155.34570312 56.50793457 C155.93585205 56.52251709 156.52600098 56.53709961 157.1340332 56.55212402 C159.80941542 56.62662301 162.48355204 56.72327452 165.15820312 56.82043457 C166.08697266 56.84299316 167.01574219 56.86555176 167.97265625 56.88879395 C168.86533203 56.92424316 169.75800781 56.95969238 170.67773438 56.99621582 C171.91100464 57.03549194 171.91100464 57.03549194 173.16918945 57.07556152 C175.8810862 57.61429054 176.64597847 58.3531162 178.34570312 60.50793457 C178.7189573 62.60487396 178.7189573 62.60487396 178.71649742 65.07700825 C178.72287047 66.01979801 178.72924351 66.96258776 178.73580968 67.93394691 C178.72755151 68.9716717 178.71929333 70.0093965 178.71078491 71.0785675 C178.71546341 72.72990103 178.71546341 72.72990103 178.72023642 74.41459483 C178.72720936 78.12268277 178.71281778 81.83038877 178.69873047 85.53845215 C178.69956081 88.18923546 178.70160512 90.83999035 178.70527649 93.49076843 C178.71102815 99.20875435 178.70638285 104.92665559 178.69526291 110.64463234 C178.67962416 118.91844543 178.68516462 127.19214415 178.69687934 135.46595892 C178.71578415 148.89767624 178.72499117 162.32937802 178.72460938 175.7611084 C178.72458321 176.96740183 178.72458321 176.96740183 178.72455652 178.19806483 C178.7241044 187.16840261 178.72077866 196.13873481 178.71368408 205.10906982 C178.7130517 205.91519638 178.71241932 206.72132294 178.71176777 207.55187757 C178.71113521 208.3571659 178.71050264 209.16245423 178.70985091 209.99214524 C178.70858115 211.61597931 178.70731574 213.23981338 178.70605469 214.86364746 C178.7051124 216.06710979 178.7051124 216.06710979 178.70415108 217.29488448 C178.69419773 230.67213263 178.7035212 244.04928816 178.7282387 257.42651671 C178.74267883 265.67921437 178.74058714 273.93158632 178.71727671 282.18426528 C178.70253326 287.8400129 178.70567635 293.49556955 178.72290562 299.15130953 C178.73224793 302.41499836 178.73064473 305.67804685 178.71267509 308.94171524 C178.69439493 312.48040081 178.70668466 316.01770466 178.72665405 319.55635071 C178.71393443 320.58738334 178.70121482 321.61841597 178.68810976 322.68069202 C178.73974686 326.91650593 178.85189599 330.56115991 181.19689369 334.19240856 C185.17125679 337.59405222 185.17125679 337.59405222 195.34570312 336.50793457 C195.34570312 230.90793457 195.34570312 125.30793457 195.34570312 16.50793457 C131.98570312 16.50793457 68.62570313 16.50793457 3.34570312 16.50793457 Z M59.34570312 48.50793457 C59.01570313 55.10793457 58.68570313 61.70793457 58.34570312 68.50793457 C55.34570312 71.50793457 55.34570312 71.50793457 35.34570312 72.50793457 C35.34570312 183.38793457 35.34570312 294.26793457 35.34570312 408.50793457 C41.94570312 408.83793457 48.54570312 409.16793457 55.34570312 409.50793457 C58.34570312 412.50793457 58.34570312 412.50793457 59.34570312 432.50793457 C83.43570313 432.50793457 107.52570313 432.50793457 132.34570312 432.50793457 C130.36570312 426.89793457 128.38570313 421.28793457 126.34570312 415.50793457 C124.36361974 407.29644628 124.36361974 407.29644628 124.32348633 403.29016113 C124.14299257 395.20607467 120.41687441 390.13147154 115.84570312 383.69543457 C115.05198907 382.54678151 114.26038332 381.39666926 113.47070312 380.24523926 C111.73465124 377.71839021 109.98854698 375.19888983 108.23632812 372.68322754 C103.40811603 365.73248918 98.70439355 358.6966114 93.97680664 351.67727661 C91.87822213 348.56454116 89.77338722 345.45606315 87.66810608 342.34785461 C85.70188186 339.44319662 83.74013237 336.53552976 81.77853394 333.62774658 C80.33843574 331.49718278 78.89215431 329.37090544 77.44555664 327.24475098 C76.53833795 325.90295105 75.63134479 324.56099861 74.72460938 323.21887207 C74.31110229 322.61468445 73.89759521 322.01049683 73.47155762 321.38800049 C70.42014472 316.85266811 68.62723604 312.8049373 67.34570312 307.50793457 C67.11882812 306.68293457 66.89195312 305.85793457 66.65820312 305.00793457 C65.72732849 297.56093748 66.66774595 291.41298896 68.78710938 284.20715332 C69.36404928 281.41928285 69.45785942 280.10113068 68.34570312 277.50793457 C66.92954123 275.87899832 66.92954123 275.87899832 65.15820312 274.38293457 C56.21682266 265.77203634 52.35194708 255.47817736 51.94311523 243.28039551 C51.74780334 228.46947137 55.08933487 217.24004152 65.44726562 206.28527832 C76.82499867 195.53070733 89.19369137 192.8867047 104.38085938 193.19934082 C117.10408695 193.7773423 127.03040059 199.69270329 135.65820312 208.82043457 C145.4743466 220.4609926 147.3561383 233.28284595 146.59716797 248.02111816 C145.87739081 255.13922509 143.33071562 261.85449949 139.04882812 267.57824707 C137.02611274 270.32193003 137.02611274 270.32193003 137.82226562 273.02355957 C139.61423258 275.94584414 141.57727147 278.58037918 143.72070312 281.25793457 C148.53767942 287.34575738 153.0141429 293.63656905 157.40966797 300.03430176 C157.89387207 300.73200684 158.37807617 301.42971191 158.87695312 302.14855957 C159.30556641 302.77278809 159.73417969 303.3970166 160.17578125 304.04016113 C161.2981881 305.65946063 161.2981881 305.65946063 163.34570312 306.50793457 C163.34570312 229.28793457 163.34570312 152.06793457 163.34570312 72.50793457 C156.74570312 72.17793457 150.14570313 71.84793457 143.34570312 71.50793457 C140.34570312 68.50793457 140.34570312 68.50793457 139.34570312 48.50793457 C112.94570313 48.50793457 86.54570312 48.50793457 59.34570312 48.50793457 Z M-21.71118164 56.29626465 C-22.96000626 56.68699661 -24.20883087 57.07772858 -25.49549866 57.4803009 C-26.8622553 57.91262024 -28.22898955 58.34501035 -29.59570312 58.77746582 C-31.00223243 59.21907428 -32.40888623 59.66028638 -33.81565857 60.10112 C-37.52674259 61.26512497 -41.23622948 62.4341393 -44.94537354 63.60430908 C-49.41933751 65.01484299 -53.89503245 66.41987169 -58.37058163 67.82536602 C-61.86104566 68.92156992 -65.35121832 70.01866918 -68.84046936 71.11872864 C-75.76348551 73.29967267 -82.6935649 75.45009166 -89.65429688 77.50793457 C-88.4157834 83.47405713 -86.90319322 89.26934034 -85.05664062 95.07434082 C-84.79515732 95.9074176 -84.53367401 96.74049438 -84.26426697 97.59881592 C-83.68603249 99.4394552 -83.10606543 101.27955087 -82.52459717 103.11917114 C-81.55749771 106.17895285 -80.59487462 109.24011326 -79.63330078 112.30163574 C-78.54586344 115.76361981 -77.45808373 119.22549356 -76.36901855 122.68696594 C-73.17925891 132.82645021 -70.0061417 142.97108596 -66.83789062 153.11730957 C-66.58421156 153.92965876 -66.33053249 154.74200794 -66.06916618 155.57897377 C-65.02375575 158.92671131 -63.97839675 162.27446491 -62.93311596 165.62224293 C-55.91168538 188.10991006 -48.88484295 210.5958814 -41.83398438 233.07434082 C-41.48822703 234.17665165 -41.48822703 234.17665165 -41.1354847 235.30123138 C-39.99987661 238.92156911 -38.86417287 242.54187682 -37.72842407 246.16217041 C-37.50916386 246.86108147 -37.28990364 247.55999252 -37.06399918 248.2800827 C-36.62542268 249.67807906 -36.18684187 251.07607406 -35.74825668 252.47406769 C-28.32578989 276.13418875 -20.9541947 299.80968553 -13.65429688 323.50793457 C-13.32429688 323.50793457 -12.99429688 323.50793457 -12.65429688 323.50793457 C-9.44019967 293.29112101 -13.09547823 267.39826042 -22.59179688 238.88293457 C-22.84203865 238.13086983 -23.09228043 237.37880508 -23.35010529 236.6039505 C-25.70310083 229.55446323 -28.09774437 222.51947191 -30.52841187 215.49639893 C-36.36719453 198.61107874 -41.74693827 181.58782896 -47.06430912 164.53215408 C-48.73042946 159.18871115 -50.4129402 153.8508834 -52.11222649 148.5178957 C-53.16696231 145.20217628 -54.21225198 141.88353044 -55.25534058 138.56413078 C-55.74128673 137.02410486 -56.23096125 135.48524958 -56.72467041 133.94769478 C-57.40198341 131.83549185 -58.06479918 129.71924093 -58.72436523 127.60144043 C-59.09911484 126.41819687 -59.47386444 125.23495331 -59.85997009 124.01585388 C-60.82539202 119.75234131 -61.83831704 114.6454977 -59.63085938 110.66027832 C-56.01246841 108.55074209 -51.9399208 107.59780939 -47.92773438 106.49035645 C-44.09571403 105.46277108 -44.09571403 105.46277108 -41.60351562 102.60949707 C-41.66185585 100.1951093 -42.17657478 98.55357649 -43.09179688 96.32043457 C-44.75002232 91.71847864 -45.40708337 87.37660569 -44.65429688 82.50793457 C-42.08799901 78.65848778 -40.25737392 78.43834185 -35.89648438 77.02746582 C-35.23343292 76.80975021 -34.57038147 76.59203461 -33.88723755 76.36772156 C-31.77100811 75.67536143 -29.65037772 74.99776863 -27.52929688 74.32043457 C-26.09278463 73.85330111 -24.65658232 73.3852134 -23.22070312 72.9161377 C-19.70251741 71.76713484 -16.17876071 70.63822291 -12.65429688 69.50793457 C-12.65429688 64.55793457 -12.65429688 59.60793457 -12.65429688 54.50793457 C-16.05052257 54.50793457 -18.46948008 55.27598753 -21.71118164 56.29626465 Z M-20.77929688 89.50793457 C-21.875 89.87918457 -22.97070312 90.25043457 -24.09960938 90.63293457 C-24.94265625 90.92168457 -25.78570312 91.21043457 -26.65429688 91.50793457 C-25.73883676 95.80280596 -24.81435514 100.01091152 -23.46679688 104.19543457 C-22.58130365 107.80552234 -22.60534839 109.9576474 -23.65429688 113.50793457 C-25.68764044 115.96147477 -27.41373763 116.99672903 -30.44726562 117.89465332 C-31.15947266 118.11057129 -31.87167969 118.32648926 -32.60546875 118.5489502 C-33.71245117 118.86895996 -33.71245117 118.86895996 -34.84179688 119.19543457 C-35.59138672 119.42037598 -36.34097656 119.64531738 -37.11328125 119.8770752 C-38.95774967 120.4292409 -40.80570448 120.96973678 -42.65429688 121.50793457 C-40.56379396 130.39635529 -37.99254893 139.06796794 -35.19726562 147.75793457 C-34.76714535 149.10522644 -34.33741061 150.45264144 -33.90803528 151.8001709 C-32.7841304 155.32464991 -31.65609 158.84778948 -30.52679443 162.37054443 C-28.51627088 168.64395835 -26.51216812 174.91942452 -24.50976562 181.19543457 C-24.18952738 182.1984259 -24.18952738 182.1984259 -23.86281967 183.22167969 C-20.33414381 194.28030662 -16.92482809 205.37022378 -13.65429688 216.50793457 C-13.32429688 216.50793457 -12.99429688 216.50793457 -12.65429688 216.50793457 C-12.65429688 173.93793457 -12.65429688 131.36793457 -12.65429688 87.50793457 C-15.58568518 87.50793457 -18.01169987 88.56577389 -20.77929688 89.50793457 Z M211.34570312 186.50793457 C211.34212059 187.75614345 211.34212059 187.75614345 211.33846569 189.02956867 C211.27937898 209.25947231 211.2038697 229.48925619 211.10998821 249.71902943 C211.06498591 259.50192502 211.02558156 269.28478384 210.99926758 279.06774902 C210.97632333 287.59267873 210.94296555 296.11749251 210.89700156 304.64233035 C210.87302097 309.15790616 210.85432397 313.67336682 210.84808922 318.1890049 C210.84206013 322.43666374 210.82213977 326.68402778 210.79142761 330.93157768 C210.78261231 332.4928648 210.77893199 334.05419039 210.78069496 335.6155014 C210.7823392 337.7430198 210.76572319 339.86963032 210.74443054 341.99702454 C210.73982158 343.18890286 210.73521261 344.38078119 210.73046398 345.60877705 C210.34570312 348.50793457 210.34570312 348.50793457 209.02070332 350.38862133 C204.91957153 353.12918884 198.55706929 352.02373887 193.72216797 352.00891113 C191.48468599 352.00794064 189.25065683 352.04951678 187.01367188 352.09387207 C185.58529358 352.09908096 184.15690341 352.10176723 182.72851562 352.10168457 C181.43316895 352.10877441 180.13782227 352.11586426 178.80322266 352.12316895 C173.7763215 351.22867728 171.93951334 348.51535875 168.8828125 344.66540527 C168.48900391 344.09394775 168.09519531 343.52249023 167.68945312 342.93371582 C167.23127197 342.27572998 166.77309082 341.61774414 166.30102539 340.93981934 C165.82076904 340.24042236 165.3405127 339.54102539 164.84570312 338.82043457 C163.78281096 337.293759 162.71897745 335.76773846 161.65429688 334.24230957 C161.1088623 333.4592041 160.56342773 332.67609863 160.00146484 331.8692627 C157.34141202 328.07568691 154.62675176 324.3222126 151.90820312 320.57043457 C151.10334473 319.45898071 151.10334473 319.45898071 150.28222656 318.32507324 C149.18980529 316.81671665 148.09719393 315.30849771 147.00439453 313.80041504 C144.75184128 310.68715701 142.50827083 307.56746643 140.26416016 304.44812012 C138.11740147 301.46923329 135.96049719 298.49776539 133.80322266 295.52648926 C132.46023846 293.66655737 131.1334876 291.79620715 129.81054688 289.92199707 C125.03504392 283.28707873 120.33300221 277.1703676 112.34570312 274.50793457 C103.98185782 273.6168095 97.22133774 274.4429653 90.34570312 279.50793457 C84.97757749 284.83151145 82.71731261 290.42023025 82.03320312 297.94543457 C82.65860016 305.07496074 85.7830541 310.68306985 89.79101562 316.42590332 C90.44910217 317.3910083 90.44910217 317.3910083 91.1204834 318.37561035 C92.56295206 320.48754048 94.01679583 322.59136681 95.47070312 324.69543457 C96.48770822 326.18025707 97.50380441 327.66570248 98.51904297 329.1517334 C100.6678426 332.29601116 102.82029837 335.43774345 104.97460938 338.57824707 C108.42294744 343.61255933 111.84090198 348.66705623 115.25195312 353.72668457 C116.09824783 354.98186638 116.09824783 354.98186638 116.9616394 356.2624054 C118.63160863 358.73989233 120.30118441 361.21764403 121.97070312 363.69543457 C124.04479652 366.77322335 126.12041824 369.84997235 128.19726562 372.92590332 C128.64533569 373.5912207 129.09340576 374.25653809 129.55505371 374.9420166 C131.68814537 378.09987023 133.85632829 381.21744957 136.10498047 384.29431152 C139.15156882 388.66369946 139.42831293 391.50036045 139.59570312 396.69543457 C140.89003872 416.25203638 150.01637694 432.8297763 163.88867188 446.37121582 C168.04068502 449.98194903 172.57999218 452.7826328 177.34570312 455.50793457 C178.32796875 456.09187988 178.32796875 456.09187988 179.33007812 456.68762207 C192.55292532 463.9771404 207.40774681 464.6804947 222.13867188 464.60559082 C223.21071365 464.60417587 224.28275543 464.60276093 225.38728333 464.6013031 C228.7692865 464.59576159 232.15122038 464.58322044 235.53320312 464.57043457 C237.84374904 464.565412 240.154296 464.56085042 242.46484375 464.5567627 C248.09182002 464.54581141 253.71875662 464.52913278 259.34570312 464.50793457 C259.39245061 440.67276007 259.42770546 416.83759246 259.44932747 393.00238132 C259.45963436 381.93496225 259.4736835 370.86757168 259.49658203 359.8001709 C259.51653384 350.15237866 259.52942383 340.50460707 259.53388011 330.85679477 C259.53648445 325.7496888 259.54259362 320.6426419 259.55716324 315.53555489 C259.57077541 310.72493777 259.57491841 305.91440385 259.57191849 301.1037693 C259.57246702 299.34179481 259.57642274 297.57981744 259.58411407 295.81785965 C259.65801596 280.16530908 259.65801596 280.16530908 254.50976562 265.49621582 C253.94628418 264.4201709 253.38280273 263.34412598 252.80224609 262.23547363 C252.19783691 261.10851074 251.59342773 259.98154785 250.97070312 258.82043457 C250.33726675 257.62130551 249.70462881 256.42175436 249.07275391 255.22180176 C244.7147293 246.97044821 240.25402829 238.77389947 235.75756836 230.59729004 C231.56671626 222.96547625 227.53101681 215.2576955 223.52001953 207.53015137 C219.86262124 200.48516285 216.14486447 193.47752282 212.34570312 186.50793457 C212.01570312 186.50793457 211.68570313 186.50793457 211.34570312 186.50793457 Z M76.52539062 218.14074707 C69.42026863 225.81713516 67.64582091 233.4976212 67.96679688 243.85168457 C68.92118 253.06098981 72.91895744 259.04508357 79.34570312 265.50793457 C82.76664268 264.79792825 85.69282144 263.49775778 88.84570312 262.00793457 C94.83324537 259.17865637 99.40807826 258.31427739 106.03320312 258.32043457 C107.09861328 258.31946777 107.09861328 258.31946777 108.18554688 258.31848145 C113.48709033 258.37169037 118.2295184 259.04616751 123.34570312 260.50793457 C129.99193419 253.17416236 131.03913165 245.97324933 130.81835938 236.33605957 C129.84025261 228.41420314 126.3131934 221.97517988 120.53320312 216.50793457 C106.60233713 205.64927476 89.7286322 206.29749604 76.52539062 218.14074707 Z " fill="#000000" transform="translate(172.654296875,15.4920654296875)"/>
</svg>
