<svg width="20" height="20" viewBox="0 0 20 20" fill="none" xmlns="http://www.w3.org/2000/svg">
<path d="M9.99999 0.588379C7.05881 0.588379 4.70587 2.94132 4.70587 5.8825V8.23544C3.70587 8.23544 2.94116 9.00014 2.94116 10.0001V17.6472C2.94116 18.6472 3.70587 19.4119 4.70587 19.4119H15.2941C16.2941 19.4119 17.0588 18.6472 17.0588 17.6472V10.0001C17.0588 9.00014 16.2941 8.23544 15.2941 8.23544V5.8825C15.2941 2.94132 12.9412 0.588379 9.99999 0.588379ZM15.8823 10.0001V17.6472C15.8823 18.0001 15.647 18.2354 15.2941 18.2354H4.70587C4.35293 18.2354 4.11763 18.0001 4.11763 17.6472V10.0001C4.11763 9.6472 4.35293 9.41191 4.70587 9.41191H15.2941C15.647 9.41191 15.8823 9.6472 15.8823 10.0001ZM5.88234 8.23544V5.8825C5.88234 3.58838 7.70587 1.76485 9.99999 1.76485C12.2941 1.76485 14.1176 3.58838 14.1176 5.8825V8.23544H5.88234Z" fill="black"/>
<path d="M10 11.1768C9 11.1768 8.23529 11.9415 8.23529 12.9415C8.23529 13.7062 8.70588 14.3532 9.41176 14.5885V15.8826C9.41176 16.2356 9.64706 16.4709 10 16.4709C10.3529 16.4709 10.5882 16.2356 10.5882 15.8826V14.5885C11.2941 14.3532 11.7647 13.7062 11.7647 12.9415C11.7647 11.9415 11 11.1768 10 11.1768ZM10 13.5297C9.64706 13.5297 9.41176 13.2944 9.41176 12.9415C9.41176 12.5885 9.64706 12.3532 10 12.3532C10.3529 12.3532 10.5882 12.5885 10.5882 12.9415C10.5882 13.2944 10.3529 13.5297 10 13.5297Z" fill="black"/>
</svg>
