<svg width="17" height="16" viewBox="0 0 17 16" fill="none" xmlns="http://www.w3.org/2000/svg">
<g clip-path="url(#clip0_395_7584)">
<path d="M1.02002 7.65625V8.34375C1.02002 12.5722 4.44783 16 8.67627 16C12.9047 16 16.3325 12.5722 16.3325 8.34375V7.65625H1.02002Z" fill="#DB5800"/>
<path d="M8.67627 15.3125C12.9047 15.3125 16.3325 11.8847 16.3325 7.65625C16.3325 3.42782 12.9047 0 8.67627 0C4.44784 0 1.02002 3.42782 1.02002 7.65625C1.02002 11.8847 4.44784 15.3125 8.67627 15.3125Z" fill="#FFCE33"/>
<path d="M16.3325 7.65625C16.3325 7.70844 16.3319 7.76062 16.331 7.8125C16.2478 3.65625 12.8525 0.3125 8.67627 0.3125C4.50002 0.3125 1.10471 3.65625 1.02158 7.8125C1.02064 7.76062 1.02002 7.70844 1.02002 7.65625C1.02002 3.42781 4.44783 0 8.67627 0C12.9047 0 16.3325 3.42781 16.3325 7.65625ZM14.696 8.075C14.696 11.3997 12.001 14.0947 8.67627 14.0947C5.35158 14.0947 2.65627 11.3997 2.65627 8.075C2.65627 8.02312 2.65689 7.97125 2.65814 7.91969C2.74158 11.1719 5.40408 13.7822 8.67627 13.7822C11.9485 13.7822 14.6106 11.1719 14.6941 7.91969C14.6953 7.97125 14.696 8.02312 14.696 8.075Z" fill="#FFF0B3"/>
<path d="M14.7091 2.94157L1.77314 10.9719C1.29033 9.96875 1.02002 8.84407 1.02002 7.65625C1.02002 7.29532 1.04502 6.94 1.09346 6.59219L11.0881 0.387817C12.5347 0.867192 13.7897 1.76688 14.7091 2.94157ZM16.2628 6.62094L4.38252 13.9959C5.13033 14.5034 5.97252 14.8822 6.87752 15.0997L16.145 9.34657C16.2678 8.80282 16.3325 8.23719 16.3325 7.65625C16.3325 7.305 16.3088 6.95969 16.2628 6.62094ZM15.5263 4.2325L2.57033 12.2756C2.78022 12.553 3.00877 12.8156 3.25439 13.0619L15.9281 5.19407C15.8162 4.86479 15.6819 4.54352 15.5263 4.2325Z" fill="#FFF0B3" fill-opacity="0.376471"/>
<path d="M8.67618 13.7822C12.0008 13.7822 14.6959 11.0871 14.6959 7.76249C14.6959 4.4379 12.0008 1.7428 8.67618 1.7428C5.3516 1.7428 2.65649 4.4379 2.65649 7.76249C2.65649 11.0871 5.3516 13.7822 8.67618 13.7822Z" fill="#F28A00"/>
<path d="M14.6959 7.76255C14.6959 7.8688 14.6931 7.97443 14.6877 8.07943C14.5231 4.90224 11.8946 2.3763 8.67618 2.3763C5.45774 2.3763 2.82931 4.90193 2.66462 8.07912C2.65931 7.97412 2.65649 7.86849 2.65649 7.76224C2.65649 4.43787 5.35181 1.74255 8.67618 1.74255C12.0006 1.74255 14.6959 4.43787 14.6959 7.76224V7.76255Z" fill="#DB5800"/>
<path d="M6.98189 8.43784C7.23533 8.31815 7.42158 8.16159 7.54033 7.96815C7.65939 7.77502 7.71877 7.53159 7.71877 7.23784V6.92534L7.68721 6.92846C7.63127 6.66877 7.50096 6.45784 7.29502 6.29596C7.01252 6.07377 6.62096 5.96252 6.12002 5.96252H4.45752V10.1872H5.47596V8.69284H6.02721L6.77283 10.1872H7.86377V9.87471L7.69502 9.81752L6.98158 8.43784H6.98189ZM6.55689 7.7569C6.45908 7.85877 6.31377 7.90971 6.12033 7.90971H5.47627V6.74627H6.12033C6.31189 6.74627 6.45689 6.79815 6.55564 6.9019C6.65439 7.00565 6.70377 7.14877 6.70377 7.33096C6.70377 7.51315 6.65502 7.65534 6.55721 7.75721L6.55689 7.7569ZM12.8953 5.96284V10.1875H11.8741V9.20096L11.9728 7.18159L10.9516 10.1875H10.2785L9.25408 7.17877L9.35283 9.20096V10.1875H8.33439V5.96252H9.67189L10.615 8.90159L11.555 5.96252H12.8956L12.8953 5.96284Z" fill="#BC4C00"/>
<path d="M6.02721 8.38034H5.47596V9.87471H4.45752V5.65002H6.12002C6.62096 5.65002 7.01252 5.76127 7.29502 5.98346C7.57752 6.20565 7.71877 6.51971 7.71877 6.92534C7.71877 7.21909 7.65939 7.46252 7.54033 7.65565C7.42127 7.84877 7.23502 8.00534 6.98189 8.12534L7.86408 9.83096V9.8744H6.77314L6.02752 8.38002L6.02721 8.38034ZM5.47596 7.5969H6.12002C6.31346 7.5969 6.45908 7.54596 6.55658 7.44409C6.65408 7.34221 6.70314 7.20034 6.70314 7.01784C6.70314 6.83534 6.65377 6.69252 6.55502 6.58877C6.45627 6.48502 6.31127 6.43315 6.11971 6.43315H5.47564V7.59659L5.47596 7.5969ZM9.67158 5.65002L10.6147 8.58909L11.5547 5.65002H12.8953V9.87471H11.8741V8.88815L11.9728 6.86877L10.9516 9.87471H10.2785L9.25408 6.86596L9.35283 8.88815V9.87471H8.33439V5.65002H9.67189H9.67158Z" fill="#FFCE33"/>
<path d="M10.5883 8.50877L9.94804 8.90627L9.60772 7.90659L10.2643 7.49877L10.5883 8.50877ZM12.8946 7.0769V5.86596L11.1358 6.95784L10.6524 8.46877L11.6355 7.85846L11.9718 6.86846L11.9324 7.67409L12.8943 7.0769H12.8946ZM11.8733 9.34534V9.8744H12.8946V8.71127L11.8733 9.34534ZM4.4571 9.30534V5.65002H6.1196C6.62054 5.65002 7.0121 5.76127 7.2946 5.98346C7.5771 6.20565 7.71835 6.51971 7.71835 6.92534C7.71835 7.06346 7.7046 7.19002 7.67835 7.30565L5.9471 8.38034H5.47522V8.67315L4.45679 9.30534H4.4571ZM5.47554 7.5969H6.1196C6.31304 7.5969 6.45866 7.54596 6.55616 7.44409C6.65366 7.34221 6.70272 7.20034 6.70272 7.01784C6.70272 6.83534 6.65335 6.69252 6.5546 6.58877C6.45585 6.48502 6.31085 6.43315 6.11929 6.43315H5.47522V7.59659L5.47554 7.5969ZM8.33335 5.65002V6.89909L9.78304 5.99909L9.67116 5.65002H8.33366H8.33335ZM9.35179 8.88815L9.31272 8.0894L8.33335 8.69752V9.87471H8.38804L9.35179 9.27627V8.88815ZM7.86335 9.87471V9.83127L7.53397 9.19409L6.69335 9.71596L6.77272 9.87471H7.86366H7.86335Z" fill="#FFF0B3" fill-opacity="0.376471"/>
</g>
<defs>
<clipPath id="clip0_395_7584">
<rect width="16" height="16" fill="white" transform="translate(0.67627)"/>
</clipPath>
</defs>
</svg>
