<svg xmlns="http://www.w3.org/2000/svg" version="1.1" xmlns:xlink="http://www.w3.org/1999/xlink" width="512" height="512" x="0" y="0" viewBox="0 0 3872.983 3872.983" style="enable-background:new 0 0 512 512" xml:space="preserve" class=""><g><path fill-rule="evenodd" d="M2315.598 3063.791c-33.353 0-60.398-27.038-60.398-60.397s27.038-60.397 60.398-60.397c76.077 0 137.977-61.899 137.977-137.986 0-76.078-61.899-137.97-137.977-137.97l-501.878.881h-.109a60.388 60.388 0 0 1-27.863-6.81l-437.983-227.786-469.399-.002c-33.36 0-60.397-27.038-60.397-60.397s27.038-60.398 60.397-60.398l484.169.002a60.388 60.388 0 0 1 27.863 6.81l437.936 227.756 487.164-.85c142.79 0 258.875 116.076 258.875 258.756-.01 142.704-116.094 258.788-258.775 258.788z" clip-rule="evenodd" fill="#a855f7" opacity="1" data-original="#000000" class=""></path><path fill-rule="evenodd" d="M2146.022 3637.817h-284.116a60.318 60.318 0 0 1-21.745-4.05l-754.181-290.985H884.138c-33.36 0-60.397-27.038-60.397-60.397s27.038-60.398 60.397-60.398h213.089c7.43 0 14.808 1.368 21.745 4.05l754.181 290.985h259.879c57.519-25.197 176.309-68.301 323.787-121.802 349.778-126.92 878.348-318.706 1063.236-444.479 54.208-36.867 72.737-112.057 41.319-167.61-34.555-61.114-135.431-96.95-314.798-14.243a58.986 58.986 0 0 1-5.041 2.052l-812.894 289.34a60.394 60.394 0 0 1-20.25 3.493l-774.286.001c-33.36 0-60.398-27.038-60.398-60.397s27.038-60.397 60.398-60.397h763.849l800.556-284.945c252.37-115.415 407.179-41.933 468.016 65.635 62.647 110.783 28.147 254.401-78.533 326.955-197.399 134.266-713.285 321.459-1089.983 458.139-150.238 54.522-279.997 101.599-326.341 123.335a60.365 60.365 0 0 1-25.647 5.718z" clip-rule="evenodd" fill="#a855f7" opacity="1" data-original="#000000" class=""></path><path fill-rule="evenodd" d="M878.359 3548.824H239.758c-33.36 0-60.397-27.038-60.397-60.397V2170.241c0-33.353 27.038-60.397 60.397-60.397h638.601c33.36 0 60.397 27.038 60.397 60.397v1318.194c0 33.353-27.038 60.389-60.397 60.389zm-578.204-120.786h517.797V2230.63H300.155zM2260.621 2118.729c-516.088 0-935.951-419.862-935.951-935.951s419.871-935.962 935.951-935.962c516.089 0 935.962 419.871 935.962 935.962s-419.873 935.951-935.962 935.951zm0-1751.117c-449.478 0-815.157 365.68-815.157 815.168 0 449.479 365.679 815.156 815.157 815.156 449.479 0 815.167-365.677 815.167-815.156 0-449.488-365.688-815.168-815.167-815.168z" clip-rule="evenodd" fill="#a855f7" opacity="1" data-original="#000000" class=""></path><path fill-rule="evenodd" d="M1826.855 1676.944c-15.461 0-30.914-5.898-42.711-17.695-23.583-23.592-23.583-61.828 0-85.413l867.534-867.525c23.584-23.593 61.829-23.577 85.414 0 23.583 23.593 23.583 61.828 0 85.414l-867.525 867.525c-11.798 11.796-27.251 17.694-42.712 17.694zM1983.547 1117.333c-54.223 0-108.438-20.636-149.717-61.915-82.551-82.558-82.551-216.88 0-299.43 39.989-39.989 93.157-62.018 149.717-62.018 56.55 0 109.72 22.029 149.712 62.018 82.551 82.55 82.551 216.873 0 299.43-41.273 41.279-95.487 61.915-149.712 61.915zm0-302.568c-24.293 0-47.13 9.461-64.305 26.636-35.453 35.453-35.453 93.144 0 128.603 35.453 35.453 93.152 35.46 128.603 0 35.453-35.452 35.459-93.143 0-128.603-17.175-17.177-40.012-26.636-64.298-26.636zM2537.693 1671.485c-54.217 0-108.433-20.643-149.712-61.914-39.989-39.989-62.017-93.159-62.017-149.719s22.028-109.73 62.017-149.718c39.989-39.982 93.168-62.009 149.718-62.009 56.551 0 109.721 22.028 149.712 62.017 82.551 82.551 82.551 216.873 0 299.43-41.279 41.271-95.502 61.913-149.718 61.913zm.008-302.567c-24.293 0-47.129 9.461-64.305 26.636-17.184 17.175-26.643 40.004-26.643 64.298s9.461 47.123 26.643 64.298c35.453 35.453 93.152 35.469 128.603 0 35.453-35.452 35.46-93.143 0-128.603-17.177-17.168-40.013-26.629-64.298-26.629zm-107.017-16.075h.08z" clip-rule="evenodd" fill="#a855f7" opacity="1" data-original="#000000" class=""></path></g></svg>
