<svg width="20" height="20" viewBox="0 0 20 20" fill="none" xmlns="http://www.w3.org/2000/svg">
<path d="M16.9976 5.05303C16.8689 4.92435 16.6994 4.84464 16.5182 4.82764C16.337 4.81064 16.1556 4.85741 16.0052 4.9599C14.8362 5.7567 8.97275 9.76338 8.3426 10.3935C7.42877 11.3074 7.42877 12.7942 8.3426 13.7081C8.79951 14.165 9.39975 14.3935 9.9999 14.3935C10.6001 14.3935 11.2003 14.165 11.6572 13.7081C12.2873 13.0779 16.294 7.21451 17.0908 6.04553C17.1933 5.89513 17.24 5.71368 17.223 5.53249C17.206 5.3513 17.1263 5.18173 16.9976 5.05303ZM10.5523 12.6032C10.2477 12.9079 9.75205 12.9079 9.44748 12.6032C9.14287 12.2987 9.14283 11.8031 9.44732 11.4985C9.69217 11.2566 11.3569 10.0693 13.4051 8.64561C11.9814 10.6938 10.7942 12.3585 10.5523 12.6032Z" fill="#A855F7"/>
<path d="M3.60277 15.6845L2.63832 16.155C1.93262 14.8955 1.5625 13.4898 1.5625 12.0508C1.5625 10.9964 1.75691 9.98664 2.11172 9.05535L3.21684 9.58543C3.32208 9.6361 3.43738 9.66242 3.55418 9.66246C3.84531 9.66246 4.1248 9.49898 4.25914 9.21891C4.4457 8.82988 4.28164 8.3632 3.89258 8.1766L2.80148 7.65324C4.15762 5.44152 6.50398 3.89953 9.21879 3.64914V4.82418C9.21879 5.25566 9.56855 5.60543 10 5.60543C10.4315 5.60543 10.7813 5.25566 10.7813 4.82418V3.64855C11.7121 3.73328 12.6127 3.97031 13.4677 4.35625C13.8608 4.53379 14.3236 4.35883 14.5011 3.96566C14.6787 3.57238 14.5038 3.10969 14.1105 2.93215C12.815 2.34734 11.432 2.05078 10 2.05078C7.32891 2.05078 4.8177 3.09094 2.92891 4.97969C1.0402 6.86848 0 9.37969 0 12.0508C0 14.0246 0.585859 15.9443 1.69426 17.6021C1.79926 17.7592 1.95762 17.8729 2.14002 17.9222C2.32241 17.9715 2.51648 17.953 2.68629 17.8701L4.28785 17.0889C4.67566 16.8997 4.83668 16.432 4.6475 16.0442C4.45832 15.6564 3.99059 15.4954 3.60277 15.6845ZM19.1186 7.94031C18.9411 7.54707 18.4785 7.37207 18.0851 7.54969C17.6918 7.72723 17.517 8.18992 17.6945 8.58316C18.1875 9.67527 18.4375 10.842 18.4375 12.0508C18.4375 13.492 18.0662 14.9 17.3584 16.1609L16.3515 15.6814C15.962 15.4959 15.4958 15.6613 15.3102 16.0509C15.1247 16.4404 15.2902 16.9066 15.6797 17.0921L17.3204 17.8734C17.4898 17.9541 17.6826 17.9711 17.8635 17.9213C18.0445 17.8715 18.2014 17.7582 18.3057 17.6022C19.4141 15.9443 20 14.0246 20 12.0508C20 10.6188 19.7034 9.23582 19.1186 7.94031Z" fill="#A855F7"/>
</svg>
