<svg width="38" height="38" viewBox="0 0 38 38" fill="none" xmlns="http://www.w3.org/2000/svg">
<path d="M25.5245 8.3866C23.4085 8.38876 21.3799 9.23028 19.8836 10.7265C18.3874 12.2227 17.5459 14.2514 17.5437 16.3673C17.5437 20.6082 24.8172 31.1799 25.1237 31.6282C25.1687 31.693 25.2286 31.7459 25.2985 31.7824C25.3684 31.819 25.446 31.838 25.5249 31.838C25.6037 31.838 25.6814 31.819 25.7512 31.7824C25.8211 31.7459 25.8811 31.693 25.926 31.6282C26.2355 31.1829 33.5038 20.6082 33.5038 16.3673C33.5018 14.2516 32.6605 12.223 31.1646 10.7268C29.6687 9.23059 27.6403 8.38896 25.5245 8.3866ZM28.4932 14.6054C28.4932 15.1926 28.3191 15.7665 27.9929 16.2547C27.6667 16.7429 27.2031 17.1235 26.6606 17.3482C26.1181 17.5729 25.5212 17.6316 24.9453 17.5171C24.3694 17.4025 23.8405 17.1198 23.4253 16.7046C23.0101 16.2894 22.7273 15.7604 22.6128 15.1846C22.4982 14.6087 22.557 14.0118 22.7817 13.4693C23.0064 12.9268 23.3869 12.4632 23.8751 12.137C24.3633 11.8108 24.9373 11.6366 25.5245 11.6366C25.9144 11.6368 26.3004 11.7138 26.6605 11.8632C27.0206 12.0126 27.3477 12.2314 27.6233 12.5072C27.8988 12.783 28.1173 13.1104 28.2663 13.4707C28.4154 13.8309 28.492 14.217 28.4918 14.6069L28.4932 14.6054ZM21.2859 32.6287C17.7234 32.6287 7.92648 32.3852 5.27094 29.7764C4.7566 29.2718 4.49609 28.6951 4.49609 28.0613C4.49609 25.7605 7.54723 25.071 10.4982 24.406C12.8108 23.8864 15.4322 23.2927 15.4322 22.1156C15.4322 21.3318 13.0105 20.5414 10.8373 20.3217C10.7418 20.312 10.6491 20.2835 10.5645 20.2379C10.4799 20.1923 10.4052 20.1306 10.3445 20.0561C10.2838 19.9816 10.2384 19.8959 10.2108 19.8039C10.1833 19.7119 10.1741 19.6154 10.1838 19.5198C10.1936 19.4242 10.2221 19.3315 10.2676 19.247C10.3132 19.1624 10.375 19.0876 10.4495 19.027C10.5239 18.9663 10.6096 18.9208 10.7016 18.8933C10.7937 18.8657 10.8902 18.8565 10.9858 18.8663C11.9721 18.965 16.8966 19.587 16.8966 22.1156C16.8966 24.4639 13.8091 25.1586 10.8218 25.8325C8.54398 26.3461 5.96043 26.9279 5.96043 28.059C5.96043 28.2075 5.99605 28.4338 6.29738 28.727C8.53508 30.9313 18.703 31.2311 22.4325 31.1562C22.6235 31.1572 22.8064 31.2327 22.9424 31.3667C23.0784 31.5007 23.1566 31.6826 23.1604 31.8735C23.1642 32.0644 23.0932 32.2492 22.9626 32.3885C22.8321 32.5277 22.6522 32.6105 22.4615 32.619C22.2655 32.6227 21.8536 32.6287 21.2859 32.6287ZM9.66469 5.37109C8.51812 5.37227 7.41883 5.82816 6.60794 6.63877C5.79706 7.44938 5.34079 8.54851 5.33922 9.69508C5.33922 11.9031 8.86238 17.0635 9.26391 17.6446C9.30857 17.7097 9.3684 17.7629 9.43822 17.7997C9.50805 17.8364 9.58578 17.8556 9.66469 17.8556C9.7436 17.8556 9.82133 17.8364 9.89115 17.7997C9.96098 17.7629 10.0208 17.7097 10.0655 17.6446C10.4677 17.0635 13.9887 11.9023 13.9887 9.69508C13.9875 8.54865 13.5316 7.44951 12.7209 6.63886C11.9103 5.82821 10.8111 5.37227 9.66469 5.37109ZM9.66469 10.4773C9.33177 10.4775 9.00628 10.3789 8.72938 10.1941C8.45249 10.0092 8.23662 9.74644 8.10908 9.43891C7.98154 9.13139 7.94806 8.79295 8.01286 8.4664C8.07767 8.13985 8.23785 7.83984 8.47316 7.60433C8.70847 7.36881 9.00833 7.20836 9.33483 7.14327C9.66132 7.07818 9.99979 7.11136 10.3074 7.23863C10.6151 7.3659 10.878 7.58153 11.0631 7.85826C11.2482 8.135 11.3471 8.4604 11.3472 8.79332C11.3472 9.23969 11.17 9.66781 10.8545 9.98358C10.539 10.2994 10.1111 10.477 9.66469 10.4773Z" fill="#A855F7"/>
</svg>
