<svg width="20" height="20" viewBox="0 0 20 20" fill="none" xmlns="http://www.w3.org/2000/svg">
<path d="M9.10439 10C9.96968 10 10.8155 9.74341 11.535 9.26268C12.2545 8.78195 12.8152 8.09867 13.1464 7.29924C13.4775 6.49982 13.5641 5.62015 13.3953 4.77148C13.2265 3.92281 12.8098 3.14326 12.198 2.53141C11.5861 1.91956 10.8066 1.50288 9.95791 1.33407C9.10924 1.16526 8.22957 1.2519 7.43015 1.58303C6.63072 1.91416 5.94744 2.47492 5.46671 3.19438C4.98598 3.91385 4.72939 4.75971 4.72939 5.625C4.73071 6.78492 5.19207 7.89695 6.01226 8.71713C6.83244 9.53732 7.94447 9.99868 9.10439 10ZM9.10439 2.5C9.72245 2.5 10.3266 2.68328 10.8405 3.02666C11.3544 3.37004 11.755 3.8581 11.9915 4.42912C12.228 5.00013 12.2899 5.62847 12.1693 6.23466C12.0488 6.84085 11.7511 7.39767 11.3141 7.83471C10.8771 8.27175 10.3202 8.56938 9.71404 8.68996C9.10785 8.81053 8.47952 8.74865 7.9085 8.51213C7.33748 8.2756 6.84942 7.87506 6.50604 7.36116C6.16267 6.84726 5.97939 6.24307 5.97939 5.625C5.98038 4.7965 6.30994 4.00223 6.89577 3.41639C7.48161 2.83055 8.27589 2.50099 9.10439 2.5ZM16.5088 15.625L17.835 14.2994C17.9489 14.1815 18.0119 14.0236 18.0104 13.8598C18.009 13.6959 17.9433 13.5391 17.8274 13.4232C17.7115 13.3074 17.5548 13.2416 17.3909 13.2402C17.227 13.2388 17.0691 13.3018 16.9513 13.4156L15.625 14.7413L14.2988 13.4156C14.1809 13.3018 14.023 13.2388 13.8591 13.2402C13.6953 13.2416 13.5385 13.3074 13.4226 13.4232C13.3067 13.5391 13.241 13.6959 13.2396 13.8598C13.2382 14.0236 13.3012 14.1815 13.415 14.2994L14.7413 15.625L13.415 16.9506C13.3553 17.0083 13.3077 17.0772 13.2749 17.1535C13.2422 17.2298 13.225 17.3118 13.2242 17.3948C13.2235 17.4777 13.2393 17.56 13.2707 17.6368C13.3022 17.7137 13.3486 17.7834 13.4073 17.8421C13.4659 17.9008 13.5357 17.9472 13.6125 17.9786C13.6894 18.0101 13.7716 18.0259 13.8546 18.0252C13.9376 18.0244 14.0196 18.0072 14.0959 17.9744C14.1721 17.9417 14.2411 17.8941 14.2988 17.8344L15.625 16.5088L16.9513 17.8344C17.0691 17.9482 17.227 18.0112 17.3909 18.0098C17.5548 18.0084 17.7115 17.9426 17.8274 17.8268C17.9433 17.7109 18.009 17.5541 18.0104 17.3903C18.0119 17.2264 17.9489 17.0685 17.835 16.9506L16.5088 15.625ZM11.875 17.5H3.13751C3.03524 17.5006 2.93431 17.4767 2.84319 17.4303C2.75206 17.3838 2.67339 17.3162 2.61376 17.2331C2.55871 17.161 2.52194 17.0765 2.5066 16.9871C2.49125 16.8976 2.49779 16.8058 2.52564 16.7194C2.8284 15.8295 3.30821 15.0102 3.93615 14.3108C4.5641 13.6114 5.32716 13.0464 6.17936 12.6499C7.03155 12.2533 7.95521 12.0334 8.89467 12.0035C9.83413 11.9736 10.7699 12.1342 11.6456 12.4756C11.7999 12.5365 11.972 12.5335 12.124 12.4675C12.2761 12.4014 12.3957 12.2777 12.4566 12.1234C12.5174 11.9692 12.5145 11.7971 12.4484 11.645C12.3824 11.493 12.2586 11.3733 12.1044 11.3125C11.0698 10.9086 9.9641 10.7186 8.85404 10.7542C7.74399 10.7898 6.65269 11.0501 5.64612 11.5195C4.63955 11.9889 3.73864 12.6575 2.99786 13.485C2.25708 14.3125 1.69182 15.2816 1.33626 16.3338C1.24751 16.6078 1.22537 16.8991 1.27167 17.1834C1.31798 17.4678 1.43139 17.737 1.60251 17.9688C1.779 18.2104 2.00995 18.4071 2.27664 18.5428C2.54334 18.6786 2.83826 18.7495 3.13751 18.75H11.875C12.0408 18.75 12.1997 18.6842 12.317 18.5669C12.4342 18.4497 12.5 18.2908 12.5 18.125C12.5 17.9592 12.4342 17.8003 12.317 17.6831C12.1997 17.5658 12.0408 17.5 11.875 17.5Z" fill="#FF0000"/>
</svg>
