<svg width="24" height="24" viewBox="0 0 24 24" fill="none" xmlns="http://www.w3.org/2000/svg">
<path d="M21.4242 10.8104C21.1381 8.5421 20.0435 6.45303 18.3413 4.92664C16.6392 3.40024 14.4436 2.53893 12.1576 2.50076L12.8092 1.8545C12.8563 1.80839 12.8939 1.7534 12.9197 1.69271C12.9455 1.63202 12.9591 1.56682 12.9596 1.50087C12.9601 1.43492 12.9475 1.36952 12.9227 1.30844C12.8978 1.24736 12.8611 1.1918 12.8146 1.14498C12.7682 1.09815 12.7129 1.06097 12.6521 1.03559C12.5912 1.0102 12.5259 0.997112 12.4599 0.99707C12.394 0.997029 12.3287 1.01004 12.2678 1.03534C12.2069 1.06065 12.1516 1.09776 12.1051 1.14453L10.5213 2.71545C10.4747 2.76168 10.4376 2.81663 10.4122 2.87719C10.3869 2.93774 10.3737 3.0027 10.3734 3.06836C10.3731 3.13401 10.3858 3.19908 10.4107 3.25984C10.4356 3.3206 10.4722 3.37586 10.5184 3.42247L12.1021 5.01926C12.1482 5.06642 12.2032 5.10398 12.2639 5.12979C12.3246 5.1556 12.3898 5.16915 12.4558 5.16966C12.5217 5.17016 12.5871 5.15761 12.6482 5.13273C12.7093 5.10785 12.7648 5.07114 12.8116 5.0247C12.8585 4.97825 12.8957 4.92301 12.921 4.86213C12.9464 4.80126 12.9595 4.73597 12.9596 4.67002C12.9596 4.60406 12.9466 4.53876 12.9213 4.47785C12.896 4.41695 12.8589 4.36165 12.8121 4.31515L12.0045 3.50075C13.7652 3.50198 15.482 4.0499 16.9179 5.06883C18.3538 6.08776 19.4378 7.52741 20.0203 9.18894C20.6027 10.8505 20.6549 12.6519 20.1695 14.3443C19.6842 16.0367 18.6853 17.5367 17.3108 18.637C17.2073 18.72 17.141 18.8406 17.1265 18.9724C17.1193 19.0377 17.1251 19.1037 17.1434 19.1668C17.1617 19.2298 17.1923 19.2887 17.2334 19.3399C17.2745 19.3911 17.3252 19.4338 17.3828 19.4654C17.4403 19.497 17.5035 19.517 17.5688 19.5242C17.7006 19.5387 17.8328 19.5002 17.9363 19.4173C20.537 17.3318 21.8409 14.1143 21.4242 10.8104ZM11.8976 18.9797C11.8515 18.9326 11.7965 18.895 11.7358 18.8692C11.6751 18.8434 11.6099 18.8298 11.5439 18.8293C11.478 18.8288 11.4126 18.8414 11.3515 18.8662C11.2904 18.8911 11.2349 18.9278 11.188 18.9743C11.1412 19.0207 11.104 19.076 11.0787 19.1368C11.0533 19.1977 11.0402 19.263 11.0401 19.329C11.0401 19.3949 11.0531 19.4602 11.0784 19.5211C11.1037 19.582 11.1408 19.6373 11.1876 19.6838L11.9952 20.4979C10.2347 20.4968 8.518 19.9491 7.08219 18.9304C5.64639 17.9117 4.56231 16.4723 3.97969 14.811C3.39707 13.1498 3.34465 11.3486 3.82967 9.65622C4.3147 7.96388 5.31323 6.46389 6.68736 5.36342C6.7908 5.28041 6.85703 5.15971 6.87148 5.02787C6.88593 4.89603 6.84741 4.76385 6.7644 4.66041C6.68139 4.55697 6.56069 4.49074 6.42885 4.47629C6.29701 4.46185 6.16483 4.50036 6.06139 4.58337C3.46199 6.66908 2.15877 9.88597 2.57553 13.1885C2.86155 15.4569 3.95614 17.546 5.65839 19.0724C7.36063 20.5988 9.5563 21.46 11.8423 21.4979L11.1905 22.1445C11.1433 22.1906 11.1058 22.2456 11.08 22.3063C11.0542 22.367 11.0406 22.4322 11.0401 22.4982C11.0396 22.5641 11.0522 22.6295 11.077 22.6906C11.1019 22.7517 11.1386 22.8072 11.1851 22.854C11.2315 22.9009 11.2868 22.9381 11.3476 22.9634C11.4085 22.9888 11.4738 23.0019 11.5397 23.002C11.6057 23.002 11.671 22.989 11.7319 22.9637C11.7928 22.9384 11.8481 22.9013 11.8946 22.8545L13.4783 21.2834C13.525 21.2372 13.562 21.1823 13.5874 21.1217C13.6128 21.0612 13.626 20.9962 13.6263 20.9305C13.6266 20.8649 13.6139 20.7998 13.589 20.7391C13.5641 20.6783 13.5275 20.623 13.4813 20.5764L11.8976 18.9797Z" fill="black"/>
<path d="M12.3969 11.6037C12.3259 11.5765 12.2593 11.5513 12.2019 11.5261C12.1389 11.4982 12.0635 11.4693 11.9802 11.4377C11.5068 11.2579 11.25 11.1158 11.25 10.8806C11.25 10.7767 11.3608 10.6155 11.5725 10.5083C11.7225 10.4325 12.2639 10.2248 12.9538 10.7319C13.0067 10.7713 13.0668 10.7998 13.1308 10.8159C13.1947 10.8319 13.2612 10.8352 13.3264 10.8254C13.3916 10.8157 13.4542 10.7932 13.5107 10.7591C13.5671 10.7251 13.6163 10.6802 13.6553 10.6271C13.6944 10.574 13.7225 10.5137 13.7382 10.4496C13.7538 10.3856 13.7567 10.3191 13.7465 10.254C13.7364 10.1888 13.7134 10.1263 13.679 10.0701C13.6446 10.0139 13.5995 9.96498 13.5461 9.92627C13.2356 9.69471 12.8787 9.53286 12.5 9.45175V8.99908C12.4987 8.86731 12.4454 8.74138 12.3518 8.64865C12.2582 8.55592 12.1317 8.50391 12 8.50391C11.8682 8.50391 11.7417 8.55592 11.6481 8.64865C11.5545 8.74138 11.5012 8.86731 11.5 8.99908V9.47528C11.3692 9.50925 11.2423 9.55636 11.1211 9.61591C10.5837 9.88778 10.25 10.3724 10.25 10.8805C10.25 11.8503 11.1787 12.2031 11.6253 12.3726C11.69 12.397 11.7491 12.4193 11.7981 12.441C11.8697 12.4725 11.9519 12.5042 12.0401 12.5379C12.531 12.7254 12.75 12.8492 12.75 13.0863C12.75 13.1901 12.6392 13.3515 12.4275 13.4584C12.2775 13.5341 11.7364 13.7421 11.0462 13.2348C10.9393 13.1563 10.8057 13.1234 10.6746 13.1434C10.5435 13.1634 10.4257 13.2347 10.3472 13.3415C10.2687 13.4484 10.2358 13.582 10.2558 13.7131C10.2758 13.8442 10.3471 13.9619 10.4539 14.0405C10.7643 14.273 11.1211 14.436 11.5001 14.5183V14.9991C11.5013 15.1308 11.5546 15.2568 11.6482 15.3495C11.7418 15.4422 11.8683 15.4943 12.0001 15.4943C12.1318 15.4943 12.2583 15.4422 12.3519 15.3495C12.4455 15.2568 12.4988 15.1308 12.5 14.9991V14.4935C12.6308 14.4589 12.7578 14.4111 12.8789 14.3508C13.4163 14.079 13.75 13.5945 13.75 13.0864C13.7499 12.1207 12.8698 11.7843 12.3969 11.6037Z" fill="black"/>
<path d="M12 6.5C10.9122 6.5 9.84883 6.82257 8.94436 7.42691C8.03989 8.03126 7.33494 8.89024 6.91866 9.89523C6.50238 10.9002 6.39346 12.0061 6.60568 13.073C6.8179 14.1399 7.34172 15.1199 8.11091 15.8891C8.8801 16.6582 9.8601 17.1821 10.927 17.3943C11.9939 17.6065 13.0997 17.4976 14.1047 17.0813C15.1097 16.665 15.9687 15.9601 16.5731 15.0556C17.1774 14.1511 17.5 13.0878 17.5 12C17.4983 10.5418 16.9183 9.14382 15.8872 8.11273C14.8562 7.08164 13.4582 6.50165 12 6.5ZM12 16.5C11.11 16.5 10.2399 16.2361 9.49992 15.7416C8.7599 15.2471 8.18312 14.5443 7.84253 13.7221C7.50193 12.8998 7.41282 11.995 7.58645 11.1221C7.76009 10.2492 8.18867 9.44734 8.81801 8.818C9.44734 8.18867 10.2492 7.76008 11.1221 7.58645C11.995 7.41282 12.8998 7.50193 13.7221 7.84253C14.5443 8.18312 15.2471 8.7599 15.7416 9.49992C16.2361 10.2399 16.5 11.11 16.5 12C16.4986 13.193 16.024 14.3368 15.1804 15.1804C14.3368 16.024 13.193 16.4986 12 16.5Z" fill="black"/>
</svg>
