<svg width="15" height="14" viewBox="0 0 15 14" fill="none" xmlns="http://www.w3.org/2000/svg">
<path d="M12.0879 5.8211C12.0879 9.0957 7.66665 12.5999 7.66665 12.5999C7.66665 12.5999 3.24545 9.0957 3.24545 5.8211C3.24545 3.3795 5.22505 1.3999 7.66665 1.3999C10.1083 1.3999 12.0879 3.3795 12.0879 5.8211ZM7.66665 2.8811C6.04265 2.8811 4.72665 4.1971 4.72665 5.8211C4.72665 7.4451 6.04265 8.7611 7.66665 8.7611C9.29065 8.7611 10.6067 7.4451 10.6067 5.8211C10.6067 4.1971 9.29065 2.8811 7.66665 2.8811Z" fill="#A855F7"/>
<path d="M7.56166 4.51919C7.31246 4.04459 6.62087 4.05999 6.33247 4.08939C6.32393 4.09042 6.31607 4.09456 6.31039 4.10101C6.30471 4.10747 6.3016 4.11579 6.30166 4.12439V6.69899C6.54666 6.70879 7.15566 6.76479 7.56166 7.05739V4.52059V4.51919ZM9.49926 4.40859C9.43346 4.40299 9.34386 4.39739 9.24166 4.39459V6.80119C9.24166 6.82919 9.23046 6.85579 9.21086 6.87539C9.19126 6.89499 9.16466 6.90479 9.13526 6.90619C9.12826 6.90619 8.13846 6.90199 7.74646 7.35979C7.72686 7.38359 7.69746 7.39619 7.66666 7.39619C7.63586 7.39619 7.60646 7.38219 7.58686 7.35979C7.19486 6.90199 6.20926 6.90479 6.19806 6.90619C6.17028 6.90401 6.14386 6.89324 6.12247 6.87539C6.10277 6.85571 6.09169 6.82903 6.09166 6.80119V4.39459C5.98946 4.39739 5.89987 4.40299 5.83407 4.40859C5.76127 4.41419 5.70667 4.47579 5.70667 4.54859V7.15399C5.70667 7.22959 5.76687 7.29119 5.84247 7.29399C6.17287 7.30379 7.02686 7.35559 7.48046 7.63139C7.49866 7.71679 7.57427 7.78259 7.66527 7.78259C7.75627 7.78259 7.83327 7.71819 7.85006 7.63139C8.30506 7.35559 9.15766 7.30379 9.48806 7.29399C9.56366 7.29119 9.62386 7.22959 9.62386 7.15399V4.54859C9.62401 4.51354 9.611 4.47971 9.58741 4.45379C9.56382 4.42787 9.53137 4.41174 9.49646 4.40859H9.49926ZM9.03166 4.12299C9.03166 4.10479 9.01906 4.08939 9.00086 4.08799C8.71246 4.05859 8.02086 4.04319 7.77166 4.51779V7.05459C8.17766 6.76199 8.78666 6.70739 9.03166 6.69619V4.12159V4.12299Z" fill="#A855F7"/>
</svg>
