<svg width="16" height="14" viewBox="0 0 16 14" fill="none" xmlns="http://www.w3.org/2000/svg">
<path d="M13.8665 0.41721C13.6255 0.413066 13.3872 0.468095 13.1724 0.577472C12.9576 0.68685 12.7729 0.84724 12.6345 1.04459L9.30861 5.8255C9.07807 6.15431 8.86075 6.67586 8.7058 7.2371C8.62423 7.50969 8.57849 7.79173 8.56974 8.07612C8.56596 8.35391 8.60376 8.70539 8.93445 8.93593C9.26515 9.16647 9.60529 9.07955 9.86607 8.97939C10.1268 8.88113 10.3725 8.72995 10.6087 8.55988C11.0811 8.21974 11.4912 7.83613 11.7236 7.50543L15.0495 2.72452C15.2703 2.40388 15.3556 2.00908 15.287 1.62588C15.2183 1.24268 15.0012 0.902045 14.6829 0.677987C14.4431 0.511082 14.1587 0.420214 13.8665 0.41721ZM3.22381 0.589172C2.6758 0.589172 2.22227 1.04459 2.22227 1.59071V3.59189H1.22074C1.08793 3.59189 0.960554 3.64465 0.866642 3.73856C0.77273 3.83247 0.719971 3.95984 0.719971 4.09266C0.719971 4.22547 0.77273 4.35284 0.866642 4.44675C0.960554 4.54066 1.08793 4.59342 1.22074 4.59342H2.22227V6.59649H1.22074C1.08793 6.59649 0.960554 6.64925 0.866642 6.74317C0.77273 6.83708 0.719971 6.96445 0.719971 7.09726C0.719971 7.23007 0.77273 7.35745 0.866642 7.45136C0.960554 7.54527 1.08793 7.59803 1.22074 7.59803H2.22227V9.6011H1.22074C1.08793 9.6011 0.960554 9.65386 0.866642 9.74777C0.77273 9.84168 0.719971 9.96906 0.719971 10.1019C0.719971 10.2347 0.77273 10.3621 0.866642 10.456C0.960554 10.5499 1.08793 10.6026 1.22074 10.6026H2.22227V12.6057C2.22227 13.1537 2.6758 13.6072 3.22381 13.6072H14.2407C14.7849 13.6072 15.2422 13.1537 15.2422 12.6057V5.1112C15.2422 4.97839 15.1895 4.85101 15.0956 4.7571C15.0017 4.66319 14.8743 4.61043 14.7415 4.61043C14.6087 4.61043 14.4813 4.66319 14.3874 4.7571C14.2935 4.85101 14.2407 4.97839 14.2407 5.1112V12.6095H3.22381V10.6026H4.22534C4.35841 10.6026 4.48602 10.5498 4.58011 10.4557C4.6742 10.3616 4.72706 10.234 4.72706 10.1009C4.72706 9.96786 4.6742 9.84025 4.58011 9.74616C4.48602 9.65207 4.35841 9.59921 4.22534 9.59921H3.22381V7.59803H4.22534C4.29111 7.59803 4.35622 7.58508 4.41698 7.55991C4.47774 7.53475 4.53294 7.49786 4.57944 7.45136C4.62594 7.40486 4.66283 7.34965 4.68799 7.2889C4.71316 7.22814 4.72611 7.16302 4.72611 7.09726C4.72611 7.0315 4.71316 6.96638 4.68799 6.90563C4.66283 6.84487 4.62594 6.78967 4.57944 6.74317C4.53294 6.69667 4.47774 6.65978 4.41698 6.63461C4.35622 6.60945 4.29111 6.59649 4.22534 6.59649H3.22381V4.59342H4.22534C4.35816 4.59342 4.48553 4.54066 4.57944 4.44675C4.67335 4.35284 4.72611 4.22547 4.72611 4.09266C4.72611 3.95984 4.67335 3.83247 4.57944 3.73856C4.48553 3.64465 4.35816 3.59189 4.22534 3.59189H3.22381V1.58882H10.7334C10.8662 1.58882 10.9936 1.53606 11.0875 1.44215C11.1814 1.34823 11.2342 1.22086 11.2342 1.08805C11.2342 0.955238 11.1814 0.827866 11.0875 0.733954C10.9936 0.640041 10.8662 0.587282 10.7334 0.587282L3.22381 0.589172ZM13.7569 1.41686C13.8183 1.40614 13.8811 1.40781 13.9418 1.42177C14.0025 1.43572 14.0598 1.46168 14.1103 1.49811C14.3295 1.65307 14.3824 1.93274 14.2275 2.15383L13.9913 2.49398L13.2089 1.97053L13.4546 1.61716C13.4893 1.5655 13.5339 1.52121 13.5858 1.48684C13.6377 1.45246 13.6958 1.42868 13.7569 1.41686ZM12.6364 2.79633L13.4187 3.31599L10.9035 6.93286C10.6416 7.23607 10.3462 7.50866 10.0229 7.74543C9.8868 7.84458 9.74121 7.93003 9.58828 8.00053C9.59584 7.86826 9.61852 7.69818 9.67143 7.50166C9.79804 7.04435 10.0531 6.50768 10.1306 6.39619L12.6364 2.79633Z" fill="black"/>
</svg>
