<svg width="44" height="44" viewBox="0 0 44 44" fill="none" xmlns="http://www.w3.org/2000/svg">
<rect width="44" height="44" rx="22" fill="#CBD5E1"/>
<path fill-rule="evenodd" clip-rule="evenodd" d="M33.04 22.2614C33.04 21.4459 32.9668 20.6618 32.8309 19.9091H22V24.3575H28.1891C27.9225 25.795 27.1123 27.013 25.8943 27.8284V30.7139H29.6109C31.7855 28.7118 33.04 25.7637 33.04 22.2614Z" fill="#4285F4"/>
<path fill-rule="evenodd" clip-rule="evenodd" d="M21.9999 33.4998C25.1049 33.4998 27.7081 32.47 29.6108 30.7137L25.8942 27.8282C24.8644 28.5182 23.5472 28.9259 21.9999 28.9259C19.0047 28.9259 16.4694 26.903 15.5651 24.1848H11.7231V27.1644C13.6154 30.9228 17.5044 33.4998 21.9999 33.4998Z" fill="#34A853"/>
<path fill-rule="evenodd" clip-rule="evenodd" d="M15.5652 24.1851C15.3352 23.4951 15.2045 22.758 15.2045 22.0001C15.2045 21.2421 15.3352 20.5051 15.5652 19.8151V16.8355H11.7232C10.9443 18.388 10.5 20.1444 10.5 22.0001C10.5 23.8557 10.9443 25.6121 11.7232 27.1646L15.5652 24.1851Z" fill="#FBBC05"/>
<path fill-rule="evenodd" clip-rule="evenodd" d="M21.9999 15.0739C23.6883 15.0739 25.2042 15.6541 26.396 16.7936L29.6944 13.4952C27.7029 11.6395 25.0997 10.5 21.9999 10.5C17.5044 10.5 13.6154 13.077 11.7231 16.8355L15.5651 19.815C16.4694 17.0968 19.0047 15.0739 21.9999 15.0739Z" fill="#EA4335"/>
</svg>
