<svg width="38" height="38" viewBox="0 0 38 38" fill="none" xmlns="http://www.w3.org/2000/svg">
<g clip-path="url(#clip0_511_2005)">
<path d="M31.6667 27.3827L30.0536 26.4164C29.5618 26.1223 28.9994 25.9669 28.4264 25.9667H25.9988C25.5019 25.9659 25.007 26.0297 24.5265 26.1565L17.2123 28.12C16.8182 28.2288 16.4561 28.4306 16.1564 28.7086C15.8566 28.9866 15.6281 29.3325 15.4901 29.7173L9.05651 26.2367C8.53474 25.9399 7.92416 25.839 7.33463 25.9522C7.11224 25.9915 6.89658 26.0624 6.69417 26.1626C6.2368 26.3817 5.85724 26.7352 5.60627 27.1759C5.38679 27.5596 5.27136 27.994 5.27139 28.4361C5.26805 28.8792 5.38211 29.3154 5.60198 29.7001C5.82185 30.0849 6.13968 30.4046 6.52318 30.6268L18.0537 37.5257C18.5545 37.8358 19.1318 38.0001 19.7208 38H28.6445C29.043 38.0002 29.4379 37.925 29.8084 37.7784L31.6667 37.0445V38H38V25.3334H31.6667V27.3827ZM29.343 36.6004C29.1211 36.6879 28.8848 36.733 28.6463 36.7334H19.7208C19.3639 36.7331 19.0143 36.6326 18.7118 36.4433L7.16553 29.5363C6.97281 29.425 6.81303 29.2646 6.70243 29.0714C6.59184 28.8783 6.53439 28.6593 6.53592 28.4367C6.53685 28.2145 6.59532 27.9963 6.70565 27.8034C6.83184 27.5846 7.02155 27.4095 7.24961 27.301C7.34985 27.2522 7.45644 27.2177 7.56627 27.1984C7.64635 27.1835 7.72762 27.1759 7.80908 27.1758C8.02679 27.1753 8.24078 27.2321 8.42975 27.3404L15.4059 31.1101C15.414 31.1487 15.414 31.1868 15.4242 31.2254C15.7242 32.331 16.727 33.0988 17.8728 33.1001C18.2254 33.0678 18.5745 33.0055 18.9165 32.9139L25.4966 31.1531L25.17 29.9294L18.6113 31.6824C18.3224 31.7489 17.9498 31.825 17.8728 31.8315C17.5946 31.832 17.324 31.741 17.1027 31.5723C16.8814 31.4037 16.7218 31.1669 16.6485 30.8985C16.6281 30.8218 16.6161 30.7433 16.6117 30.6641C16.6117 30.6641 16.6068 30.5107 16.6117 30.4569C16.6353 30.1982 16.7371 29.9527 16.9035 29.7532C17.07 29.5537 17.2932 29.4095 17.5435 29.3399L24.8546 27.3839C25.2278 27.284 25.6125 27.2334 25.9988 27.2334H28.4264C28.7703 27.2334 29.1077 27.3268 29.4023 27.5033L31.6667 28.859V35.6819L29.343 36.6004ZM32.9333 26.6H36.7333V36.7334H32.9333V26.6ZM26.1213 5.06669L22.724 1.66965C22.196 1.13858 21.568 0.717559 20.8761 0.43096C20.1843 0.144362 19.4425 -0.00211223 18.6936 2.30129e-05H10.731C10.2396 0.000830404 9.75493 0.11525 9.31499 0.334344L7.89553 1.04431C7.61111 1.18745 7.29495 1.25588 6.9768 1.24318L6.33333 1.22061V2.30129e-05H0V13.9334H6.33333V12.0334H7.41016L7.79332 12.2867C8.86559 12.9986 10.1138 13.4003 11.4 13.4474V21.5334H38V5.06669H26.1213ZM5.06667 12.6667H1.26667V1.26669H5.06667V12.6667ZM8.49435 11.2327L7.78984 10.7667H6.33333V2.48791L6.93049 2.50929C7.46065 2.52816 7.9871 2.41407 8.46189 2.17742L9.88008 1.46738C10.1443 1.33537 10.4357 1.26666 10.731 1.26669H18.6935C19.2759 1.26501 19.8528 1.37888 20.3909 1.60171C20.929 1.82455 21.4176 2.15192 21.8283 2.56486L24.3301 5.06669H19.1039L17.5667 3.52975L16.6713 4.42504L21.1453 8.89915C21.6422 9.39394 21.6438 10.198 21.149 10.6953C20.6539 11.1922 19.8499 11.1938 19.3528 10.699L15.6162 6.96234L15.1728 7.34242C13.9485 8.38211 12.1589 8.40871 10.9039 7.40551L10.5369 7.108L9.73877 8.09204L10.1098 8.39288C10.4979 8.70311 10.9336 8.94865 11.4 9.12002V12.1803C10.3634 12.1343 9.35884 11.8067 8.49435 11.2328V11.2327ZM17.5035 10.6399L18.4591 11.5958C19.4512 12.573 21.0438 12.5745 22.0375 11.5989C21.1078 13.0384 21.4746 14.9542 22.8702 15.9484C24.2659 16.9426 26.1964 16.6633 27.2531 15.3147C28.3098 13.9658 28.1191 12.0244 26.8195 10.9074C25.5204 9.79041 23.5721 9.89277 22.3974 11.1396C22.6106 10.8047 22.7407 10.4237 22.7768 10.0283C22.8129 9.63295 22.7539 9.23467 22.6049 8.86669H31.086C31.3583 10.4602 32.6065 11.7084 34.2 11.9808V14.6193C32.6065 14.8917 31.3583 16.1398 31.0859 17.7334H18.3141C18.0417 16.1398 16.7935 14.8917 15.2 14.6193V11.9808C16.1052 11.8283 16.924 11.3517 17.5036 10.6399H17.5035ZM22.8 13.3C22.8 12.2507 23.6507 11.4 24.7 11.4C25.7493 11.4 26.6 12.2507 26.6 13.3C26.6 14.3493 25.7493 15.2 24.7 15.2C23.6507 15.2 22.8 14.3493 22.8 13.3ZM36.7333 20.2667H12.6667V9.38523C13.6707 9.4606 14.6718 9.20482 15.5167 8.65706L16.5971 9.73752C16.3628 10.0559 16.057 10.3149 15.7043 10.4937C15.3517 10.6724 14.962 10.7659 14.5667 10.7667H13.9333V15.8334H14.5667C15.9657 15.8334 17.1 16.9677 17.1 18.3667V19H32.3V18.3667C32.3 16.9677 33.4343 15.8334 34.8333 15.8334H35.4667V10.7667H34.8333C33.4343 10.7667 32.3 9.63239 32.3 8.23336V7.60002H21.6372L20.3705 6.33336H36.7333V20.2667Z" fill="#A855F7"/>
</g>
<defs>
<clipPath id="clip0_511_2005">
<rect width="38" height="38" fill="white"/>
</clipPath>
</defs>
</svg>
