<svg width="16" height="16" viewBox="0 0 16 16" fill="none" xmlns="http://www.w3.org/2000/svg">
<g clip-path="url(#clip0_157_1943)">
<path d="M15.9464 5.53526L8.59434 12.8873C8.56014 12.9215 8.51375 12.9407 8.46539 12.9407C8.41702 12.9407 8.37064 12.9215 8.33643 12.8873L4.2204 8.77126C4.1862 8.73706 4.16699 8.69067 4.16699 8.64231C4.16699 8.59394 4.1862 8.54755 4.2204 8.51335L11.5724 1.16132C11.6066 1.12712 11.653 1.10791 11.7014 1.10791C11.7497 1.10791 11.7961 1.12712 11.8303 1.16132L15.9463 5.27735C15.9633 5.29428 15.9767 5.31438 15.9859 5.33651C15.9951 5.35863 15.9998 5.38235 15.9998 5.4063C15.9998 5.43025 15.9951 5.45396 15.9859 5.47609C15.9767 5.49822 15.9633 5.51832 15.9464 5.53526Z" fill="#5CC45C"/>
<path d="M15.9467 5.27745L14.838 4.1687L7.22803 11.7786L8.33678 12.8874C8.37098 12.9216 8.41736 12.9408 8.46573 12.9408C8.5141 12.9408 8.56048 12.9216 8.59468 12.8874L15.9467 5.53536C15.9809 5.50116 16.0001 5.45477 16.0001 5.4064C16.0001 5.35804 15.9809 5.31165 15.9467 5.27745Z" fill="#4EAD4E"/>
<path d="M5.80073 9.1196C5.96114 8.82282 5.96114 8.46169 5.80073 8.16488C5.7792 8.12504 5.78542 8.07601 5.81745 8.04398L11.1035 2.75788C11.1356 2.72585 11.1846 2.71963 11.2244 2.74119C11.5212 2.9016 11.8823 2.9016 12.1792 2.74116C12.219 2.71963 12.268 2.72585 12.3001 2.75785L14.3502 4.80794C14.3822 4.83997 14.3884 4.88901 14.3669 4.92885C14.2064 5.22566 14.2064 5.58676 14.3669 5.88357C14.3884 5.92341 14.3822 5.97244 14.3502 6.00447L9.06404 11.2906C9.03201 11.3226 8.98298 11.3288 8.94314 11.3073C8.64633 11.1469 8.2852 11.1469 7.98845 11.3073C7.94861 11.3288 7.89957 11.3226 7.86754 11.2906L5.81745 9.24051C5.78542 9.20848 5.7792 9.15941 5.80073 9.1196Z" fill="#A0E557"/>
<path d="M14.3668 5.88375C14.2064 5.58694 14.2064 5.22584 14.3668 4.92903C14.3883 4.88919 14.3821 4.84015 14.3501 4.80812L13.1697 3.62769C12.9576 3.95703 12.9576 4.38406 13.1697 4.7134L7.7727 10.1103C7.44336 9.89831 7.01629 9.89834 6.68701 10.1103L7.86745 11.2908C7.89948 11.3228 7.94851 11.329 7.98836 11.3075C8.28511 11.1471 8.64623 11.1471 8.94304 11.3075C8.98289 11.329 9.03192 11.3228 9.06395 11.2908L14.3501 6.00465C14.3821 5.97265 14.3883 5.92359 14.3668 5.88375Z" fill="#93CC4A"/>
<path d="M11.1441 8.08433C11.7296 7.49878 11.7296 6.54943 11.144 5.9639C10.5585 5.37836 9.60911 5.37838 9.02358 5.96393C8.43805 6.54949 8.43806 7.49884 9.02362 8.08437C9.60917 8.6699 10.5585 8.66989 11.1441 8.08433Z" fill="#F3E8D7"/>
<path d="M8.30544 10.5848L10.5676 8.32269C10.8283 8.062 10.9391 7.75019 10.6784 7.4895C10.2676 6.97929 8.76772 7.38844 8.05625 8.09991C7.73867 8.41747 7.42114 8.73507 7.10366 9.05272C6.998 9.15841 6.85481 9.21779 6.70353 9.21779H6.69575C6.44616 9.21779 6.15381 8.9761 6.08944 8.73494L6.08928 6.64463L6.46256 6.27135L6.87269 5.86122L8.50156 4.23235C7.83144 4.15725 7.16506 4.11663 6.90656 4.08566C6.61919 4.05122 6.37406 4.18 6.15103 4.3645L4.06575 6.00963C3.77151 6.25312 3.55924 6.58118 3.45769 6.94935C3.23003 7.77397 2.7505 9.23263 2.44616 9.81269L0.925781 11.3331L3.55797 13.9653L4.29003 13.2332C4.42761 13.0956 4.59775 12.995 4.78463 12.9408L6.31353 12.426C6.79383 12.2612 7.21664 11.9619 7.53159 11.5636L8.30544 10.5848Z" fill="#FCD7C3"/>
<path d="M7.53197 11.5635L8.30581 10.5849L10.568 8.32269C10.8287 8.06201 10.9395 7.75019 10.6788 7.48951C10.5278 7.30194 10.2296 7.23866 9.8775 7.26894C9.36181 7.31329 8.88125 7.54904 8.51525 7.91504L7.07562 9.35466L6.30178 10.3334C5.98684 10.7317 5.56402 11.031 5.08372 11.1958L3.55481 11.7106C3.36793 11.7648 3.19778 11.8654 3.06019 12.003L2.32812 12.735L3.55831 13.9652L4.29038 13.2332C4.42796 13.0956 4.59809 12.995 4.78497 12.9408L6.31388 12.426C6.79418 12.2612 7.217 11.9618 7.53197 11.5635Z" fill="#FFCDAC"/>
<path d="M3.13119 14.8074L0.0846883 11.7609C0.0578392 11.734 0.036541 11.7021 0.02201 11.6671C0.00747905 11.632 0 11.5944 0 11.5564C0 11.5185 0.00747905 11.4809 0.02201 11.4458C0.036541 11.4107 0.0578392 11.3789 0.0846883 11.352L0.620813 10.8159C0.647656 10.789 0.679525 10.7677 0.7146 10.7532C0.749675 10.7387 0.787269 10.7312 0.825235 10.7312C0.863201 10.7312 0.900795 10.7387 0.93587 10.7532C0.970945 10.7677 1.00281 10.789 1.02966 10.8159L4.07619 13.8624C4.10304 13.8893 4.12434 13.9211 4.13887 13.9562C4.1534 13.9913 4.16088 14.0289 4.16088 14.0668C4.16088 14.1048 4.1534 14.1424 4.13887 14.1775C4.12434 14.2126 4.10304 14.2444 4.07619 14.2713L3.54006 14.8074C3.51322 14.8342 3.48135 14.8555 3.44627 14.87C3.4112 14.8846 3.3736 14.8921 3.33563 14.8921C3.29766 14.8921 3.26007 14.8846 3.22499 14.8701C3.18991 14.8555 3.15804 14.8342 3.13119 14.8074Z" fill="#464C50"/>
<path d="M4.07639 13.8624L3.04311 12.8291L2.09814 13.7741L3.13143 14.8074C3.15827 14.8342 3.19014 14.8555 3.22521 14.87C3.26029 14.8846 3.29788 14.892 3.33585 14.892C3.37381 14.892 3.41141 14.8846 3.44648 14.87C3.48156 14.8555 3.51343 14.8342 3.54027 14.8074L4.07636 14.2713C4.10322 14.2444 4.12452 14.2125 4.13905 14.1775C4.15358 14.1424 4.16107 14.1048 4.16107 14.0668C4.16107 14.0289 4.1536 13.9913 4.13907 13.9562C4.12454 13.9211 4.10324 13.8892 4.07639 13.8624Z" fill="#33393A"/>
<path d="M10.4783 8.25202C10.1781 7.9518 9.6913 7.9518 9.39108 8.25202L9.04952 8.59358C8.89495 8.74814 8.89495 8.99871 9.04952 9.15327L9.3932 9.49696L10.5582 8.33196L10.4783 8.25202Z" fill="#EFEFEF"/>
</g>
<defs>
<clipPath id="clip0_157_1943">
<rect width="16" height="16" fill="white"/>
</clipPath>
</defs>
</svg>
