<svg width="20" height="20" viewBox="0 0 20 20" fill="none" xmlns="http://www.w3.org/2000/svg">
<g clip-path="url(#clip0_134_2031)">
<path d="M10 18.3337C14.6024 18.3337 18.3333 14.6027 18.3333 10.0003C18.3333 5.39795 14.6024 1.66699 10 1.66699C5.39763 1.66699 1.66667 5.39795 1.66667 10.0003C1.66667 14.6027 5.39763 18.3337 10 18.3337Z" stroke="black" stroke-width="1.5" stroke-linecap="round" stroke-linejoin="round"/>
<path d="M7.575 7.50047C7.77092 6.94353 8.15763 6.4739 8.66663 6.17475C9.17563 5.87561 9.77408 5.76626 10.356 5.86607C10.9379 5.96588 11.4657 6.26841 11.8459 6.72008C12.2261 7.17175 12.4342 7.74341 12.4333 8.33381C12.4333 10.0005 9.93333 10.8338 9.93333 10.8338V12.5004" stroke="black" stroke-width="1.5" stroke-linecap="round" stroke-linejoin="round"/>
<path d="M10 14.167H10.0083" stroke="black" stroke-width="1.5" stroke-linecap="round" stroke-linejoin="round"/>
</g>
<defs>
<clipPath id="clip0_134_2031">
<rect width="20" height="20" fill="white"/>
</clipPath>
</defs>
</svg>
