<svg width="14" height="14" viewBox="0 0 14 14" fill="none" xmlns="http://www.w3.org/2000/svg">
<path d="M7 0.109375C4.04482 0.109375 1.64062 2.51357 1.64062 5.46875C1.64062 6.9043 2.51035 8.74781 4.22562 10.9478C5.01147 11.9532 5.8625 12.9058 6.77321 13.7996C6.83427 13.858 6.91551 13.8906 7 13.8906C7.08449 13.8906 7.16573 13.858 7.22679 13.7996C8.1375 12.9058 8.98853 11.9532 9.77438 10.9478C11.4897 8.74781 12.3594 6.9043 12.3594 5.46875C12.3594 2.51357 9.95518 0.109375 7 0.109375ZM7 9.29688C4.88906 9.29688 3.17188 7.57969 3.17188 5.46875C3.17188 3.35781 4.88906 1.64062 7 1.64062C9.11094 1.64062 10.8281 3.35781 10.8281 5.46875C10.8281 7.57969 9.11094 9.29688 7 9.29688Z" fill="#A855F7"/>
<path d="M9.62697 5.00721L7.22072 2.81971C7.16032 2.7648 7.08163 2.73438 7 2.73438C6.91837 2.73438 6.83968 2.7648 6.77928 2.81971L4.37303 5.00721C4.31697 5.05818 4.28027 5.12698 4.26916 5.20194C4.25805 5.27689 4.2732 5.35338 4.31205 5.41843C4.34271 5.46795 4.38567 5.5087 4.43675 5.53668C4.48784 5.56467 4.5453 5.57894 4.60354 5.57812H4.92188V7.65624C4.92188 7.74326 4.95645 7.82672 5.01798 7.88826C5.07952 7.9498 5.16298 7.98437 5.25 7.98437H6.01563C6.10265 7.98437 6.18611 7.9498 6.24764 7.88826C6.30918 7.82672 6.34375 7.74326 6.34375 7.65624V6.45312C6.34375 6.36609 6.37832 6.28263 6.43986 6.2211C6.50139 6.15956 6.58485 6.12499 6.67188 6.12499H7.32813C7.41515 6.12499 7.49861 6.15956 7.56014 6.2211C7.62168 6.28263 7.65625 6.36609 7.65625 6.45312V7.65624C7.65625 7.74326 7.69082 7.82672 7.75236 7.88826C7.81389 7.9498 7.89735 7.98437 7.98438 7.98437H8.75C8.83702 7.98437 8.92048 7.9498 8.98202 7.88826C9.04356 7.82672 9.07813 7.74326 9.07813 7.65624V5.57812H9.39646C9.4547 5.57894 9.51216 5.56467 9.56325 5.53668C9.61433 5.5087 9.65729 5.46795 9.68795 5.41843C9.7268 5.35338 9.74196 5.27689 9.73084 5.20194C9.71973 5.12698 9.68303 5.05818 9.62697 5.00721Z" fill="#A855F7"/>
</svg>
