<svg width="20" height="20" viewBox="0 0 20 20" fill="none" xmlns="http://www.w3.org/2000/svg">
<path d="M18.3333 4.76998V1.66665C18.3333 1.44563 18.2455 1.23367 18.0893 1.07739C17.933 0.921109 17.721 0.833312 17.5 0.833312C17.279 0.833312 17.067 0.921109 16.9107 1.07739C16.7545 1.23367 16.6667 1.44563 16.6667 1.66665V3.63831L12.3308 0.712478C11.6432 0.245664 10.8312 -0.00390625 10 -0.00390625C9.16885 -0.00390625 8.35684 0.245664 7.66917 0.712478L1.83583 4.64915C1.27024 5.03041 0.807007 5.54483 0.486887 6.14714C0.166766 6.74946 -0.000431867 7.42121 8.37738e-07 8.10331V15.8333C8.37738e-07 18.1308 1.86917 20 4.16667 20H6.66667C6.88768 20 7.09964 19.9122 7.25592 19.7559C7.4122 19.5996 7.5 19.3877 7.5 19.1666V12.5C7.5 12.0408 7.87333 11.6666 8.33333 11.6666H11.6667C12.1267 11.6666 12.5 12.0408 12.5 12.5V19.1666C12.5 19.3877 12.5878 19.5996 12.7441 19.7559C12.9004 19.9122 13.1123 20 13.3333 20H15.8333C18.1308 20 20 18.1308 20 15.8333V8.10331C20.0003 7.4564 19.8499 6.81832 19.5606 6.2397C19.2712 5.66109 18.8511 5.15787 18.3333 4.76998ZM18.3333 15.8333C18.3333 17.2116 17.2117 18.3333 15.8333 18.3333H14.1667V12.5C14.1667 11.1216 13.045 9.99998 11.6667 9.99998H8.33333C6.955 9.99998 5.83333 11.1216 5.83333 12.5V18.3333H4.16667C2.78833 18.3333 1.66667 17.2116 1.66667 15.8333V8.10331C1.66667 7.27081 2.07833 6.49581 2.76833 6.03081L8.60167 2.09415C9.01403 1.81398 9.50106 1.66419 9.99959 1.66419C10.4981 1.66419 10.9851 1.81398 11.3975 2.09415L17.2308 6.03081C17.5703 6.25945 17.8484 6.56807 18.0405 6.92948C18.2326 7.29089 18.3329 7.69401 18.3325 8.10331L18.3333 15.8333Z" fill="black"/>
</svg>
