<svg width="22" height="22" viewBox="0 0 22 22" fill="none" xmlns="http://www.w3.org/2000/svg">
<path d="M19.7893 16.2559C20.8189 14.5786 21.3626 12.6485 21.3599 10.6805C21.3626 8.71234 20.8189 6.78187 19.7893 5.10453L19.7836 5.09517C18.8284 3.53834 17.49 2.25247 15.8962 1.36044C14.3023 0.468398 12.5064 0 10.6799 0C8.85341 0 7.05745 0.468398 5.46362 1.36044C3.86979 2.25247 2.53135 3.53834 1.5762 5.09517L1.57044 5.10453C0.543461 6.78299 0 8.71249 0 10.6802C0 12.6479 0.543461 14.5774 1.57044 16.2559L1.57645 16.2655C2.53163 17.8223 3.87007 19.1081 5.46389 20C7.0577 20.892 8.85363 21.3604 10.6801 21.3603C12.5065 21.3603 14.3024 20.8919 15.8962 19.9999C17.49 19.1079 18.8284 17.822 19.7836 16.2653L19.7893 16.2559ZM12.045 19.5297C11.8415 19.7261 11.6072 19.888 11.3514 20.0088C11.1415 20.1085 10.9121 20.1602 10.6798 20.1602C10.4474 20.1602 10.218 20.1085 10.0081 20.0088C9.52154 19.7602 9.10501 19.3937 8.7966 18.9427C8.1668 18.0325 7.70009 17.0197 7.41732 15.9497C8.50372 15.8828 9.59124 15.8487 10.6799 15.8474C11.768 15.8474 12.8556 15.8815 13.9427 15.9497C13.7861 16.4998 13.5906 17.0381 13.3576 17.5605C13.0507 18.2952 12.605 18.9638 12.045 19.5297ZM1.22076 11.2802H5.52852C5.5566 12.4822 5.68691 13.6797 5.91805 14.8596C4.74045 14.9633 3.56588 15.1057 2.39436 15.2868C1.70826 14.0559 1.3072 12.6867 1.22076 11.2802ZM2.39436 6.07389C3.5654 6.25533 4.74036 6.39773 5.91924 6.50109C5.6877 7.68088 5.55715 8.87825 5.52901 10.0802H1.22076C1.30724 8.67378 1.7083 7.30468 2.39436 6.07389ZM9.31476 1.83069C9.51831 1.63427 9.7526 1.47246 10.0084 1.35165C10.2182 1.25194 10.4477 1.20021 10.68 1.20021C10.9124 1.20021 11.1418 1.25194 11.3516 1.35165C11.8382 1.60018 12.2548 1.96671 12.5632 2.41773C13.193 3.32791 13.6597 4.34067 13.9424 5.41077C12.856 5.47765 11.7685 5.51173 10.6799 5.51301C9.59172 5.51301 8.50412 5.47893 7.41708 5.41077C7.57363 4.8606 7.76916 4.32228 8.0022 3.79989C8.30907 3.06522 8.75472 2.39661 9.31476 1.83069ZM20.139 10.0802H15.8312C15.8032 8.8782 15.6729 7.68076 15.4417 6.50085C16.6193 6.39717 17.7939 6.25477 18.9654 6.07365C19.6515 7.30452 20.0526 8.67369 20.139 10.0802ZM7.125 14.7662C6.89036 13.6182 6.75784 12.4516 6.729 11.2802H14.631C14.6024 12.4517 14.4702 13.6183 14.2357 14.7665C13.0517 14.6887 11.8664 14.649 10.6799 14.6474C9.49428 14.6474 8.30932 14.687 7.125 14.7662ZM14.2348 6.59421C14.4694 7.74224 14.6019 8.9088 14.6308 10.0802H6.729C6.75757 8.90874 6.88985 7.7421 7.12429 6.59397C8.30829 6.67173 9.49356 6.71141 10.6801 6.71301C11.8657 6.71301 13.0507 6.67333 14.235 6.59397L14.2348 6.59421ZM15.8308 11.2802H20.139C20.0525 12.6866 19.6515 14.0557 18.9654 15.2865C17.7942 15.1051 16.6192 14.9627 15.4405 14.8593C15.6721 13.6795 15.8026 12.4822 15.8308 11.2802ZM18.2459 4.96941C17.2219 5.11709 16.1949 5.23405 15.165 5.32029C14.9799 4.63102 14.7412 3.95729 14.451 3.30525C14.186 2.70527 13.8526 2.1379 13.4574 1.61445C15.3672 2.20021 17.0432 3.37442 18.2459 4.96941ZM3.97668 3.97677C5.07227 2.88014 6.42013 2.069 7.90212 1.61445C7.87956 1.64373 7.85652 1.67157 7.83444 1.70109C7.07268 2.79763 6.5178 4.02419 6.19717 5.32029C5.16709 5.23309 4.1394 5.11613 3.11412 4.96941C3.37851 4.61912 3.66672 4.28746 3.97668 3.97677ZM3.11412 16.391C4.13796 16.2433 5.16492 16.1264 6.195 16.0401C6.38009 16.7294 6.61882 17.4031 6.909 18.0552C7.17399 18.6552 7.5074 19.2225 7.9026 19.746C5.99278 19.1602 4.31685 17.986 3.11412 16.391ZM17.3836 17.3837C16.288 18.4803 14.9401 19.2914 13.4581 19.746C13.4807 19.7167 13.5037 19.6889 13.5258 19.6593C14.2876 18.5628 14.8424 17.3362 15.1631 16.0401C16.1932 16.1273 17.2208 16.2443 18.2461 16.391C17.9817 16.7413 17.6935 17.073 17.3836 17.3837Z" fill="black"/>
</svg>
