<svg width="20" height="20" viewBox="0 0 20 20" fill="none" xmlns="http://www.w3.org/2000/svg">
<path d="M1.66644 10L1.01644 9.47917L0.599773 10L1.01644 10.5208L1.66644 10ZM9.16644 10.8333C9.38745 10.8333 9.59941 10.7455 9.7557 10.5893C9.91198 10.433 9.99977 10.221 9.99977 10C9.99977 9.77899 9.91198 9.56702 9.7557 9.41074C9.59941 9.25446 9.38745 9.16667 9.16644 9.16667V10.8333ZM4.34977 5.3125L1.01644 9.47917L2.31644 10.5208L5.64977 6.35417L4.34977 5.3125ZM1.01644 10.5208L4.34977 14.6875L5.64977 13.6458L2.31644 9.47917L1.01644 10.5208ZM1.66644 10.8333H9.16644V9.16667H1.66644V10.8333Z" fill="black"/>
<path d="M8.33334 6.77714V6.15797C8.33334 4.80881 8.33334 4.13464 8.72834 3.66881C9.12334 3.20297 9.78834 3.09131 11.1183 2.86881L12.5117 2.63714C15.2142 2.18714 16.565 1.96214 17.4492 2.71047C18.3333 3.45964 18.3333 4.82964 18.3333 7.56881V12.4313C18.3333 15.1713 18.3333 16.5413 17.45 17.2896C16.565 18.0396 15.2142 17.8146 12.5117 17.3638L11.1183 17.1313C9.78834 16.9096 9.12334 16.7988 8.72834 16.333C8.33334 15.8663 8.33334 15.1913 8.33334 13.8421V13.388" stroke="black" stroke-width="2"/>
</svg>
