<svg width="34" height="35" viewBox="0 0 34 35" fill="none" xmlns="http://www.w3.org/2000/svg">
<path d="M32.1406 11.0865L29.6667 9.1073V5.62397C29.6667 4.31455 28.6011 3.24897 27.2917 3.24897H22.3438L19.474 0.953137C18.0395 -0.195572 15.959 -0.196363 14.5261 0.953137L11.6555 3.24976H6.70755C5.39813 3.24976 4.33255 4.31535 4.33255 5.62476V9.1073L1.85859 11.0857C1.39431 11.4552 1.01962 11.9249 0.762566 12.4598C0.505511 12.9946 0.37275 13.5806 0.374219 14.174V30.9573C0.374219 33.1399 2.14993 34.9156 4.33255 34.9156H29.6667C31.8493 34.9156 33.625 33.1399 33.625 30.9573V14.1748C33.6264 13.5815 33.4935 12.9956 33.2365 12.461C32.9794 11.9263 32.6048 11.4559 32.1406 11.0865ZM29.6667 11.1348L31.1511 12.3231C31.3094 12.4497 31.4432 12.5962 31.5619 12.7537L29.6659 14.2698V11.134L29.6667 11.1348ZM15.5156 2.18893C15.938 1.85423 16.4611 1.6721 17 1.6721C17.5389 1.6721 18.062 1.85423 18.4844 2.18893L19.8096 3.24897H14.1896L15.5156 2.18893ZM5.91668 5.62476C5.91668 5.18855 6.27213 4.8331 6.70834 4.8331H27.2917C27.7279 4.8331 28.0833 5.18855 28.0833 5.62476V15.5372L19.9688 22.0281L19.474 21.6323C18.7701 21.0743 17.8982 20.7707 17 20.7707C16.1018 20.7707 15.23 21.0743 14.5261 21.6323L14.0313 22.0281L5.91668 15.5372V5.62476ZM2.84897 12.3231L4.33334 11.1348V14.2706L2.4373 12.7545C2.55605 12.597 2.69064 12.4497 2.84897 12.3231ZM1.95834 30.9581V14.398L12.7638 23.0414L2.05968 31.6065C1.99563 31.3962 1.96152 31.1779 1.95834 30.9581ZM29.6667 33.3331H4.33334C3.84713 33.3326 3.37293 33.1819 2.97564 32.9016L15.5164 22.8673C15.9388 22.5326 16.4619 22.3504 17.0008 22.3504C17.5397 22.3504 18.0628 22.5326 18.4852 22.8673L31.0252 32.9008C30.6279 33.1811 30.1537 33.3318 29.6675 33.3323L29.6667 33.3331ZM32.0417 30.9581C32.0417 31.1845 31.9997 31.3991 31.9403 31.6065L21.2354 23.0414L32.0409 14.398L32.0417 30.9581Z" fill="#8C52FF"/>
<path d="M20.2617 18.1798C20.4416 18.0714 20.5712 17.896 20.6218 17.6922C20.6724 17.4883 20.64 17.2727 20.5316 17.0928C20.478 17.0037 20.4073 16.926 20.3237 16.8643C20.24 16.8025 20.145 16.7578 20.0441 16.7327C19.8402 16.6821 19.6246 16.7145 19.4447 16.8228C18.7063 17.2668 17.8608 17.5008 16.9992 17.4997C14.3796 17.4997 12.2492 15.3693 12.2492 12.7497C12.2492 10.1301 14.3796 7.99972 16.9992 7.99972C19.6189 7.99972 21.7492 10.1301 21.7492 12.7719C21.7453 13.6182 20.9821 14.3338 20.082 14.3338C19.9802 14.3342 19.8794 14.3136 19.7858 14.2735C19.6923 14.2333 19.608 14.1744 19.5381 14.1003C19.4678 14.0268 19.4134 13.9396 19.3782 13.8441C19.3431 13.7486 19.328 13.6469 19.3339 13.5453L19.4542 11.2495C19.4764 10.8181 19.3188 10.3906 19.0211 10.0771C18.7235 9.76355 18.3055 9.58384 17.8732 9.58384H17.5201C15.5782 9.58384 13.9149 11.1616 13.8136 13.1076C13.7748 13.8525 14.0321 14.5563 14.5387 15.0899C14.7883 15.3535 15.0894 15.563 15.4233 15.7053C15.7573 15.8476 16.1169 15.9197 16.4799 15.9172C17.2003 15.9172 17.8669 15.6322 18.3791 15.1754L18.3902 15.1904C18.6085 15.4196 18.871 15.6021 19.1617 15.7272C19.4524 15.8522 19.7655 15.9171 20.082 15.918C21.8664 15.918 23.3254 14.5104 23.3334 12.7513C23.3334 9.25926 20.4921 6.41797 17 6.41797C13.508 6.41797 10.6667 9.25926 10.6667 12.7513C10.6667 16.2433 13.508 19.0846 17 19.0846C18.1519 19.0846 19.28 18.7719 20.2617 18.1813V18.1798ZM17.7719 13.1044V13.1076C17.7363 13.7718 17.1449 14.3323 16.4799 14.3323C16.1727 14.3323 15.8909 14.2135 15.6874 13.999C15.5854 13.8902 15.5067 13.7617 15.4565 13.6212C15.4062 13.4808 15.3854 13.3316 15.3953 13.1828C15.4523 12.0895 16.4261 11.1664 17.5209 11.1664H17.874L17.7719 13.1044Z" fill="#8C52FF"/>
</svg>
