<svg width="20" height="20" viewBox="0 0 20 20" fill="none" xmlns="http://www.w3.org/2000/svg">
<path d="M6.04163 6.66663C6.04163 6.50087 6.10747 6.34189 6.22468 6.22468C6.34189 6.10747 6.50087 6.04163 6.66663 6.04163H9.99996C10.1657 6.04163 10.3247 6.10747 10.4419 6.22468C10.5591 6.34189 10.625 6.50087 10.625 6.66663C10.625 6.83239 10.5591 6.99136 10.4419 7.10857C10.3247 7.22578 10.1657 7.29163 9.99996 7.29163H6.66663C6.50087 7.29163 6.34189 7.22578 6.22468 7.10857C6.10747 6.99136 6.04163 6.83239 6.04163 6.66663ZM6.04163 9.99996C6.04163 9.8342 6.10747 9.67523 6.22468 9.55802C6.34189 9.44081 6.50087 9.37496 6.66663 9.37496H13.3333C13.4991 9.37496 13.658 9.44081 13.7752 9.55802C13.8924 9.67523 13.9583 9.8342 13.9583 9.99996C13.9583 10.1657 13.8924 10.3247 13.7752 10.4419C13.658 10.5591 13.4991 10.625 13.3333 10.625H6.66663C6.50087 10.625 6.34189 10.5591 6.22468 10.4419C6.10747 10.3247 6.04163 10.1657 6.04163 9.99996Z" fill="black"/>
<path fill-rule="evenodd" clip-rule="evenodd" d="M8.30496 1.04163H11.695C12.8375 1.04163 13.7341 1.04163 14.4541 1.09996C15.1875 1.16079 15.7933 1.28413 16.3416 1.56413C17.2433 2.02353 17.9764 2.75661 18.4358 3.65829C18.7158 4.20663 18.8391 4.81246 18.8991 5.54579C18.9583 6.26579 18.9583 7.16246 18.9583 8.30496V9.44246C18.9583 10.7333 18.9583 11.52 18.765 12.1816C18.539 12.9523 18.123 13.6538 17.5551 14.2217C16.9872 14.7896 16.2856 15.2057 15.515 15.4316C14.8533 15.625 14.0666 15.625 12.7758 15.625H12.1458C11.4233 15.6298 10.7197 15.8554 10.1291 16.2716L10.0875 16.3008L7.91246 17.855C6.65829 18.75 5.00996 17.4566 5.58329 16.0266C5.60119 15.9821 5.60787 15.9339 5.60276 15.8863C5.59765 15.8386 5.5809 15.7929 5.55398 15.7532C5.52706 15.7136 5.49081 15.6811 5.4484 15.6587C5.40599 15.6364 5.35874 15.6248 5.31079 15.625H4.80996C3.81054 15.625 2.85204 15.2279 2.14535 14.5212C1.43865 13.8145 1.04163 12.856 1.04163 11.8566V8.30496C1.04163 7.16246 1.04163 6.26579 1.09996 5.54579C1.16079 4.81246 1.28413 4.20663 1.56413 3.65829C2.02353 2.75661 2.75661 2.02353 3.65829 1.56413C4.20663 1.28413 4.81246 1.16079 5.54579 1.10079C6.26579 1.04163 7.16246 1.04163 8.30496 1.04163ZM5.64746 2.34663C4.99163 2.39996 4.56829 2.50329 4.22579 2.67746C3.55909 3.01706 3.01706 3.55909 2.67746 4.22579C2.50246 4.56829 2.39996 4.99163 2.34663 5.64746C2.29246 6.31079 2.29163 7.15579 2.29163 8.33329V11.8566C2.29163 12.5245 2.55695 13.1651 3.02923 13.6374C3.26308 13.8712 3.5407 14.0567 3.84623 14.1833C4.15177 14.3098 4.47925 14.375 4.80996 14.375H5.31079C5.56302 14.3747 5.81146 14.4364 6.03434 14.5545C6.25721 14.6726 6.44773 14.8435 6.58919 15.0523C6.73066 15.2612 6.81876 15.5015 6.84577 15.7523C6.87278 16.0031 6.83788 16.2566 6.74413 16.4908C6.63496 16.7625 6.94746 17.0075 7.18579 16.8375L9.40829 15.25C10.2077 14.6865 11.1603 14.3812 12.1383 14.375H12.6533C14.105 14.375 14.6966 14.3683 15.1633 14.2316C15.7328 14.0646 16.2512 13.7571 16.6708 13.3375C17.0905 12.9178 17.3979 12.3994 17.565 11.83C17.7016 11.3633 17.7083 10.7716 17.7083 9.31996V8.33329C17.7083 7.15579 17.7083 6.31079 17.6533 5.64746C17.6 4.99163 17.4966 4.56829 17.3225 4.22579C16.9831 3.55921 16.4414 3.0172 15.775 2.67746C15.4316 2.50246 15.0083 2.39996 14.3525 2.34663C13.6891 2.29246 12.8441 2.29163 11.6666 2.29163H8.33329C7.15579 2.29163 6.31079 2.29163 5.64746 2.34663Z" fill="black"/>
</svg>
