<svg width="20" height="20" viewBox="0 0 20 20" fill="none" xmlns="http://www.w3.org/2000/svg">
<path d="M12.9188 16.4872H2.33438C1.94063 16.4872 1.59063 16.281 1.39688 15.9372C1.20313 15.5903 1.21251 15.1841 1.42188 14.8497L2.15626 13.6716C2.43159 13.2277 2.57769 12.7158 2.57813 12.1935V7.91846C2.57813 6.57158 3.10313 5.30283 4.05313 4.34658C4.57188 3.82471 5.21251 3.41846 5.90626 3.17158C5.91876 3.16533 5.93126 3.15908 5.94688 3.15283C7.01876 2.77783 8.23126 2.77783 9.30313 3.15283C9.31563 3.15908 9.33126 3.16221 9.34376 3.17158C9.70938 3.30283 10.0688 3.48096 10.4063 3.70283C10.55 3.79658 10.5906 3.99033 10.4969 4.13408C10.4031 4.27783 10.2094 4.31846 10.0656 4.22471C9.75626 4.02471 9.43126 3.86221 9.10001 3.74658C9.08751 3.74033 9.07188 3.73721 9.05938 3.73096C8.14376 3.41846 7.10938 3.41846 6.19376 3.73096C6.18126 3.73721 6.16876 3.74346 6.15626 3.74658C5.53438 3.96221 4.96251 4.32158 4.50001 4.78721C4.08855 5.19806 3.76242 5.68622 3.54039 6.22361C3.31835 6.76101 3.2048 7.33701 3.20626 7.91846V12.1903C3.20626 12.8278 3.02813 13.456 2.69063 13.9997L1.95626 15.1778C1.86876 15.3185 1.86563 15.4872 1.94688 15.6341C2.02813 15.7778 2.17188 15.8622 2.33751 15.8622H12.9219C13.0875 15.8622 13.2313 15.7747 13.3125 15.631C13.3906 15.4872 13.3875 15.3185 13.3 15.181L12.5688 13.9997C12.5298 13.9294 12.5193 13.8469 12.5394 13.7691C12.5595 13.6913 12.6088 13.6242 12.677 13.5817C12.7452 13.5391 12.8271 13.5244 12.9058 13.5406C12.9846 13.5567 13.0541 13.6025 13.1 13.6685L13.8313 14.8497C14.0406 15.1841 14.05 15.5903 13.8594 15.9341C13.6625 16.281 13.3125 16.4872 12.9188 16.4872Z" fill="black"/>
<path d="M7.97501 19.1029H7.27189C5.65626 19.1029 4.34064 17.7873 4.34064 16.1717C4.34064 15.9998 4.48126 15.8592 4.65314 15.8592H10.5938C10.7656 15.8592 10.9063 15.9998 10.9063 16.1717C10.9063 17.7904 9.59064 19.1029 7.97501 19.1029ZM4.98751 16.4842C5.14064 17.6092 6.10626 18.4779 7.27189 18.4779H7.97501C9.14064 18.4779 10.1063 17.6092 10.2594 16.4842H4.98751ZM9.20001 3.7623C9.02814 3.7623 8.88751 3.62168 8.88751 3.4498V2.77793C8.88751 2.44355 8.75626 2.1248 8.51564 1.8873C8.27883 1.65201 7.95884 1.51952 7.62501 1.51855C7.29072 1.51855 6.97007 1.65114 6.73339 1.88723C6.49672 2.12332 6.36334 2.44364 6.36251 2.77793V3.4498C6.36251 3.62168 6.22189 3.7623 6.05001 3.7623C5.87814 3.7623 5.73751 3.62168 5.73751 3.4498V2.77793C5.73751 1.74043 6.58439 0.893555 7.62501 0.893555C8.12189 0.893555 8.60939 1.09355 8.95939 1.44355C9.13513 1.61843 9.2745 1.82638 9.36944 2.05541C9.46437 2.28444 9.513 2.53 9.51251 2.77793V3.4498C9.51251 3.6248 9.37189 3.7623 9.20001 3.7623ZM12.9938 13.1904C12.9199 13.1908 12.8482 13.1649 12.7916 13.1174C12.7349 13.0699 12.697 13.0039 12.6844 12.9311L12.5219 11.9529C12.4938 11.9436 12.4656 11.9342 12.4375 11.9217L11.675 12.5561C11.5531 12.6561 11.3781 12.6498 11.2625 12.5436L9.78126 11.1686C9.72579 11.117 9.69105 11.0469 9.68357 10.9715C9.67609 10.8962 9.69638 10.8207 9.74064 10.7592L10.3156 9.9498C10.3031 9.92168 10.2906 9.89355 10.2781 9.86855L9.29376 9.77793C9.13751 9.7623 9.01564 9.63418 9.00939 9.47793L8.93439 7.45605C8.92814 7.2998 9.04064 7.1623 9.19376 7.1373L10.1688 6.9748C10.1781 6.94668 10.1875 6.92168 10.2 6.89355L9.56876 6.13105C9.46876 6.00918 9.47501 5.83418 9.58126 5.71855L10.9563 4.2373C11.0625 4.12168 11.2406 4.10605 11.3656 4.19355L12.175 4.76855C12.2 4.75605 12.2281 4.74355 12.2531 4.73418L12.3438 3.74668C12.3594 3.59043 12.4875 3.46855 12.6438 3.4623L14.6656 3.3873C14.7413 3.38403 14.8156 3.40862 14.8743 3.45642C14.933 3.50423 14.9722 3.57192 14.9844 3.64668L15.15 4.6248C15.1781 4.63418 15.2063 4.64355 15.2313 4.65605L15.9938 4.0248C16.1156 3.9248 16.2906 3.93105 16.4063 4.0373L17.8875 5.4123C18.0031 5.51855 18.0219 5.69355 17.9281 5.82168L17.3531 6.62793C17.3656 6.65605 17.3781 6.68105 17.3906 6.70918L18.3781 6.7998C18.5344 6.81543 18.6563 6.94355 18.6625 7.0998L18.7375 9.12168C18.7438 9.27793 18.6313 9.41543 18.4781 9.44043L17.5031 9.60293C17.4938 9.63105 17.4813 9.65918 17.4719 9.6873L18.1031 10.4498C18.2031 10.5717 18.1969 10.7467 18.0906 10.8623L16.7156 12.3436C16.6094 12.4592 16.4344 12.4779 16.3063 12.3873L15.4969 11.8123C15.4688 11.8248 15.4406 11.8373 15.4156 11.8498L15.325 12.8342C15.3094 12.9904 15.1813 13.1123 15.025 13.1186L13.0031 13.1936C13.0031 13.1904 13 13.1904 12.9938 13.1904ZM12.3844 11.2467C12.4281 11.2467 12.4719 11.2561 12.5125 11.2748C12.6313 11.3279 12.7531 11.3748 12.8844 11.4123C13 11.4467 13.0844 11.5436 13.1063 11.6592L13.2563 12.5529L14.7281 12.4998L14.8094 11.5998C14.8219 11.4811 14.9 11.3779 15.0125 11.3373C15.139 11.2891 15.2621 11.2327 15.3813 11.1686C15.4322 11.142 15.4895 11.1299 15.5468 11.1338C15.6042 11.1377 15.6593 11.1573 15.7063 11.1904L16.4438 11.7123L17.4469 10.6342L16.8688 9.9373C16.7938 9.84668 16.775 9.72168 16.8219 9.6123C16.8781 9.47793 16.925 9.35293 16.9625 9.23105C16.9969 9.11543 17.0938 9.03105 17.2094 9.00918L18.1031 8.85918L18.0469 7.3873L17.1469 7.30293C17.0281 7.29043 16.925 7.2123 16.8844 7.10293C16.8373 6.97804 16.7809 6.85686 16.7156 6.74043C16.6594 6.63418 16.6656 6.50605 16.7344 6.40918L17.2594 5.67168L16.1813 4.67168L15.4844 5.2498C15.3938 5.3248 15.2688 5.34355 15.1594 5.29668C15.0406 5.24356 14.9156 5.19668 14.7781 5.15605C14.6656 5.12168 14.5844 5.0248 14.5625 4.90918L14.4094 4.01543L12.9375 4.07168L12.8563 4.9748C12.8438 5.09355 12.7656 5.19668 12.6563 5.2373C12.5313 5.28418 12.4125 5.33731 12.2906 5.40293C12.2397 5.42952 12.1824 5.44155 12.1251 5.43769C12.0677 5.43383 12.0126 5.41423 11.9656 5.38105L11.2281 4.85918L10.225 5.9373L10.8031 6.63418C10.8781 6.7248 10.8969 6.8498 10.85 6.95605C10.7875 7.0998 10.7438 7.21855 10.7094 7.33418C10.675 7.4498 10.5781 7.53418 10.4625 7.55605L9.57189 7.70605L9.62501 9.17793L10.525 9.2623C10.6438 9.2748 10.7469 9.35293 10.7875 9.46543C10.8313 9.58105 10.8875 9.70605 10.9563 9.83418C11.0125 9.9373 11.0031 10.0654 10.9344 10.1592L10.4125 10.8967L11.4906 11.8967L12.1875 11.3186C12.2438 11.2717 12.3125 11.2467 12.3844 11.2467Z" fill="black"/>
<path d="M13.8344 10.9188C13.17 10.9198 12.53 10.6685 12.0437 10.2157C11.7898 9.98097 11.5847 9.69834 11.4404 9.38405C11.2962 9.06976 11.2155 8.73002 11.2031 8.38442C11.15 6.93442 12.2844 5.70942 13.7375 5.6563C15.1875 5.60005 16.4125 6.73755 16.4656 8.19067C16.5187 9.64067 15.3844 10.8657 13.9312 10.9188H13.8344ZM13.8375 6.27817H13.7625C12.6562 6.3188 11.7906 7.25317 11.8312 8.35942C11.85 8.89692 12.0781 9.39067 12.4719 9.7563C12.8656 10.1219 13.375 10.3157 13.9125 10.2907C15.0187 10.25 15.8844 9.31567 15.8437 8.20942C15.8031 7.1313 14.9094 6.27817 13.8375 6.27817Z" fill="black"/>
</svg>
