<svg width="15" height="14" viewBox="0 0 15 14" fill="none" xmlns="http://www.w3.org/2000/svg">
<path d="M7.33334 0.4375C5.94144 0.439063 4.60699 0.992689 3.62276 1.97692C2.63853 2.96114 2.08491 4.29559 2.08334 5.6875C2.08334 9.68931 6.99428 13.3652 7.20341 13.5196C7.24103 13.5474 7.28657 13.5624 7.33334 13.5624C7.38012 13.5624 7.42566 13.5474 7.46328 13.5196C7.67241 13.3652 12.5833 9.68931 12.5833 5.6875C12.5818 4.29559 12.0282 2.96114 11.0439 1.97692C10.0597 0.992689 8.72525 0.439063 7.33334 0.4375ZM7.33334 9.625C6.55458 9.625 5.7933 9.39407 5.14579 8.96141C4.49827 8.52875 3.99359 7.9138 3.69557 7.19432C3.39755 6.47483 3.31957 5.68313 3.4715 4.91933C3.62343 4.15553 3.99844 3.45394 4.54911 2.90327C5.09978 2.3526 5.80138 1.97759 6.56518 1.82566C7.32898 1.67373 8.12068 1.7517 8.84016 2.04972C9.55964 2.34774 10.1746 2.85242 10.6073 3.49994C11.0399 4.14746 11.2708 4.90874 11.2708 5.6875C11.2697 6.73143 10.8545 7.73228 10.1163 8.47045C9.37812 9.20863 8.37728 9.62384 7.33334 9.625ZM4.92709 4.59375V7.875C4.92727 7.93296 4.95037 7.9885 4.99136 8.02949C5.03234 8.07047 5.08788 8.09358 5.14584 8.09375H6.23959V4.375H5.14584C5.08788 4.37517 5.03234 4.39828 4.99136 4.43926C4.95037 4.48025 4.92727 4.53579 4.92709 4.59375ZM5.36459 5.46875C5.36459 5.41073 5.38764 5.35509 5.42866 5.31407C5.46969 5.27305 5.52533 5.25 5.58334 5.25C5.64136 5.25 5.697 5.27305 5.73802 5.31407C5.77905 5.35509 5.80209 5.41073 5.80209 5.46875V5.6875C5.80209 5.74552 5.77905 5.80116 5.73802 5.84218C5.697 5.8832 5.64136 5.90625 5.58334 5.90625C5.52533 5.90625 5.46969 5.8832 5.42866 5.84218C5.38764 5.80116 5.36459 5.74552 5.36459 5.6875V5.46875ZM5.36459 6.5625C5.36459 6.50448 5.38764 6.44884 5.42866 6.40782C5.46969 6.3668 5.52533 6.34375 5.58334 6.34375C5.64136 6.34375 5.697 6.3668 5.73802 6.40782C5.77905 6.44884 5.80209 6.50448 5.80209 6.5625V6.78125C5.80209 6.83927 5.77905 6.89491 5.73802 6.93593C5.697 6.97695 5.64136 7 5.58334 7C5.52533 7 5.46969 6.97695 5.42866 6.93593C5.38764 6.89491 5.36459 6.83927 5.36459 6.78125V6.5625ZM9.52084 3.28125H6.89584C6.83788 3.28142 6.78234 3.30453 6.74136 3.34551C6.70037 3.3865 6.67727 3.44204 6.67709 3.5V8.09375H7.55209V6.78125C7.55227 6.72329 7.57537 6.66775 7.61635 6.62676C7.65734 6.58578 7.71288 6.56267 7.77084 6.5625H8.64584C8.70381 6.56267 8.75935 6.58578 8.80033 6.62676C8.84132 6.66775 8.86442 6.72329 8.86459 6.78125V8.09375H9.52084C9.57881 8.09358 9.63435 8.07047 9.67533 8.02949C9.71632 7.9885 9.73942 7.93296 9.73959 7.875V3.5C9.73942 3.44204 9.71632 3.3865 9.67533 3.34551C9.63435 3.30453 9.57881 3.28142 9.52084 3.28125ZM7.98959 5.6875C7.98959 5.74552 7.96655 5.80116 7.92552 5.84218C7.8845 5.8832 7.82886 5.90625 7.77084 5.90625C7.71283 5.90625 7.65719 5.8832 7.61616 5.84218C7.57514 5.80116 7.55209 5.74552 7.55209 5.6875V5.46875C7.55209 5.41073 7.57514 5.35509 7.61616 5.31407C7.65719 5.27305 7.71283 5.25 7.77084 5.25C7.82886 5.25 7.8845 5.27305 7.92552 5.31407C7.96655 5.35509 7.98959 5.41073 7.98959 5.46875V5.6875ZM7.98959 4.59375C7.98959 4.65177 7.96655 4.70741 7.92552 4.74843C7.8845 4.78945 7.82886 4.8125 7.77084 4.8125C7.71283 4.8125 7.65719 4.78945 7.61616 4.74843C7.57514 4.70741 7.55209 4.65177 7.55209 4.59375V4.375C7.55209 4.31698 7.57514 4.26134 7.61616 4.22032C7.65719 4.1793 7.71283 4.15625 7.77084 4.15625C7.82886 4.15625 7.8845 4.1793 7.92552 4.22032C7.96655 4.26134 7.98959 4.31698 7.98959 4.375V4.59375ZM8.86459 5.6875C8.86459 5.74552 8.84155 5.80116 8.80052 5.84218C8.7595 5.8832 8.70386 5.90625 8.64584 5.90625C8.58783 5.90625 8.53219 5.8832 8.49116 5.84218C8.45014 5.80116 8.42709 5.74552 8.42709 5.6875V5.46875C8.42709 5.41073 8.45014 5.35509 8.49116 5.31407C8.53219 5.27305 8.58783 5.25 8.64584 5.25C8.70386 5.25 8.7595 5.27305 8.80052 5.31407C8.84155 5.35509 8.86459 5.41073 8.86459 5.46875V5.6875ZM8.86459 4.59375C8.86459 4.65177 8.84155 4.70741 8.80052 4.74843C8.7595 4.78945 8.70386 4.8125 8.64584 4.8125C8.58783 4.8125 8.53219 4.78945 8.49116 4.74843C8.45014 4.70741 8.42709 4.65177 8.42709 4.59375V4.375C8.42709 4.31698 8.45014 4.26134 8.49116 4.22032C8.53219 4.1793 8.58783 4.15625 8.64584 4.15625C8.70386 4.15625 8.7595 4.1793 8.80052 4.22032C8.84155 4.26134 8.86459 4.31698 8.86459 4.375V4.59375Z" fill="#A855F7"/>
</svg>
