<svg width="38" height="38" viewBox="0 0 38 38" fill="none" xmlns="http://www.w3.org/2000/svg">
<g clip-path="url(#clip0_511_2030)">
<path d="M29.9721 11.1681V11.655C29.9721 11.8125 30.0347 11.9635 30.146 12.0749C30.2574 12.1862 30.4084 12.2488 30.5659 12.2488C30.7233 12.2488 30.8744 12.1862 30.9857 12.0749C31.0971 11.9635 31.1596 11.8125 31.1596 11.655V11.1693C32.1547 10.9615 32.8126 10.2502 32.8126 9.2907C32.8144 8.59007 32.5336 7.37526 30.6543 7.11282C29.7222 6.94598 29.5707 6.57311 29.6242 6.05595C29.7014 5.56017 30.2506 5.32445 30.7315 5.36304C30.9453 5.37789 31.444 5.46754 31.4517 5.97282C31.4559 6.30057 31.748 6.55648 32.0532 6.55826C32.1312 6.55725 32.2083 6.54088 32.28 6.51007C32.3517 6.47926 32.4166 6.43462 32.471 6.3787C32.5255 6.32279 32.5683 6.25669 32.5972 6.18419C32.6261 6.1117 32.6403 6.03422 32.6392 5.9562C32.6274 5.07864 32.0449 4.41898 31.1596 4.22957V3.80029C31.1596 3.64282 31.0971 3.4918 30.9857 3.38045C30.8744 3.2691 30.7233 3.20654 30.5659 3.20654C30.4084 3.20654 30.2574 3.2691 30.146 3.38045C30.0347 3.4918 29.9721 3.64282 29.9721 3.80029V4.26817C29.2394 4.47242 28.5845 5.01392 28.4468 5.90217C28.3696 6.64317 28.5252 7.93754 30.4673 8.28548C31.4868 8.42798 31.6263 8.85132 31.6251 9.28892C31.6251 10.018 30.7191 10.0305 30.5445 10.0501C29.9086 10.0501 29.5173 9.69979 29.4722 9.08823C29.4681 9.00923 29.4483 8.93184 29.4139 8.8606C29.3795 8.78936 29.3312 8.72571 29.2719 8.67339C29.2126 8.62107 29.1434 8.58113 29.0684 8.55593C28.9934 8.53072 28.9142 8.52075 28.8353 8.52661C28.7564 8.53246 28.6795 8.55403 28.609 8.59002C28.5386 8.62602 28.476 8.67574 28.4251 8.73624C28.3741 8.79675 28.3358 8.86683 28.3123 8.94236C28.2888 9.0179 28.2806 9.09737 28.2882 9.17611C28.3654 10.2122 29.0203 10.955 29.9721 11.1687V11.1681ZM8.88271 4.71882H13.9593C14.1167 4.71882 14.2678 4.65627 14.3791 4.54492C14.4905 4.43357 14.553 4.28255 14.553 4.12507C14.553 3.9676 14.4905 3.81658 14.3791 3.70523C14.2678 3.59388 14.1167 3.53132 13.9593 3.53132H8.88271C8.72524 3.53132 8.57422 3.59388 8.46287 3.70523C8.35152 3.81658 8.28896 3.9676 8.28896 4.12507C8.28896 4.28255 8.35152 4.43357 8.46287 4.54492C8.57422 4.65627 8.72524 4.71882 8.88271 4.71882ZM13.2278 33.2004H9.61243C9.45496 33.2004 9.30394 33.263 9.19259 33.3743C9.08124 33.4857 9.01868 33.6367 9.01868 33.7942C9.01868 33.9516 9.08124 34.1027 9.19259 34.214C9.30394 34.3254 9.45496 34.3879 9.61243 34.3879H13.2278C13.3853 34.3879 13.5363 34.3254 13.6476 34.214C13.759 34.1027 13.8215 33.9516 13.8215 33.7942C13.8215 33.6367 13.759 33.4857 13.6476 33.3743C13.5363 33.263 13.3853 33.2004 13.2278 33.2004ZM29.7833 23.1625C29.6351 23.1062 29.4707 23.1103 29.3255 23.1741C29.1804 23.2378 29.0661 23.3561 29.0073 23.5033C28.9487 23.6495 28.9506 23.813 29.0126 23.9578C29.0745 24.1026 29.1915 24.2169 29.3377 24.2755C29.4839 24.334 29.6474 24.3321 29.7922 24.2702C29.937 24.2082 30.0513 24.0913 30.1099 23.945L30.1182 23.9243C30.1467 23.8523 30.1607 23.7754 30.1592 23.698C30.1578 23.6206 30.141 23.5443 30.1099 23.4734C30.0787 23.4026 30.0338 23.3386 29.9778 23.2852C29.9217 23.2318 29.8556 23.1901 29.7833 23.1625ZM11.421 11.9566C7.46781 11.9566 4.25146 15.1724 4.25146 19.1244C4.25146 23.0776 7.46781 26.2939 11.421 26.2939C15.3736 26.2939 18.5887 23.0776 18.5887 19.1244C18.5887 15.1724 15.3736 11.9566 11.421 11.9566ZM11.421 25.1064C8.12272 25.1064 5.43896 22.4227 5.43896 19.1244C5.43896 15.8267 8.12272 13.1441 11.421 13.1441C14.7187 13.1441 17.4012 15.8267 17.4012 19.1244C17.4012 22.4233 14.7187 25.1064 11.421 25.1064Z" fill="#A855F7"/>
<path d="M35.6048 15.6904H22.2478V5.21665C22.2466 4.15505 21.8243 3.13728 21.0736 2.38661C20.3229 1.63594 19.3052 1.21366 18.2436 1.2124H4.598C3.53639 1.21366 2.51863 1.63594 1.76796 2.38661C1.01729 3.13728 0.595007 4.15505 0.59375 5.21665V33.0327C0.595007 34.0943 1.01729 35.112 1.76796 35.8627C2.51863 36.6134 3.53639 37.0356 4.598 37.0369H18.2436C19.3053 37.0358 20.3232 36.6136 21.074 35.8629C21.8248 35.1122 22.2471 34.0944 22.2484 33.0327V31.7561H35.6048C36.0822 31.7555 36.5398 31.5656 36.8775 31.2282C37.2152 30.8907 37.4053 30.4332 37.4062 29.9558V17.4918C37.4058 17.0142 37.2158 16.5563 36.8781 16.2186C36.5404 15.8808 36.0824 15.6909 35.6048 15.6904ZM1.78125 7.44559H21.0603V30.6612H1.78125V7.44559ZM22.2478 21.9747C22.626 21.689 23.0872 21.5347 23.5612 21.5353C24.1413 21.5362 24.6974 21.7672 25.1075 22.1776C25.5175 22.588 25.7481 23.1443 25.7486 23.7244C25.7479 24.3044 25.5173 24.8604 25.1072 25.2704C24.6971 25.6805 24.1411 25.9112 23.5612 25.9118C23.0838 25.9118 22.626 25.7574 22.2484 25.4724L22.2478 21.9747ZM22.2478 26.8268C22.6628 27.0053 23.1095 27.0982 23.5612 27.0999C24.4561 27.099 25.314 26.743 25.9468 26.1102C26.5795 25.4773 26.9353 24.6193 26.9361 23.7244C26.9354 22.8293 26.5797 21.971 25.947 21.3379C25.3143 20.7047 24.4563 20.3484 23.5612 20.3472C23.1097 20.349 22.6632 20.4419 22.2484 20.6203V19.5522H31.0044C31.1217 20.1188 31.4021 20.6387 31.8113 21.0479C32.2204 21.457 32.7404 21.7375 33.307 21.8547V25.5912C32.7404 25.7084 32.2204 25.9889 31.8113 26.398C31.4021 26.8072 31.1217 27.3271 31.0044 27.8937H22.2484L22.2478 26.8268ZM4.59859 2.3999H18.2442C18.991 2.40069 19.7071 2.69769 20.2352 3.22574C20.7634 3.7538 21.0606 4.46979 21.0615 5.21665V6.25809H1.78125V5.21665C1.78219 4.46989 2.07926 3.75399 2.6073 3.22595C3.13534 2.69791 3.85183 2.40085 4.59859 2.3999ZM18.2448 35.8494H4.598C3.85124 35.8485 3.13534 35.5514 2.6073 35.0234C2.07926 34.4953 1.78219 33.7794 1.78125 33.0327V31.8487H21.0603V33.0327C21.0594 33.7793 20.7624 34.4951 20.2345 35.0231C19.7066 35.5512 18.9908 35.8483 18.2442 35.8494H18.2448ZM36.2188 29.9547C36.2188 30.2931 35.9432 30.5686 35.6048 30.5686H22.2478V29.0818H31.5376C31.6951 29.0818 31.8461 29.0193 31.9575 28.9079C32.0688 28.7966 32.1314 28.6456 32.1314 28.4881C32.1317 28.0189 32.3182 27.5691 32.65 27.2373C32.9817 26.9055 33.4316 26.719 33.9007 26.7187C34.0582 26.7187 34.2092 26.6562 34.3206 26.5448C34.4319 26.4335 34.4945 26.2824 34.4945 26.125V21.3215C34.4945 21.1641 34.4319 21.013 34.3206 20.9017C34.2092 20.7903 34.0582 20.7278 33.9007 20.7278C33.4318 20.7273 32.9822 20.5408 32.6506 20.2092C32.3189 19.8776 32.1324 19.428 32.132 18.959C32.132 18.8015 32.0694 18.6505 31.9581 18.5392C31.8467 18.4278 31.6957 18.3652 31.5382 18.3652H22.2484V16.8779H35.6048C35.9432 16.8779 36.2188 17.1534 36.2188 17.4918V29.9547Z" fill="#A855F7"/>
<path d="M30.5148 14.4992C34.2471 14.4992 37.2835 11.4634 37.2835 7.73223C37.2835 3.99933 34.2471 0.962891 30.5148 0.962891C26.7825 0.962891 23.746 3.99933 23.746 7.73164C23.746 11.4634 26.7825 14.4992 30.5148 14.4992ZM30.5148 2.15039C33.5928 2.15039 36.096 4.65423 36.096 7.73223C36.096 10.809 33.5928 13.3117 30.5148 13.3117C27.4368 13.3117 24.9335 10.809 24.9335 7.73223C24.9335 4.65423 27.4368 2.15039 30.5148 2.15039ZM13.8162 15.508C13.6046 15.5198 13.3976 15.5734 13.207 15.6659C13.0164 15.7583 12.846 15.8877 12.7058 16.0465L10.0061 19.0818L9.55244 18.6798C9.38906 18.5331 9.19817 18.4204 8.99085 18.3481C8.78352 18.2758 8.56391 18.2455 8.34475 18.2588C8.12439 18.2707 7.90858 18.3262 7.70983 18.4221C7.51108 18.518 7.33335 18.6524 7.18694 18.8175C6.89232 19.1498 6.74149 19.5854 6.76754 20.0287C6.79358 20.472 6.99437 20.887 7.32588 21.1825L9.12079 22.779C9.35175 22.9839 9.70207 23.2493 10.1272 23.2493C10.1509 23.2493 10.1753 23.2481 10.1996 23.2463C10.7013 23.2107 11.019 22.836 11.3551 22.4394C11.4281 22.3539 11.5065 22.2613 11.5926 22.1633L15.1224 18.1947C15.4067 17.8738 15.5521 17.4532 15.5267 17.0252C15.5013 16.5973 15.3073 16.1968 14.987 15.9117C14.8283 15.7703 14.6431 15.6617 14.4421 15.5924C14.2411 15.5231 14.0283 15.4944 13.8162 15.508ZM14.2348 17.4056L10.7061 21.3736C10.6123 21.4787 10.528 21.5791 10.449 21.6717C10.3332 21.8083 10.1937 21.9727 10.11 22.0434C10.0382 21.9995 9.97099 21.9486 9.90929 21.8914L8.11497 20.2954C8.01963 20.2086 7.96198 20.088 7.95432 19.9594C7.94667 19.8307 7.98962 19.7041 8.074 19.6066C8.11996 19.5548 8.17649 19.5134 8.23978 19.4852C8.30308 19.4571 8.37167 19.4428 8.44094 19.4434C8.55969 19.4434 8.6725 19.4861 8.76335 19.5669L9.66229 20.3637C9.78 20.4679 9.93425 20.5212 10.0912 20.5118C10.2481 20.5025 10.395 20.4313 10.4995 20.3138L13.5947 16.8344C13.6322 16.7924 13.6777 16.7583 13.7284 16.7338C13.7792 16.7094 13.8343 16.6952 13.8905 16.6921C13.9467 16.6889 14.003 16.6969 14.0562 16.7155C14.1094 16.7341 14.1583 16.763 14.2003 16.8006C14.2423 16.8381 14.2765 16.8836 14.3009 16.9343C14.3253 16.9851 14.3395 17.0401 14.3427 17.0964C14.3458 17.1526 14.3378 17.2089 14.3192 17.2621C14.3006 17.3152 14.2717 17.3642 14.2342 17.4062L14.2348 17.4056Z" fill="#A855F7"/>
</g>
<defs>
<clipPath id="clip0_511_2030">
<rect width="38" height="38" fill="white"/>
</clipPath>
</defs>
</svg>
