<svg width="24" height="24" viewBox="0 0 24 24" fill="none" xmlns="http://www.w3.org/2000/svg">
<path d="M6.79155 1.50244C6.17007 1.50319 5.57426 1.75041 5.1348 2.18986C4.69535 2.62931 4.44814 3.22512 4.44739 3.8466V20.165C4.44739 21.4547 5.50183 22.5092 6.79155 22.5092H17.2113C17.8338 22.5092 18.4309 22.2625 18.8719 21.8231C19.3128 21.3837 19.5617 20.7875 19.564 20.165V3.8466C19.5617 3.22411 19.3128 2.62788 18.8719 2.18851C18.4309 1.74914 17.8338 1.50244 17.2113 1.50244H6.79155ZM6.79155 2.25359H17.2113C18.0957 2.25359 18.81 2.96223 18.81 3.8466V20.165C18.81 20.3746 18.7686 20.582 18.6881 20.7755C18.6077 20.969 18.4898 21.1447 18.3412 21.2925C18.1927 21.4402 18.0164 21.5572 17.8224 21.6366C17.6285 21.716 17.4208 21.7563 17.2113 21.7552H6.79155C6.58238 21.7559 6.37513 21.7153 6.1817 21.6357C5.98828 21.5561 5.81249 21.439 5.66446 21.2913C5.51642 21.1435 5.39905 20.9679 5.31909 20.7746C5.23913 20.5814 5.19816 20.3742 5.19854 20.165V3.8466C5.19779 3.63719 5.23848 3.42971 5.31827 3.2361C5.39806 3.04249 5.51538 2.86658 5.66345 2.7185C5.81152 2.57043 5.98743 2.45312 6.18104 2.37333C6.37465 2.29354 6.58214 2.25284 6.79155 2.25359ZM10.9867 6.37784C10.8687 6.37886 10.7522 6.40442 10.6446 6.4529C10.5371 6.50137 10.4408 6.5717 10.3618 6.65941C10.2829 6.74713 10.2231 6.8503 10.1863 6.96237C10.1494 7.07445 10.1362 7.19297 10.1476 7.3104L10.8619 14.0169C10.8877 14.2525 10.9994 14.4703 11.1756 14.6287C11.3518 14.7871 11.5802 14.8751 11.8172 14.8758H12.3756C12.6113 14.8745 12.838 14.7851 13.0111 14.6251C13.1842 14.4651 13.2912 14.2461 13.311 14.0112L13.8637 7.30473C13.8727 7.18692 13.8573 7.06854 13.8185 6.95692C13.7798 6.84531 13.7185 6.74286 13.6385 6.65593C13.5585 6.569 13.4614 6.49946 13.3534 6.45162C13.2454 6.40378 13.1287 6.37867 13.0105 6.37784H10.9867ZM10.9867 7.07797H13.0105C13.1069 7.07797 13.1721 7.1545 13.1636 7.24804L12.6222 13.9517C12.6185 14.0141 12.5908 14.0727 12.5447 14.115C12.4987 14.1573 12.4381 14.1801 12.3756 14.1785H11.82C11.7548 14.1802 11.6914 14.1572 11.6425 14.1141C11.5936 14.071 11.5628 14.0109 11.5564 13.946L10.8421 7.2367C10.8396 7.21623 10.8416 7.19545 10.848 7.17583C10.8543 7.15621 10.8649 7.13821 10.8789 7.1231C10.893 7.10798 10.9101 7.09611 10.9292 7.08832C10.9483 7.08052 10.9689 7.07699 10.9895 7.07797H10.9867ZM11.2985 15.6808C11.1721 15.688 11.0532 15.7429 10.9658 15.8345C10.8785 15.9261 10.8292 16.0474 10.8279 16.174V17.1292C10.8279 17.3985 11.0519 17.6309 11.3211 17.6309H12.6874C12.8192 17.6287 12.945 17.575 13.0377 17.4812C13.1304 17.3874 13.1827 17.2611 13.1834 17.1292V16.174C13.1819 16.0432 13.1291 15.9181 13.0363 15.8259C12.9435 15.7336 12.8182 15.6815 12.6874 15.6808H11.2985ZM11.5252 16.3781H12.4861V16.9336H11.5252V16.3781Z" fill="#A855F7"/>
</svg>
