<svg width="20" height="20" viewBox="0 0 20 20" fill="none" xmlns="http://www.w3.org/2000/svg">
<path d="M1.76031 10.6103C1.49861 10.8706 1.29113 11.1802 1.14989 11.5212C1.00865 11.8622 0.936464 12.2278 0.937501 12.5969V16.5625C0.91349 17.499 1.1479 18.4239 1.615 19.2359C1.66088 19.305 1.7323 19.353 1.81355 19.3693C1.89481 19.3857 1.97924 19.3692 2.04828 19.3233C2.11732 19.2774 2.16531 19.206 2.18169 19.1247C2.19807 19.0435 2.1815 18.959 2.13563 18.89C1.74109 18.1789 1.54326 17.3755 1.5625 16.5625V12.5969C1.56175 12.3099 1.61789 12.0257 1.72769 11.7606C1.83749 11.4955 1.99877 11.2549 2.20219 11.0525L4.6875 8.56687V9.48094C4.6875 9.56382 4.72043 9.6433 4.77903 9.70191C4.83764 9.76051 4.91712 9.79344 5 9.79344C5.08288 9.79344 5.16237 9.76051 5.22097 9.70191C5.27958 9.6433 5.3125 9.56382 5.3125 9.48094V2.1875C5.31275 1.93894 5.4116 1.70062 5.58736 1.52486C5.76312 1.3491 6.00144 1.25025 6.25 1.25H13.75C13.9986 1.25025 14.2369 1.3491 14.4126 1.52486C14.5884 1.70062 14.6873 1.93894 14.6875 2.1875V14.0625C14.6873 14.3111 14.5884 14.5494 14.4126 14.7251C14.2369 14.9009 13.9986 14.9998 13.75 15H7.87063C7.78775 15 7.70826 15.0329 7.64966 15.0915C7.59105 15.1501 7.55813 15.2296 7.55813 15.3125C7.55813 15.3954 7.59105 15.4749 7.64966 15.5335C7.70826 15.5921 7.78775 15.625 7.87063 15.625H9.67781C9.65907 16.4569 9.36447 17.259 8.84031 17.9053C8.78275 17.964 8.75035 18.0428 8.75 18.125V19.0625C8.75 19.1454 8.78293 19.2249 8.84153 19.2835C8.90014 19.3421 8.97962 19.375 9.0625 19.375C9.14538 19.375 9.22487 19.3421 9.28347 19.2835C9.34208 19.2249 9.375 19.1454 9.375 19.0625V18.2434C9.94946 17.489 10.272 16.5729 10.2969 15.625H13.75C14.1642 15.6245 14.5614 15.4597 14.8543 15.1668C15.1472 14.8739 15.312 14.4767 15.3125 14.0625V2.1875C15.312 1.77325 15.1472 1.37611 14.8543 1.08319C14.5614 0.790276 14.1642 0.625496 13.75 0.625H6.25C5.83575 0.625496 5.43861 0.790276 5.14569 1.08319C4.85278 1.37611 4.688 1.77325 4.6875 2.1875V7.68313L1.76031 10.6103ZM9.28344 7.90406C9.34202 7.96266 9.37494 8.04214 9.37494 8.125C9.37494 8.20786 9.34202 8.28734 9.28344 8.34594L8.30281 9.32688C8.24388 9.3838 8.16494 9.4153 8.083 9.41459C8.00106 9.41387 7.92269 9.38101 7.86475 9.32307C7.80681 9.26513 7.77394 9.18675 7.77323 9.10481C7.77252 9.02288 7.80401 8.94394 7.86094 8.885L8.62031 8.125L6.84844 6.3525C6.75625 6.26231 6.68286 6.15473 6.63252 6.03599C6.58218 5.91725 6.55589 5.7897 6.55518 5.66073C6.55446 5.53176 6.57934 5.40393 6.62835 5.28464C6.67737 5.16534 6.74956 5.05696 6.84075 4.96575C6.93193 4.87454 7.04031 4.80233 7.15959 4.75328C7.27887 4.70424 7.40669 4.67934 7.53566 4.68002C7.66463 4.68071 7.79219 4.70697 7.91094 4.75728C8.02969 4.80759 8.13729 4.88095 8.2275 4.97312L10 6.74563L11.7725 4.97312C11.9554 4.79021 12.2035 4.68745 12.4622 4.68745C12.7209 4.68745 12.969 4.79021 13.1519 4.97312C13.3348 5.15604 13.4376 5.40413 13.4376 5.66281C13.4376 5.9215 13.3348 6.16958 13.1519 6.3525L11.3794 8.125L13.1519 9.8975C13.3348 10.0804 13.4376 10.3285 13.4376 10.5872C13.4376 10.8459 13.3348 11.094 13.1519 11.2769C12.969 11.4598 12.7209 11.5626 12.4622 11.5626C12.2035 11.5626 11.9554 11.4598 11.7725 11.2769L10 9.50437L9.23875 10.2656C9.18011 10.3242 9.1006 10.3571 9.0177 10.3571C8.93481 10.3571 8.85532 10.3241 8.79672 10.2655C8.73812 10.2068 8.70522 10.1273 8.70525 10.0444C8.70528 9.96152 8.73824 9.88203 8.79688 9.82344L9.77906 8.84156C9.83767 8.78298 9.91714 8.75007 10 8.75007C10.0829 8.75007 10.1623 8.78298 10.2209 8.84156L12.2144 10.835C12.2801 10.9007 12.3692 10.9376 12.4622 10.9376C12.5551 10.9376 12.6443 10.9007 12.71 10.835C12.7757 10.7693 12.8126 10.6801 12.8126 10.5872C12.8126 10.4942 12.7757 10.4051 12.71 10.3394L10.7166 8.34594C10.658 8.28734 10.6251 8.20786 10.6251 8.125C10.6251 8.04214 10.658 7.96266 10.7166 7.90406L12.71 5.91062C12.7425 5.87808 12.7684 5.83945 12.786 5.79693C12.8036 5.75441 12.8126 5.70884 12.8126 5.66281C12.8126 5.61679 12.8036 5.57122 12.786 5.5287C12.7684 5.48618 12.7425 5.44754 12.71 5.415C12.6775 5.38246 12.6388 5.35664 12.5963 5.33903C12.5538 5.32142 12.5082 5.31235 12.4622 5.31235C12.4162 5.31235 12.3706 5.32142 12.3281 5.33903C12.2856 5.35664 12.2469 5.38246 12.2144 5.415L10.2209 7.40844C10.1623 7.46702 10.0829 7.49993 10 7.49993C9.91714 7.49993 9.83767 7.46702 9.77906 7.40844L7.78563 5.415C7.7199 5.34928 7.63076 5.31235 7.53781 5.31235C7.44487 5.31235 7.35573 5.34928 7.29 5.415C7.22428 5.48072 7.18735 5.56986 7.18735 5.66281C7.18735 5.75576 7.22428 5.8449 7.29 5.91062L9.28344 7.90406ZM5.63813 10.1659C5.7876 10.0143 5.96576 9.89384 6.16223 9.8117C6.3587 9.72956 6.56955 9.68734 6.7825 9.6875H6.78625C6.99873 9.68691 7.20922 9.72851 7.4055 9.80989C7.60178 9.89127 7.77995 10.0108 7.92969 10.1616L7.95281 10.185C8.10695 10.3379 8.22929 10.5199 8.31279 10.7203C8.39628 10.9208 8.43929 11.1358 8.43932 11.3529C8.43934 11.57 8.3964 11.785 8.31296 11.9855C8.22951 12.186 8.10722 12.368 7.95313 12.5209C7.19043 13.2778 6.42907 14.036 5.66906 14.7956C6.1943 14.9384 6.65805 15.2498 6.98889 15.682C7.31973 16.1142 7.49932 16.6432 7.5 17.1875C7.5 17.2704 7.46708 17.3499 7.40847 17.4085C7.34987 17.4671 7.27038 17.5 7.1875 17.5C7.10462 17.5 7.02514 17.4671 6.96653 17.4085C6.90793 17.3499 6.875 17.2704 6.875 17.1875C6.87415 16.9426 6.8249 16.7002 6.7301 16.4743C6.63529 16.2485 6.4968 16.0436 6.32257 15.8714C6.14834 15.6992 5.9418 15.5632 5.71484 15.4711C5.48787 15.379 5.24494 15.3326 5 15.3347C4.9382 15.3347 4.8778 15.3163 4.82642 15.282C4.77504 15.2477 4.735 15.1989 4.71135 15.1418C4.6877 15.0847 4.68152 15.0219 4.69357 14.9612C4.70562 14.9006 4.73537 14.845 4.77906 14.8012C4.77906 14.8012 6.41906 13.1613 7.51344 12.0772C7.60879 11.9833 7.6845 11.8713 7.73617 11.7479C7.78783 11.6244 7.81442 11.492 7.81438 11.3581C7.81484 11.2221 7.7882 11.0873 7.73599 10.9616C7.68378 10.8359 7.60707 10.7219 7.51031 10.6263L7.48688 10.6028C7.39511 10.5105 7.28593 10.4373 7.16566 10.3874C7.0454 10.3376 6.91643 10.3121 6.78625 10.3125H6.78375C6.65317 10.3124 6.52388 10.3384 6.40342 10.3888C6.28297 10.4392 6.17377 10.5132 6.08219 10.6062L3.34688 13.3672C3.31817 13.3971 3.28379 13.4211 3.24574 13.4376C3.20769 13.4541 3.16673 13.4629 3.12525 13.4634C3.08377 13.4639 3.04261 13.4562 3.00415 13.4406C2.96569 13.4251 2.93072 13.402 2.90126 13.3728C2.87181 13.3436 2.84846 13.3088 2.83258 13.2705C2.81671 13.2322 2.80862 13.1911 2.8088 13.1496C2.80897 13.1081 2.8174 13.0671 2.8336 13.0289C2.84979 12.9907 2.87343 12.9561 2.90313 12.9272L5.63813 10.1659ZM3.125 5.3125H1.25C1.16712 5.3125 1.08764 5.27958 1.02903 5.22097C0.970425 5.16237 0.937501 5.08288 0.937501 5C0.937501 4.91712 0.970425 4.83763 1.02903 4.77903C1.08764 4.72042 1.16712 4.6875 1.25 4.6875H3.125C3.20788 4.6875 3.28737 4.72042 3.34597 4.77903C3.40458 4.83763 3.4375 4.91712 3.4375 5C3.4375 5.08288 3.40458 5.16237 3.34597 5.22097C3.28737 5.27958 3.20788 5.3125 3.125 5.3125ZM2.96406 6.29469C2.99925 6.27267 3.03848 6.25788 3.07945 6.25118C3.12042 6.24449 3.16231 6.24603 3.20268 6.2557C3.24305 6.26538 3.28109 6.283 3.31457 6.30754C3.34805 6.33208 3.37631 6.36305 3.39769 6.39863C3.41908 6.43421 3.43316 6.4737 3.43911 6.51478C3.44506 6.55587 3.44277 6.59772 3.43236 6.63791C3.42196 6.6781 3.40365 6.71581 3.37851 6.74885C3.35337 6.78188 3.3219 6.80958 3.28594 6.83031L1.72344 7.76781C1.68825 7.78983 1.64902 7.80462 1.60805 7.81132C1.56708 7.81801 1.52519 7.81647 1.48482 7.8068C1.44445 7.79712 1.40642 7.7795 1.37293 7.75496C1.33945 7.73042 1.31119 7.69945 1.28981 7.66387C1.26843 7.62829 1.25435 7.5888 1.24839 7.54772C1.24244 7.50663 1.24473 7.46478 1.25514 7.42459C1.26554 7.3844 1.28385 7.34669 1.30899 7.31365C1.33413 7.28062 1.3656 7.25292 1.40156 7.23219L2.96406 6.29469ZM3.125 3.75C3.06839 3.75 3.01285 3.73455 2.96438 3.70531L1.40188 2.76781C1.33245 2.72436 1.28285 2.6554 1.26376 2.57575C1.24467 2.4961 1.25761 2.41214 1.29979 2.34194C1.34198 2.27174 1.41004 2.22091 1.48933 2.20038C1.56862 2.17985 1.6528 2.19128 1.72375 2.23219L3.28625 3.16969C3.34484 3.20492 3.39026 3.25838 3.41555 3.32189C3.44083 3.38541 3.4446 3.45546 3.42627 3.52131C3.40793 3.58717 3.36851 3.6452 3.31404 3.68651C3.25956 3.72781 3.19305 3.75012 3.12469 3.75H3.125ZM16.875 4.6875H18.75C18.8329 4.6875 18.9124 4.72042 18.971 4.77903C19.0296 4.83763 19.0625 4.91712 19.0625 5C19.0625 5.08288 19.0296 5.16237 18.971 5.22097C18.9124 5.27958 18.8329 5.3125 18.75 5.3125H16.875C16.7921 5.3125 16.7126 5.27958 16.654 5.22097C16.5954 5.16237 16.5625 5.08288 16.5625 5C16.5625 4.91712 16.5954 4.83763 16.654 4.77903C16.7126 4.72042 16.7921 4.6875 16.875 4.6875ZM17.0359 6.29469L18.5984 7.23219C18.6344 7.25292 18.6659 7.28062 18.691 7.31365C18.7162 7.34669 18.7345 7.3844 18.7449 7.42459C18.7553 7.46478 18.7576 7.50663 18.7516 7.54772C18.7457 7.5888 18.7316 7.62829 18.7102 7.66387C18.6888 7.69945 18.6606 7.73042 18.6271 7.75496C18.5936 7.7795 18.5556 7.79712 18.5152 7.8068C18.4748 7.81647 18.4329 7.81801 18.3919 7.81132C18.351 7.80462 18.3118 7.78983 18.2766 7.76781L16.7141 6.83031C16.6781 6.80958 16.6466 6.78188 16.6215 6.74885C16.5963 6.71581 16.578 6.6781 16.5676 6.63791C16.5572 6.59772 16.5549 6.55587 16.5609 6.51478C16.5668 6.4737 16.5809 6.43421 16.6023 6.39863C16.6237 6.36305 16.6519 6.33208 16.6854 6.30754C16.7189 6.283 16.757 6.26538 16.7973 6.2557C16.8377 6.24603 16.8796 6.24449 16.9206 6.25118C16.9615 6.25788 17.0007 6.27267 17.0359 6.29469ZM18.5984 2.76781L17.0359 3.70531C16.965 3.74623 16.8808 3.75765 16.8015 3.73712C16.7222 3.71659 16.6542 3.66576 16.612 3.59556C16.5698 3.52536 16.5569 3.4414 16.5759 3.36175C16.595 3.2821 16.6446 3.21314 16.7141 3.16969L18.2766 2.23219C18.3118 2.21017 18.351 2.19538 18.3919 2.18868C18.4329 2.18199 18.4748 2.18353 18.5152 2.1932C18.5556 2.20288 18.5936 2.2205 18.6271 2.24504C18.6606 2.26958 18.6888 2.30055 18.7102 2.33613C18.7316 2.37171 18.7457 2.4112 18.7516 2.45228C18.7576 2.49337 18.7553 2.53522 18.7449 2.57541C18.7345 2.6156 18.7162 2.65331 18.691 2.68635C18.6659 2.71938 18.6344 2.74708 18.5984 2.76781Z" fill="black"/>
</svg>
