<svg width="52" height="52" viewBox="0 0 52 52" fill="none" xmlns="http://www.w3.org/2000/svg">
<g filter="url(#filter0_dd_1781_3486)">
<rect x="6" y="2" width="40" height="40" rx="20" fill="#A855F7"/>
<path d="M33.2581 19.4322L32.2778 18.7034C32.0889 18.5655 31.8608 18.4916 31.6269 18.4925H30.7706V14.1875C30.7704 13.9389 30.6715 13.7006 30.4958 13.5249C30.32 13.3491 30.0817 13.2502 29.8331 13.25H19.3019C19.0533 13.2502 18.815 13.3491 18.6392 13.5249C18.4635 13.7006 18.3646 13.9389 18.3644 14.1875V29.8125C18.3646 30.0611 18.4635 30.2994 18.6392 30.4751C18.815 30.6509 19.0533 30.7498 19.3019 30.75H27.5613C27.6857 30.7502 27.8089 30.7258 27.9238 30.6782C28.0388 30.6306 28.1432 30.5607 28.2309 30.4725L30.4978 28.1709C30.5869 28.0812 30.657 27.9744 30.7038 27.857C30.7507 27.7396 30.7734 27.6139 30.7706 27.4875V25.4053C32.5425 24.6766 33.6359 23.2925 33.6359 21.7484V20.1584C33.6345 20.0162 33.5995 19.8762 33.5338 19.7501C33.4681 19.6239 33.3735 19.5149 33.2578 19.4322H33.2581ZM18.9894 29.8125V14.1875C18.9894 14.1046 19.0223 14.0251 19.0809 13.9665C19.1395 13.9079 19.219 13.875 19.3019 13.875H29.8331C29.916 13.875 29.9955 13.9079 30.0541 13.9665C30.1127 14.0251 30.1456 14.1046 30.1456 14.1875V18.4925H29.2894C29.0553 18.4916 28.827 18.5655 28.6378 18.7034L27.6584 19.4322C27.5426 19.5149 27.448 19.6238 27.3823 19.75C27.3166 19.8762 27.2817 20.0161 27.2803 20.1584V21.7484C27.2803 23.2922 28.3734 24.6766 30.1456 25.4053V27.1747H28.1872C27.9386 27.1749 27.7003 27.2738 27.5246 27.4495C27.3488 27.6253 27.2499 27.8636 27.2497 28.1122V30.125H19.3016C19.2187 30.125 19.1392 30.0921 19.0806 30.0335C19.022 29.9749 18.9891 29.8954 18.9891 29.8125H18.9894ZM27.8747 29.9434V28.1122C27.8747 28.0293 27.9076 27.9498 27.9662 27.8912C28.0248 27.8326 28.1043 27.7997 28.1872 27.7997H29.9859L27.8747 29.9434ZM33.0109 21.7484C33.0109 23.0534 32.0359 24.2378 30.4578 24.8603C28.8797 24.2378 27.9053 23.0541 27.9053 21.7484V20.1584C27.9072 20.1138 27.9196 20.0703 27.9414 20.0313C27.9632 19.9923 27.9939 19.959 28.0309 19.9341L29.0106 19.2056C29.0917 19.1473 29.1892 19.1164 29.2891 19.1175C29.3059 19.1209 31.6266 19.1175 31.6266 19.1175C31.7262 19.1163 31.8237 19.1469 31.9047 19.205L32.885 19.9341C32.9221 19.959 32.9528 19.9923 32.9747 20.0312C32.9966 20.0702 33.009 20.1138 33.0109 20.1584V21.7484Z" fill="white"/>
<path d="M31.685 20.9311L29.9803 22.4186L29.2303 21.7642C29.1678 21.7097 29.0863 21.6823 29.0036 21.688C28.9209 21.6937 28.8438 21.732 28.7894 21.7945C28.7349 21.857 28.7075 21.9386 28.7132 22.0213C28.7189 22.1039 28.7572 22.181 28.8197 22.2354L29.775 23.0689C29.8319 23.1186 29.9049 23.1459 29.9805 23.1459C30.056 23.1459 30.129 23.1186 30.1859 23.0689L32.0959 21.402C32.1584 21.3475 32.1967 21.2704 32.2024 21.1877C32.208 21.105 32.1806 21.0234 32.1261 20.9609C32.0716 20.8984 31.9945 20.8601 31.9118 20.8545C31.8291 20.8488 31.7475 20.8766 31.685 20.9311ZM22.0672 17.312L27.0672 17.3123C27.1501 17.3123 27.2296 17.2794 27.2882 17.2208C27.3468 17.1622 27.3797 17.0827 27.3797 16.9998C27.3797 16.9169 27.3468 16.8375 27.2882 16.7789C27.2296 16.7202 27.1501 16.6873 27.0672 16.6873L22.0672 16.687C21.9843 16.687 21.9048 16.7199 21.8462 16.7785C21.7876 16.8371 21.7547 16.9166 21.7547 16.9995C21.7547 17.0824 21.7876 17.1619 21.8462 17.2205C21.9048 17.2791 21.9843 17.312 22.0672 17.312ZM20.7109 20.6298L25.7109 20.6301C25.7938 20.6301 25.8733 20.5972 25.9319 20.5386C25.9905 20.48 26.0234 20.4005 26.0234 20.3176C26.0234 20.2348 25.9905 20.1553 25.9319 20.0967C25.8733 20.0381 25.7938 20.0051 25.7109 20.0051H20.7109C20.6281 20.0051 20.5486 20.0381 20.49 20.0967C20.4314 20.1553 20.3984 20.2348 20.3984 20.3176C20.3984 20.4005 20.4314 20.48 20.49 20.5386C20.5486 20.5972 20.6281 20.6301 20.7109 20.6301V20.6298ZM20.7109 22.3123H22.1803C22.2632 22.3123 22.3427 22.2794 22.4013 22.2208C22.4599 22.1622 22.4928 22.0827 22.4928 21.9998C22.4928 21.9169 22.4599 21.8375 22.4013 21.7789C22.3427 21.7202 22.2632 21.6873 22.1803 21.6873H20.7109C20.6281 21.6873 20.5486 21.7202 20.49 21.7789C20.4314 21.8375 20.3984 21.9169 20.3984 21.9998C20.3984 22.0827 20.4314 22.1622 20.49 22.2208C20.5486 22.2794 20.6281 22.3123 20.7109 22.3123ZM23.4638 21.6873C23.3809 21.6873 23.3014 21.7202 23.2428 21.7789C23.1842 21.8375 23.1513 21.9169 23.1513 21.9998C23.1513 22.0827 23.1842 22.1622 23.2428 22.2208C23.3014 22.2794 23.3809 22.3123 23.4638 22.3123H25.7109C25.7938 22.3123 25.8733 22.2794 25.9319 22.2208C25.9905 22.1622 26.0234 22.0827 26.0234 21.9998C26.0234 21.9169 25.9905 21.8375 25.9319 21.7789C25.8733 21.7202 25.7938 21.6873 25.7109 21.6873H23.4638ZM26.5087 23.3698L20.7109 23.3695C20.6281 23.3695 20.5486 23.4024 20.49 23.461C20.4314 23.5196 20.3984 23.5991 20.3984 23.682C20.3984 23.7649 20.4314 23.8444 20.49 23.903C20.5486 23.9616 20.6281 23.9945 20.7109 23.9945H26.5087C26.5916 23.9945 26.6711 23.9616 26.7297 23.903C26.7883 23.8444 26.8212 23.7649 26.8212 23.682C26.8212 23.5991 26.7883 23.5196 26.7297 23.461C26.6711 23.4024 26.5916 23.3698 26.5087 23.3698ZM25.7109 25.052L20.7109 25.0517C20.6281 25.0517 20.5486 25.0846 20.49 25.1432C20.4314 25.2018 20.3984 25.2813 20.3984 25.3642C20.3984 25.4471 20.4314 25.5266 20.49 25.5852C20.5486 25.6438 20.6281 25.6767 20.7109 25.6767H25.7109C25.7938 25.6767 25.8733 25.6438 25.9319 25.5852C25.9905 25.5266 26.0234 25.4471 26.0234 25.3642C26.0234 25.2813 25.9905 25.2018 25.9319 25.1432C25.8733 25.0846 25.7938 25.052 25.7109 25.052ZM23.8759 26.7342L22.3409 26.7339H20.7109C20.6281 26.7339 20.5486 26.7668 20.49 26.8254C20.4314 26.884 20.3984 26.9635 20.3984 27.0464C20.3984 27.1293 20.4314 27.2088 20.49 27.2674C20.5486 27.326 20.6281 27.3589 20.7109 27.3589H23.8759C23.9588 27.3589 24.0383 27.326 24.0969 27.2674C24.1555 27.2088 24.1884 27.1293 24.1884 27.0464C24.1884 26.9635 24.1555 26.884 24.0969 26.8254C24.0383 26.7668 23.9588 26.7339 23.8759 26.7339V26.7342Z" fill="white"/>
</g>
<defs>
<filter id="filter0_dd_1781_3486" x="0" y="0" width="52" height="52" filterUnits="userSpaceOnUse" color-interpolation-filters="sRGB">
<feFlood flood-opacity="0" result="BackgroundImageFix"/>
<feColorMatrix in="SourceAlpha" type="matrix" values="0 0 0 0 0 0 0 0 0 0 0 0 0 0 0 0 0 0 127 0" result="hardAlpha"/>
<feMorphology radius="2" operator="erode" in="SourceAlpha" result="effect1_dropShadow_1781_3486"/>
<feOffset dy="2"/>
<feGaussianBlur stdDeviation="2"/>
<feColorMatrix type="matrix" values="0 0 0 0 0.0627451 0 0 0 0 0.0941176 0 0 0 0 0.156863 0 0 0 0.01 0"/>
<feBlend mode="normal" in2="BackgroundImageFix" result="effect1_dropShadow_1781_3486"/>
<feColorMatrix in="SourceAlpha" type="matrix" values="0 0 0 0 0 0 0 0 0 0 0 0 0 0 0 0 0 0 127 0" result="hardAlpha"/>
<feMorphology radius="2" operator="erode" in="SourceAlpha" result="effect2_dropShadow_1781_3486"/>
<feOffset dy="4"/>
<feGaussianBlur stdDeviation="4"/>
<feColorMatrix type="matrix" values="0 0 0 0 0.0627451 0 0 0 0 0.0941176 0 0 0 0 0.156863 0 0 0 0.01 0"/>
<feBlend mode="normal" in2="effect1_dropShadow_1781_3486" result="effect2_dropShadow_1781_3486"/>
<feBlend mode="normal" in="SourceGraphic" in2="effect2_dropShadow_1781_3486" result="shape"/>
</filter>
</defs>
</svg>
