<svg width="70" height="71" viewBox="0 0 70 71" fill="none" xmlns="http://www.w3.org/2000/svg">
<g opacity="0.8">
<path d="M34.2312 61.6626C34.3191 61.7809 34.433 61.8773 34.5642 61.9445C34.6954 62.0116 34.8402 62.0477 34.9875 62.0498H35.0001C35.1453 62.0498 35.2885 62.0167 35.4189 61.9532C35.5494 61.8896 35.6637 61.7971 35.7532 61.6829C36.545 60.6728 55.1399 36.7732 55.1399 21.6368C55.1399 16.2954 53.018 11.1728 49.2411 7.39587C45.4641 3.61893 40.3415 1.49707 35.0001 1.49707C29.6587 1.49707 24.5361 3.61893 20.7592 7.39587C16.9822 11.1728 14.8604 16.2954 14.8604 21.6368C14.8604 27.4337 18.1312 35.9458 24.5832 46.9353C29.3498 55.0542 34.1831 61.5975 34.2312 61.6626ZM35.0001 3.41113C39.8323 3.41649 44.4651 5.33849 47.8819 8.75543C51.2988 12.1724 53.2206 16.8052 53.2258 21.6374C53.2258 34.4173 38.5827 54.7337 35.0198 59.4866C31.5001 54.55 16.7744 33.2246 16.7744 21.6374C16.7796 16.8052 18.7015 12.1724 22.1183 8.75543C25.5352 5.33849 30.1679 3.41649 35.0001 3.41113Z" fill="#A855F7"/>
<path d="M46.5774 21.6375C46.5775 19.3477 45.8986 17.1092 44.6265 15.2053C43.3544 13.3013 41.5464 11.8174 39.4309 10.941C37.3154 10.0647 34.9876 9.83531 32.7417 10.282C30.4959 10.7286 28.433 11.8312 26.8138 13.4503C25.1946 15.0694 24.0919 17.1323 23.6452 19.3781C23.1984 21.6239 23.4277 23.9517 24.3039 26.0673C25.1802 28.1828 26.6641 29.9909 28.568 31.2631C30.4719 32.5352 32.7102 33.2143 35 33.2143C38.0694 33.2109 41.0121 31.9902 43.1826 29.8199C45.353 27.6495 46.5739 24.7069 46.5774 21.6375ZM35 31.3002C33.0888 31.3002 31.2205 30.7334 29.6314 29.6716C28.0422 28.6098 26.8037 27.1005 26.0723 25.3348C25.3409 23.569 25.1496 21.626 25.5225 19.7515C25.8954 17.877 26.8158 16.1552 28.1673 14.8038C29.5187 13.4523 31.2406 12.532 33.1152 12.1592C34.9897 11.7865 36.9327 11.9779 38.6984 12.7094C40.4641 13.4408 41.9733 14.6795 43.035 16.2687C44.0968 17.8579 44.6634 19.7262 44.6633 21.6375C44.6603 24.1993 43.6412 26.6554 41.8296 28.4669C40.018 30.2784 37.5619 31.2973 35 31.3002ZM44.7585 55.5251C44.5097 55.5006 44.2611 55.5744 44.0659 55.7307C43.8708 55.887 43.7445 56.1134 43.7141 56.3616C43.6837 56.6097 43.7515 56.86 43.9031 57.0588C44.0548 57.2576 44.2781 57.3892 44.5255 57.4255C52.7653 58.4367 55.4313 60.3442 55.4313 61.1093C55.4313 62.5459 48.2202 65.3421 35 65.3421C21.7799 65.3421 14.5688 62.5437 14.5688 61.1093C14.5688 60.2889 17.1834 58.6106 24.2009 57.5956C24.4471 57.5537 24.6673 57.4172 24.8143 57.2153C24.9614 57.0134 25.0237 56.762 24.9881 56.5148C24.9524 56.2676 24.8215 56.0441 24.6234 55.892C24.4252 55.7399 24.1755 55.6712 23.9275 55.7007C18.7868 56.445 12.6553 57.9866 12.6553 61.1093C12.6553 65.6193 26.0182 67.2561 35.0006 67.2561C43.983 67.2561 57.3459 65.6193 57.3459 61.1093C57.3454 57.595 49.4594 56.1026 44.7585 55.5251Z" fill="#A855F7"/>
</g>
</svg>
