<svg width="94" height="42" viewBox="0 0 94 42" fill="none" xmlns="http://www.w3.org/2000/svg">
<g filter="url(#filter0_dd_366_5670)">
<path d="M5 30.6011V3.44413C5 2.68977 5.18134 2.10137 5.54401 1.67892C5.93691 1.22631 6.43558 1 7.04004 1H14.6108C19.4162 1 23.0581 2.20698 25.5364 4.62093C28.0448 7.03489 29.2991 10.8369 29.2991 16.0269C29.2991 27.1311 24.5541 32.6832 15.0642 32.6832H7.31204C5.77068 32.6832 5 31.9892 5 30.6011ZM13.7041 9.59972V23.133C13.7041 23.7666 13.7495 24.174 13.8402 24.355C13.9308 24.5059 14.2028 24.5813 14.6562 24.5813C16.3184 24.5813 17.5727 23.9628 18.4189 22.7256C19.2954 21.4884 19.7336 19.4366 19.7336 16.57C19.7336 13.6733 19.2802 11.7874 18.3736 10.9123C17.4971 10.0372 16.0917 9.59972 14.1575 9.59972H13.7041Z" fill="#A855F7"/>
<path d="M42.6323 11.1386C42.6323 10.7162 43.7748 10.505 46.0596 10.505C48.3656 10.505 49.5186 10.7162 49.5186 11.1386V25.6812C49.5186 27.8356 48.7464 29.5993 47.202 30.9723C45.6576 32.3241 43.5209 33 40.7918 33C38.0838 33 35.873 32.303 34.1594 30.9089C32.4669 29.4937 31.6207 27.5927 31.6207 25.2059V11.1703C31.6207 10.7479 32.7631 10.5366 35.0479 10.5366C37.3539 10.5366 38.5069 10.7479 38.5069 11.1703V25.4594C38.5069 25.8818 38.7291 26.2198 39.1733 26.4733C39.6388 26.7267 40.1254 26.8535 40.6331 26.8535C41.1409 26.8535 41.5957 26.7373 41.9977 26.505C42.4208 26.2726 42.6323 25.9241 42.6323 25.4594V11.1386Z" fill="#A855F7"/>
<path d="M52.182 31.2257V12.2158C52.182 11.6878 52.3089 11.2759 52.5628 10.9802C52.8378 10.6634 53.1869 10.505 53.61 10.505H58.9096C62.2734 10.505 64.8227 11.3498 66.5575 13.0396C68.3134 14.7294 69.1914 17.3908 69.1914 21.0238C69.1914 28.7967 65.8699 32.6832 59.2269 32.6832H53.8004C52.7215 32.6832 52.182 32.1974 52.182 31.2257ZM58.2749 16.5248V25.998C58.2749 26.4416 58.3066 26.7267 58.3701 26.8535C58.4336 26.9591 58.624 27.0119 58.9413 27.0119C60.1049 27.0119 60.9829 26.5789 61.5752 25.7129C62.1888 24.8469 62.4955 23.4106 62.4955 21.404C62.4955 19.3762 62.1782 18.0561 61.5435 17.4436C60.93 16.831 59.9462 16.5248 58.5922 16.5248H58.2749Z" fill="#A855F7"/>
<path d="M82.1137 11.1386C82.1137 10.7162 83.2562 10.505 85.541 10.505C87.847 10.505 89 10.7162 89 11.1386V25.6812C89 27.8356 88.2278 29.5993 86.6834 30.9723C85.139 32.3241 83.0023 33 80.2732 33C77.5652 33 75.3544 32.303 73.6408 30.9089C71.9483 29.4937 71.1021 27.5927 71.1021 25.2059V11.1703C71.1021 10.7479 72.2445 10.5366 74.5294 10.5366C76.8353 10.5366 77.9883 10.7479 77.9883 11.1703V25.4594C77.9883 25.8818 78.2105 26.2198 78.6547 26.4733C79.1202 26.7267 79.6068 26.8535 80.1145 26.8535C80.6223 26.8535 81.0771 26.7373 81.4791 26.505C81.9022 26.2726 82.1137 25.9241 82.1137 25.4594V11.1386Z" fill="#A855F7"/>
</g>
<defs>
<filter id="filter0_dd_366_5670" x="0" y="0" width="94" height="42" filterUnits="userSpaceOnUse" color-interpolation-filters="sRGB">
<feFlood flood-opacity="0" result="BackgroundImageFix"/>
<feColorMatrix in="SourceAlpha" type="matrix" values="0 0 0 0 0 0 0 0 0 0 0 0 0 0 0 0 0 0 127 0" result="hardAlpha"/>
<feMorphology radius="1" operator="erode" in="SourceAlpha" result="effect1_dropShadow_366_5670"/>
<feOffset dy="4"/>
<feGaussianBlur stdDeviation="3"/>
<feComposite in2="hardAlpha" operator="out"/>
<feColorMatrix type="matrix" values="0 0 0 0 0 0 0 0 0 0 0 0 0 0 0 0 0 0 0.1 0"/>
<feBlend mode="normal" in2="BackgroundImageFix" result="effect1_dropShadow_366_5670"/>
<feColorMatrix in="SourceAlpha" type="matrix" values="0 0 0 0 0 0 0 0 0 0 0 0 0 0 0 0 0 0 127 0" result="hardAlpha"/>
<feMorphology radius="2" operator="erode" in="SourceAlpha" result="effect2_dropShadow_366_5670"/>
<feOffset dy="2"/>
<feGaussianBlur stdDeviation="2"/>
<feComposite in2="hardAlpha" operator="out"/>
<feColorMatrix type="matrix" values="0 0 0 0 0 0 0 0 0 0 0 0 0 0 0 0 0 0 0.1 0"/>
<feBlend mode="normal" in2="effect1_dropShadow_366_5670" result="effect2_dropShadow_366_5670"/>
<feBlend mode="normal" in="SourceGraphic" in2="effect2_dropShadow_366_5670" result="shape"/>
</filter>
</defs>
</svg>
