<?xml version="1.0" encoding="UTF-8"?>
<svg version="1.1" xmlns="http://www.w3.org/2000/svg" width="24" height="24">
<path d="M0 0 C2.86801846 0.08864784 3.78417611 0.16414857 6.125 1.9375 C7.43179016 5.33515441 6.80384177 7.87047526 6.0625 11.375 C7.0525 11.931875 8.0425 12.48875 9.0625 13.0625 C12.0625 15.375 12.0625 15.375 12.4375 18.125 C12.31375 18.8675 12.19 19.61 12.0625 20.375 C10.0825 21.365 10.0825 21.365 8.0625 22.375 C7.7325 21.715 7.4025 21.055 7.0625 20.375 C5.03786745 19.72286708 5.03786745 19.72286708 3.0625 19.375 C3.7225 21.025 4.3825 22.675 5.0625 24.375 C-0.5475 24.375 -6.1575 24.375 -11.9375 24.375 C-11.9375 17.375 -11.9375 17.375 -9.4375 14.625 C-8.6125 13.8825 -7.7875 13.14 -6.9375 12.375 C-6.9375 11.385 -6.9375 10.395 -6.9375 9.375 C-6.01091772 0.57246835 -6.01091772 0.57246835 0 0 Z M-2.75 3.5625 C-4.19040328 5.32554109 -4.19040328 5.32554109 -3.625 7.5625 C-3.398125 8.160625 -3.17125 8.75875 -2.9375 9.375 C-0.54030568 10.05458603 -0.54030568 10.05458603 2.0625 10.375 C2.7225 9.715 3.3825 9.055 4.0625 8.375 C3.74208603 5.77219432 3.74208603 5.77219432 3.0625 3.375 C0.05501085 2.21637694 0.05501085 2.21637694 -2.75 3.5625 Z M-8.9375 18.375 C-8.9375 19.695 -8.9375 21.015 -8.9375 22.375 C-5.9675 22.375 -2.9975 22.375 0.0625 22.375 C0.26875 21.570625 0.475 20.76625 0.6875 19.9375 C1.14125 19.091875 1.595 18.24625 2.0625 17.375 C5.1875 16.5625 5.1875 16.5625 8.0625 16.375 C5.57997178 13.89247178 3.52007662 13.69619228 0.09765625 13.3359375 C-3.90923065 13.41284512 -6.23354756 15.67104756 -8.9375 18.375 Z " fill="#000000" transform="translate(11.9375,-0.375)"/>
</svg>
