<svg width="20" height="20" viewBox="0 0 20 20" fill="none" xmlns="http://www.w3.org/2000/svg">
<g clip-path="url(#clip0_46_924)">
<path d="M18.6667 3.66667H16.6667C16.6667 3.48986 16.5964 3.32029 16.4714 3.19527C16.3464 3.07025 16.1768 3.00001 16 3.00001H15.7797C15.6013 2.79103 15.3797 2.62322 15.1302 2.50815C14.8807 2.39308 14.6093 2.3335 14.3345 2.3335C14.0597 2.3335 13.7883 2.39308 13.5388 2.50815C13.2893 2.62322 13.0677 2.79103 12.8893 3.00001H12.6667C12.4899 3.00001 12.3203 3.07025 12.1953 3.19527C12.0702 3.32029 12 3.48986 12 3.66667H10C9.70526 3.66778 9.4192 3.76651 9.18652 3.94744C8.95385 4.12837 8.78768 4.38129 8.714 4.66667H4.054C3.77413 4.66642 3.5013 4.75437 3.27427 4.91803C3.04724 5.08169 2.87755 5.31274 2.78933 5.57834L2.08733 7.68368C1.99441 7.57429 1.8789 7.48633 1.74874 7.42586C1.61857 7.36538 1.47686 7.33382 1.33333 7.33334H1C0.752081 7.33634 0.514116 7.43133 0.332281 7.59988C0.150447 7.76843 0.0377101 7.99852 0.0159483 8.2455C-0.00581352 8.49248 0.0649513 8.73874 0.214511 8.93648C0.36407 9.13423 0.581758 9.26937 0.825333 9.31568L0.485 9.52001C0.337434 9.60942 0.215327 9.73526 0.130396 9.88545C0.0454659 10.0356 0.000563986 10.2051 0 10.3777L0 14.6667C0.000854322 14.8728 0.0653613 15.0736 0.184696 15.2416C0.304031 15.4096 0.472364 15.5366 0.666667 15.6053V16.3333C0.666667 16.5986 0.772024 16.8529 0.95956 17.0404C1.1471 17.228 1.40145 17.3333 1.66667 17.3333H3C3.26522 17.3333 3.51957 17.228 3.70711 17.0404C3.89464 16.8529 4 16.5986 4 16.3333V15.6667H8.66667V16.3333C8.66667 16.687 8.80714 17.0261 9.05719 17.2762C9.30724 17.5262 9.64638 17.6667 10 17.6667H18.6667C19.0203 17.6667 19.3594 17.5262 19.6095 17.2762C19.8595 17.0261 20 16.687 20 16.3333V5.00001C20 4.64639 19.8595 4.30725 19.6095 4.0572C19.3594 3.80715 19.0203 3.66667 18.6667 3.66667ZM12.6667 3.66667H13.08C13.1437 3.66668 13.206 3.64844 13.2597 3.61412C13.3133 3.57979 13.356 3.53083 13.3827 3.47301C13.4842 3.31619 13.626 3.18954 13.7932 3.10633C13.9605 3.02312 14.147 2.98639 14.3333 3.00001C14.5204 2.98679 14.7076 3.02391 14.8755 3.1075C15.0434 3.19109 15.1858 3.3181 15.288 3.47534C15.315 3.53262 15.3577 3.58104 15.4112 3.61492C15.4647 3.6488 15.5267 3.66676 15.59 3.66667H16V4.33334H12.6667V3.66667ZM8.66667 11.6667H4.66667C4.66667 11.4899 4.7369 11.3203 4.86193 11.1953C4.98695 11.0702 5.15652 11 5.33333 11H8.66667V11.6667ZM3.422 5.78934C3.4662 5.65665 3.55101 5.54121 3.66443 5.45937C3.77785 5.37754 3.91414 5.33345 4.054 5.33334H8.66667V8.66668H2.46233L3.422 5.78934ZM0.666667 8.33334C0.666667 8.24494 0.701786 8.16015 0.764298 8.09764C0.82681 8.03513 0.911595 8.00001 1 8.00001H1.33333C1.42174 8.00001 1.50652 8.03513 1.56904 8.09764C1.63155 8.16015 1.66667 8.24494 1.66667 8.33334V8.66668H1C0.911595 8.66668 0.82681 8.63156 0.764298 8.56904C0.701786 8.50653 0.666667 8.42175 0.666667 8.33334ZM3.33333 16.3333C3.33333 16.4217 3.29821 16.5065 3.2357 16.569C3.17319 16.6316 3.08841 16.6667 3 16.6667H1.66667C1.57826 16.6667 1.49348 16.6316 1.43096 16.569C1.36845 16.5065 1.33333 16.4217 1.33333 16.3333V15.6667H3.33333V16.3333ZM1 15C0.911595 15 0.82681 14.9649 0.764298 14.9024C0.701786 14.8399 0.666667 14.7551 0.666667 14.6667V10.3777C0.666885 10.3201 0.681862 10.2636 0.710165 10.2134C0.738469 10.1633 0.779154 10.1213 0.828333 10.0913L2.09233 9.33334H8.66667V10.3333H5.33333C4.97971 10.3333 4.64057 10.4738 4.39052 10.7239C4.14048 10.9739 4 11.3131 4 11.6667C4 11.8435 4.07024 12.0131 4.19526 12.1381C4.32029 12.2631 4.48986 12.3333 4.66667 12.3333H8.66667V13.3333H5C4.91159 13.3333 4.82681 13.3685 4.7643 13.431C4.70179 13.4935 4.66667 13.5783 4.66667 13.6667C4.66667 13.7551 4.70179 13.8399 4.7643 13.9024C4.82681 13.9649 4.91159 14 5 14H8.66667V15H1ZM19.3333 16.3333C19.3333 16.5102 19.2631 16.6797 19.1381 16.8047C19.013 16.9298 18.8435 17 18.6667 17H10C9.82319 17 9.65362 16.9298 9.5286 16.8047C9.40357 16.6797 9.33333 16.5102 9.33333 16.3333V5.00001C9.33333 4.8232 9.40357 4.65363 9.5286 4.5286C9.65362 4.40358 9.82319 4.33334 10 4.33334H12C12 4.51015 12.0702 4.67972 12.1953 4.80475C12.3203 4.92977 12.4899 5.00001 12.6667 5.00001H16C16.1768 5.00001 16.3464 4.92977 16.4714 4.80475C16.5964 4.67972 16.6667 4.51015 16.6667 4.33334H18.6667C18.8435 4.33334 19.013 4.40358 19.1381 4.5286C19.2631 4.65363 19.3333 4.8232 19.3333 5.00001V16.3333Z" fill="black"/>
<path d="M2.33331 9.99996C2.0681 9.99996 1.81374 10.1053 1.62621 10.2929C1.43867 10.4804 1.33331 10.7347 1.33331 11V11.6666C1.33331 11.9318 1.43867 12.1862 1.62621 12.3737C1.81374 12.5613 2.0681 12.6666 2.33331 12.6666C2.59853 12.6666 2.85288 12.5613 3.04042 12.3737C3.22796 12.1862 3.33331 11.9318 3.33331 11.6666V11C3.33331 10.7347 3.22796 10.4804 3.04042 10.2929C2.85288 10.1053 2.59853 9.99996 2.33331 9.99996ZM2.66665 11.6666C2.66665 11.755 2.63153 11.8398 2.56902 11.9023C2.5065 11.9648 2.42172 12 2.33331 12C2.24491 12 2.16012 11.9648 2.09761 11.9023C2.0351 11.8398 1.99998 11.755 1.99998 11.6666V11C1.99998 10.9116 2.0351 10.8268 2.09761 10.7643C2.16012 10.7017 2.24491 10.6666 2.33331 10.6666C2.42172 10.6666 2.5065 10.7017 2.56902 10.7643C2.63153 10.8268 2.66665 10.9116 2.66665 11V11.6666ZM12.7226 6.1483L11.615 7.8103L11.2356 7.43096C11.1728 7.37024 11.0886 7.33665 11.0012 7.33741C10.9138 7.33816 10.8302 7.37322 10.7684 7.43502C10.7066 7.49683 10.6715 7.58043 10.6708 7.66783C10.67 7.75523 10.7036 7.83943 10.7643 7.9023L11.431 8.56896C11.4935 8.63148 11.5782 8.66661 11.6666 8.66663H11.7C11.749 8.66176 11.7964 8.64608 11.8386 8.62072C11.8809 8.59536 11.917 8.56095 11.9443 8.51996L13.2776 6.51996C13.3267 6.44641 13.3445 6.35638 13.3272 6.26967C13.3099 6.18297 13.2589 6.1067 13.1853 6.05763C13.1118 6.00856 13.0217 5.99073 12.935 6.00804C12.8483 6.02536 12.772 6.07641 12.723 6.14996L12.7226 6.1483ZM17.3333 6.66663H14.3333C14.2449 6.66663 14.1601 6.70175 14.0976 6.76426C14.0351 6.82677 14 6.91156 14 6.99996C14 7.08837 14.0351 7.17315 14.0976 7.23567C14.1601 7.29818 14.2449 7.3333 14.3333 7.3333H17.3333C17.4217 7.3333 17.5065 7.29818 17.569 7.23567C17.6315 7.17315 17.6666 7.08837 17.6666 6.99996C17.6666 6.91156 17.6315 6.82677 17.569 6.76426C17.5065 6.70175 17.4217 6.66663 17.3333 6.66663ZM14.3333 8.66663H16.2726C16.3611 8.66663 16.4458 8.63151 16.5083 8.569C16.5709 8.50649 16.606 8.4217 16.606 8.3333C16.606 8.24489 16.5709 8.16011 16.5083 8.09759C16.4458 8.03508 16.3611 7.99996 16.2726 7.99996H14.3333C14.2449 7.99996 14.1601 8.03508 14.0976 8.09759C14.0351 8.16011 14 8.24489 14 8.3333C14 8.4217 14.0351 8.50649 14.0976 8.569C14.1601 8.63151 14.2449 8.66663 14.3333 8.66663ZM12.7226 9.48163L11.615 11.1436L11.2356 10.7643C11.1728 10.7036 11.0886 10.67 11.0012 10.6707C10.9138 10.6715 10.8302 10.7066 10.7684 10.7684C10.7066 10.8302 10.6715 10.9138 10.6708 11.0012C10.67 11.0886 10.7036 11.1728 10.7643 11.2356L11.431 11.9023C11.4935 11.9648 11.5782 11.9999 11.6666 12C11.6773 12 11.6883 12 11.7 11.9983C11.749 11.9934 11.7964 11.9778 11.8386 11.9524C11.8809 11.927 11.917 11.8926 11.9443 11.8516L13.2776 9.85163C13.3267 9.77808 13.3445 9.68804 13.3272 9.60134C13.3099 9.51464 13.2589 9.43836 13.1853 9.3893C13.1118 9.34023 13.0217 9.3224 12.935 9.33971C12.8483 9.35703 12.7717 9.40808 12.7226 9.48163ZM17.3333 9.99996H14.3333C14.2449 9.99996 14.1601 10.0351 14.0976 10.0976C14.0351 10.1601 14 10.2449 14 10.3333C14 10.4217 14.0351 10.5065 14.0976 10.569C14.1601 10.6315 14.2449 10.6666 14.3333 10.6666H17.3333C17.4217 10.6666 17.5065 10.6315 17.569 10.569C17.6315 10.5065 17.6666 10.4217 17.6666 10.3333C17.6666 10.2449 17.6315 10.1601 17.569 10.0976C17.5065 10.0351 17.4217 9.99996 17.3333 9.99996ZM14.3333 12H16.2726C16.3611 12 16.4458 11.9648 16.5083 11.9023C16.5709 11.8398 16.606 11.755 16.606 11.6666C16.606 11.5782 16.5709 11.4934 16.5083 11.4309C16.4458 11.3684 16.3611 11.3333 16.2726 11.3333H14.3333C14.2449 11.3333 14.1601 11.3684 14.0976 11.4309C14.0351 11.4934 14 11.5782 14 11.6666C14 11.755 14.0351 11.8398 14.0976 11.9023C14.1601 11.9648 14.2449 12 14.3333 12ZM12.7226 12.815L11.615 14.477L11.2356 14.0976C11.1728 14.0369 11.0886 14.0033 11.0012 14.0041C10.9138 14.0048 10.8302 14.0399 10.7684 14.1017C10.7066 14.1635 10.6715 14.2471 10.6708 14.3345C10.67 14.4219 10.7036 14.5061 10.7643 14.569L11.431 15.2356C11.4935 15.2981 11.5782 15.3333 11.6666 15.3333C11.6773 15.3333 11.6883 15.3333 11.7 15.3316C11.749 15.3268 11.7964 15.3111 11.8386 15.2857C11.8809 15.2604 11.917 15.226 11.9443 15.185L13.2776 13.185C13.3267 13.1114 13.3445 13.0214 13.3272 12.9347C13.3099 12.848 13.2589 12.7717 13.1853 12.7226C13.1118 12.6736 13.0217 12.6557 12.935 12.673C12.8483 12.6904 12.7717 12.7414 12.7226 12.815ZM17.3333 13.3333H14.3333C14.2449 13.3333 14.1601 13.3684 14.0976 13.4309C14.0351 13.4934 14 13.5782 14 13.6666C14 13.755 14.0351 13.8398 14.0976 13.9023C14.1601 13.9648 14.2449 14 14.3333 14H17.3333C17.4217 14 17.5065 13.9648 17.569 13.9023C17.6315 13.8398 17.6666 13.755 17.6666 13.6666C17.6666 13.5782 17.6315 13.4934 17.569 13.4309C17.5065 13.3684 17.4217 13.3333 17.3333 13.3333ZM16.2726 14.6666H14.3333C14.2449 14.6666 14.1601 14.7017 14.0976 14.7643C14.0351 14.8268 14 14.9116 14 15C14 15.0884 14.0351 15.1732 14.0976 15.2357C14.1601 15.2982 14.2449 15.3333 14.3333 15.3333H16.2726C16.3611 15.3333 16.4458 15.2982 16.5083 15.2357C16.5709 15.1732 16.606 15.0884 16.606 15C16.606 14.9116 16.5709 14.8268 16.5083 14.7643C16.4458 14.7017 16.3611 14.6666 16.2726 14.6666ZM2.66665 13.3333H1.99998C1.91157 13.3333 1.82679 13.3684 1.76428 13.4309C1.70177 13.4934 1.66665 13.5782 1.66665 13.6666C1.66665 13.755 1.70177 13.8398 1.76428 13.9023C1.82679 13.9648 1.91157 14 1.99998 14H2.66665C2.75505 14 2.83984 13.9648 2.90235 13.9023C2.96486 13.8398 2.99998 13.755 2.99998 13.6666C2.99998 13.5782 2.96486 13.4934 2.90235 13.4309C2.83984 13.3684 2.75505 13.3333 2.66665 13.3333Z" fill="black"/>
</g>
<defs>
<clipPath id="clip0_46_924">
<rect width="20" height="20" fill="white"/>
</clipPath>
</defs>
</svg>
