<svg width="20" height="20" viewBox="0 0 20 20" fill="none" xmlns="http://www.w3.org/2000/svg">
<path d="M8.88889 19.1668C8.81648 19.1668 8.74691 19.1386 8.695 19.0882C8.47611 18.8746 3.33333 13.8057 3.33333 8.61122C3.33502 7.13831 3.92088 5.72622 4.96238 4.68472C6.00389 3.64321 7.41598 3.05735 8.88889 3.05566C8.96256 3.05566 9.03321 3.08493 9.08531 3.13702C9.1374 3.18912 9.16667 3.25977 9.16667 3.33344C9.16667 3.40711 9.1374 3.47777 9.08531 3.52986C9.03321 3.58195 8.96256 3.61122 8.88889 3.61122C7.56326 3.61269 6.29234 4.13995 5.35498 5.07731C4.41761 6.01467 3.89036 7.28559 3.88889 8.61122C3.88889 13.0154 7.94555 17.5076 8.88889 18.4921C9.83222 17.5076 13.8889 13.0154 13.8889 8.61122C13.8889 8.53755 13.9182 8.46689 13.9702 8.4148C14.0223 8.36271 14.093 8.33344 14.1667 8.33344C14.2403 8.33344 14.311 8.36271 14.3631 8.4148C14.4152 8.46689 14.4444 8.53755 14.4444 8.61122C14.4444 13.8057 9.30167 18.8746 9.08278 19.0882C9.03086 19.1386 8.96129 19.1668 8.88889 19.1668Z" fill="black"/>
<path d="M8.88889 11.9445C8.00483 11.9445 7.15699 11.5933 6.53186 10.9682C5.90674 10.3431 5.55555 9.49522 5.55555 8.61117C5.55555 7.72711 5.90674 6.87926 6.53186 6.25414C7.15699 5.62902 8.00483 5.27783 8.88889 5.27783C8.96256 5.27783 9.03321 5.3071 9.08531 5.35919C9.1374 5.41128 9.16666 5.48194 9.16666 5.55561C9.16666 5.62928 9.1374 5.69994 9.08531 5.75203C9.03321 5.80412 8.96256 5.83339 8.88889 5.83339C8.33949 5.83339 7.80244 5.9963 7.34564 6.30153C6.88883 6.60675 6.5328 7.04058 6.32255 7.54816C6.11231 8.05573 6.0573 8.61425 6.16448 9.15308C6.27166 9.69192 6.53622 10.1869 6.9247 10.5754C7.31318 10.9638 7.80813 11.2284 8.34697 11.3356C8.88581 11.4428 9.44432 11.3877 9.9519 11.1775C10.4595 10.9673 10.8933 10.6112 11.1985 10.1544C11.5038 9.69761 11.6667 9.16056 11.6667 8.61117C11.6667 8.53749 11.6959 8.46684 11.748 8.41475C11.8001 8.36265 11.8708 8.33339 11.9444 8.33339C12.0181 8.33339 12.0888 8.36265 12.1409 8.41475C12.193 8.46684 12.2222 8.53749 12.2222 8.61117C12.2213 9.49493 11.8698 10.3422 11.2449 10.9671C10.6199 11.592 9.77265 11.9435 8.88889 11.9445Z" fill="black"/>
<path d="M16.3889 9.16683C16.3504 9.16683 16.3123 9.15883 16.2771 9.14334C16.2418 9.12785 16.2102 9.1052 16.1842 9.07683L13.5381 6.19016C13.5116 6.16252 13.4798 6.14052 13.4446 6.12548C13.4095 6.11045 13.3716 6.1027 13.3333 6.1027C13.2951 6.1027 13.2572 6.11045 13.222 6.12548C13.1868 6.14052 13.1551 6.16252 13.1286 6.19016L10.4825 9.07683C10.4447 9.11807 10.3953 9.14693 10.3408 9.15962C10.2863 9.17231 10.2292 9.16824 10.177 9.14795C10.1249 9.12765 10.0801 9.09207 10.0485 9.04587C10.0169 8.99968 9.99999 8.94502 10 8.88905V2.22238C10.0004 1.85416 10.1469 1.50115 10.4073 1.24078C10.6677 0.980408 11.0207 0.833937 11.3889 0.833496H15.2778C15.646 0.833937 15.999 0.980408 16.2594 1.24078C16.5198 1.50115 16.6662 1.85416 16.6667 2.22238V8.88905C16.6666 8.9627 16.6373 9.03331 16.5852 9.08539C16.5331 9.13747 16.4625 9.16676 16.3889 9.16683ZM13.3333 5.54433C13.4488 5.54451 13.5631 5.56864 13.6688 5.61521C13.7745 5.66178 13.8694 5.72977 13.9475 5.81488L16.1111 8.17516V2.22238C16.1109 2.00144 16.023 1.78961 15.8668 1.63337C15.7106 1.47714 15.4987 1.38927 15.2778 1.38905H11.3889C11.1679 1.38927 10.9561 1.47714 10.7999 1.63337C10.6436 1.78961 10.5558 2.00144 10.5556 2.22238V8.17516L12.7192 5.81488C12.7973 5.72977 12.8922 5.66178 12.9979 5.61521C13.1036 5.56864 13.2178 5.54451 13.3333 5.54433Z" fill="black"/>
</svg>
