<svg width="34" height="34" viewBox="0 0 34 34" fill="none" xmlns="http://www.w3.org/2000/svg">
<rect x="0.75" y="0.75" width="32.5" height="32.5" rx="16.25" fill="white"/>
<rect x="0.75" y="0.75" width="32.5" height="32.5" rx="16.25" stroke="#64748B" stroke-width="0.5"/>
<g clip-path="url(#clip0_91_2299)">
<path d="M20 9H14C13.2046 9.00088 12.4421 9.31724 11.8797 9.87965C11.3172 10.4421 11.0009 11.2046 11 12V23.4413C11 24.0927 11.3927 24.6627 12.0007 24.8953C12.297 25.0095 12.6212 25.0298 12.9294 24.9536C13.2376 24.8774 13.515 24.7084 13.724 24.4693L17 20.522L20.284 24.4787C20.4931 24.7151 20.7696 24.8818 21.0763 24.9563C21.3829 25.0308 21.7051 25.0095 21.9993 24.8953C22.2946 24.7841 22.5488 24.5852 22.7277 24.3253C22.9066 24.0653 23.0016 23.7569 23 23.4413V12C23 10.346 21.654 9 20 9ZM22.3333 23.4413C22.3356 23.6219 22.2818 23.7988 22.1794 23.9476C22.0769 24.0963 21.9309 24.2097 21.7613 24.272C21.4847 24.3773 21.0813 24.3707 20.7887 24.0433L17.2567 19.7867C17.2253 19.7491 17.186 19.7189 17.1416 19.6982C17.0973 19.6775 17.0489 19.6668 17 19.6668C16.9511 19.6668 16.9027 19.6775 16.8584 19.6982C16.814 19.7189 16.7747 19.7491 16.7433 19.7867L13.2193 24.034C12.9173 24.3693 12.5147 24.3773 12.2387 24.2713C11.9627 24.1653 11.6667 23.892 11.6667 23.4407V12C11.6667 10.7133 12.7133 9.66667 14 9.66667H20C21.2867 9.66667 22.3333 10.7133 22.3333 12V23.4413ZM19.5 13H18.2347L17.7813 11.7273C17.6607 11.4033 17.3473 11.1853 17.0007 11.1853C16.654 11.1853 16.34 11.4033 16.218 11.7313L15.766 13H14.5007C14.1533 13 13.8387 13.2193 13.7187 13.5453C13.6597 13.7067 13.6519 13.8822 13.6963 14.0481C13.7407 14.2141 13.8351 14.3623 13.9667 14.4727L14.9807 15.2973L14.578 16.5873C14.539 16.7121 14.5299 16.8442 14.5514 16.9732C14.5729 17.1021 14.6244 17.2241 14.7017 17.3295C14.7791 17.4348 14.8801 17.5206 14.9966 17.5797C15.1132 17.6388 15.242 17.6698 15.3727 17.67C15.538 17.67 15.698 17.622 15.8487 17.5207L17.0073 16.6667L18.2007 17.5227C18.3456 17.6159 18.5159 17.6623 18.6881 17.6554C18.8604 17.6484 19.0263 17.5886 19.1633 17.484C19.4433 17.268 19.5573 16.8973 19.446 16.562L19.0287 15.2933L20.038 14.4713C20.3047 14.2467 20.4033 13.8753 20.284 13.548C20.2252 13.3876 20.1187 13.249 19.9787 13.1511C19.8388 13.0531 19.6722 13.0003 19.5013 13H19.5ZM19.6113 13.958L18.4287 14.9213C18.3764 14.964 18.3382 15.0214 18.3193 15.0862C18.3004 15.151 18.3016 15.2199 18.3227 15.284L18.812 16.7713C18.823 16.8038 18.8236 16.839 18.8137 16.8719C18.8038 16.9047 18.7839 16.9337 18.7567 16.9547C18.6993 16.9973 18.622 17.0013 18.5753 16.9713L17.1987 15.9833C17.1415 15.9421 17.0727 15.9202 17.0022 15.9206C16.9318 15.9211 16.8633 15.944 16.8067 15.986L15.4667 16.974C15.4167 17.0073 15.3573 17.0327 15.272 16.9693C15.2445 16.9486 15.224 16.9198 15.2135 16.887C15.203 16.8542 15.203 16.8189 15.2133 16.786L15.684 15.2807C15.7039 15.217 15.7042 15.1489 15.6849 15.0851C15.6657 15.0213 15.6277 14.9647 15.576 14.9227L14.3927 13.9593C14.367 13.9372 14.3488 13.9077 14.3403 13.8749C14.3319 13.842 14.3337 13.8074 14.3454 13.7756C14.3571 13.7438 14.3783 13.7164 14.406 13.6969C14.4338 13.6774 14.4668 13.6669 14.5007 13.6667H16.0013C16.0701 13.6667 16.1372 13.6454 16.1934 13.6058C16.2496 13.5662 16.2922 13.5101 16.3153 13.4453L16.8447 11.9593C16.892 11.8307 17.1107 11.834 17.1547 11.9553L17.6853 13.4453C17.7084 13.5101 17.751 13.5662 17.8072 13.6058C17.8635 13.6454 17.9306 13.6667 17.9993 13.6667H19.5C19.5693 13.6667 19.6327 13.7107 19.6567 13.776C19.6683 13.8073 19.6702 13.8413 19.6621 13.8737C19.654 13.9061 19.6363 13.9359 19.6113 13.958Z" fill="black"/>
</g>
<defs>
<clipPath id="clip0_91_2299">
<rect width="16" height="16" fill="white" transform="translate(9 9)"/>
</clipPath>
</defs>
</svg>
