<svg width="24" height="24" viewBox="0 0 24 24" fill="none" xmlns="http://www.w3.org/2000/svg">
<g clip-path="url(#clip0_91_3009)">
<path d="M16.5 0H7.5C6.30693 0.00132343 5.16311 0.475854 4.31948 1.31948C3.47585 2.16311 3.00132 3.30693 3 4.5V21.662C3 22.639 3.589 23.494 4.501 23.843C4.94543 24.0142 5.43174 24.0447 5.89409 23.9304C6.35644 23.8161 6.77252 23.5626 7.086 23.204L12 17.283L16.926 23.218C17.2396 23.5727 17.6543 23.8227 18.1144 23.9345C18.5744 24.0462 19.0577 24.0143 19.499 23.843C19.9419 23.6762 20.3232 23.3778 20.5915 22.9879C20.8599 22.598 21.0024 22.1353 21 21.662V4.5C21 2.019 18.981 0 16.5 0ZM20 21.662C20.0034 21.9329 19.9227 22.1982 19.769 22.4214C19.6154 22.6445 19.3963 22.8145 19.142 22.908C18.727 23.066 18.122 23.056 17.683 22.565L12.385 16.18C12.3379 16.1237 12.279 16.0784 12.2125 16.0473C12.1459 16.0163 12.0734 16.0001 12 16.0001C11.9266 16.0001 11.8541 16.0163 11.7875 16.0473C11.721 16.0784 11.6621 16.1237 11.615 16.18L6.329 22.551C5.876 23.054 5.272 23.066 4.858 22.907C4.444 22.748 4 22.338 4 21.661V4.5C4 2.57 5.57 1 7.5 1H16.5C18.43 1 20 2.57 20 4.5V21.662ZM15.75 6H13.852L13.172 4.091C12.991 3.605 12.521 3.278 12.001 3.278C11.481 3.278 11.01 3.605 10.827 4.097L10.149 6H8.251C7.73 6 7.258 6.329 7.078 6.818C6.98961 7.05999 6.9779 7.32333 7.04446 7.57221C7.11102 7.82109 7.25262 8.04343 7.45 8.209L8.971 9.446L8.367 11.381C8.30855 11.5681 8.29489 11.7664 8.32713 11.9597C8.35937 12.1531 8.4366 12.3362 8.5526 12.4942C8.6686 12.6523 8.82012 12.7808 8.99493 12.8696C9.16974 12.9583 9.36296 13.0047 9.559 13.005C9.807 13.005 10.047 12.933 10.273 12.781L12.011 11.5L13.801 12.784C14.0185 12.9239 14.2738 12.9934 14.5322 12.983C14.7905 12.9727 15.0395 12.8829 15.245 12.726C15.665 12.402 15.836 11.846 15.669 11.343L15.043 9.44L16.557 8.207C16.957 7.87 17.105 7.313 16.926 6.822C16.8379 6.58137 16.678 6.37356 16.4681 6.22658C16.2582 6.0796 16.0083 6.00052 15.752 6H15.75ZM15.917 7.437L14.143 8.882C14.0646 8.94593 14.0074 9.03216 13.979 9.1293C13.9506 9.22643 13.9523 9.32988 13.984 9.426L14.718 11.657C14.7346 11.7058 14.7355 11.7585 14.7206 11.8078C14.7057 11.8571 14.6758 11.9005 14.635 11.932C14.549 11.996 14.433 12.002 14.363 11.957L12.298 10.475C12.2123 10.4132 12.1091 10.3802 12.0033 10.381C11.8976 10.3817 11.7949 10.416 11.71 10.479L9.7 11.961C9.625 12.011 9.536 12.049 9.408 11.954C9.36669 11.9229 9.33605 11.8797 9.32029 11.8305C9.30453 11.7812 9.30443 11.7283 9.32 11.679L10.026 9.421C10.0558 9.32555 10.0563 9.22337 10.0274 9.12764C9.99851 9.03192 9.9416 8.94705 9.864 8.884L8.089 7.439C8.05057 7.40573 8.02319 7.36152 8.01052 7.31229C7.99785 7.26306 8.0005 7.21114 8.0181 7.16344C8.0357 7.11575 8.06742 7.07456 8.10903 7.04536C8.15064 7.01615 8.20017 7.00033 8.251 7H10.502C10.6052 7.00001 10.7058 6.96811 10.7901 6.90868C10.8745 6.84924 10.9383 6.76517 10.973 6.668L11.767 4.439C11.838 4.246 12.166 4.251 12.232 4.433L13.028 6.668C13.0627 6.76517 13.1265 6.84924 13.2109 6.90868C13.2952 6.96811 13.3958 7.00001 13.499 7H15.75C15.854 7 15.949 7.066 15.985 7.164C16.0024 7.21091 16.0053 7.26199 15.9931 7.31053C15.981 7.35908 15.9545 7.40381 15.917 7.437Z" fill="#A855F7"/>
</g>
<defs>
<clipPath id="clip0_91_3009">
<rect width="24" height="24" fill="white"/>
</clipPath>
</defs>
</svg>
