<svg width="16" height="16" viewBox="0 0 16 16" fill="none" xmlns="http://www.w3.org/2000/svg">
<path d="M15.8132 14.8711L11.8372 10.8951C12.9207 9.56987 13.4534 7.87893 13.3252 6.17198C13.1969 4.46502 12.4175 2.87267 11.1481 1.72427C9.87874 0.575873 8.21653 -0.0406994 6.50531 0.00208668C4.79408 0.0448727 3.16476 0.743743 1.95436 1.95414C0.743961 3.16454 0.0450902 4.79386 0.00230412 6.50509C-0.0404819 8.21632 0.57609 9.87853 1.72449 11.1479C2.87288 12.4173 4.46524 13.1967 6.17219 13.325C7.87914 13.4532 9.57009 12.9205 10.8953 11.8369L14.8713 15.813C14.997 15.9344 15.1652 16.0015 15.3399 16C15.5145 15.9985 15.6816 15.9284 15.8051 15.8049C15.9286 15.6814 15.9987 15.5143 16.0002 15.3397C16.0017 15.165 15.9346 14.9968 15.8132 14.8711ZM6.68273 12.0115C5.62876 12.0115 4.59847 11.6989 3.72212 11.1134C2.84578 10.5278 2.16276 9.69556 1.75942 8.72182C1.35608 7.74808 1.25055 6.6766 1.45617 5.64289C1.66179 4.60917 2.16932 3.65964 2.91459 2.91437C3.65986 2.16911 4.60939 1.66157 5.6431 1.45595C6.67682 1.25034 7.7483 1.35587 8.72203 1.7592C9.69577 2.16254 10.528 2.84556 11.1136 3.72191C11.6991 4.59825 12.0117 5.62855 12.0117 6.68251C12.0101 8.09535 11.4481 9.44987 10.4491 10.4489C9.45009 11.4479 8.09557 12.0099 6.68273 12.0115Z" fill="black"/>
</svg>
