<svg width="34" height="34" viewBox="0 0 34 34" fill="none" xmlns="http://www.w3.org/2000/svg">
<rect x="0.75" y="0.75" width="32.5" height="32.5" rx="16.25" fill="white"/>
<rect x="0.75" y="0.75" width="32.5" height="32.5" rx="16.25" stroke="#64748B" stroke-width="0.5"/>
<path d="M17 14.0909C15.3927 14.0909 14.0909 15.3927 14.0909 17C14.0909 18.6072 15.3927 19.9091 17 19.9091C18.6073 19.9091 19.9091 18.6072 19.9091 17C19.9091 15.3928 18.6072 14.0909 17 14.0909ZM23.5018 16.2727C23.1672 13.24 20.76 10.8327 17.7273 10.4982V9H16.2727V10.4982C13.24 10.8327 10.8327 13.24 10.4982 16.2727H9V17.7273H10.4982C10.8327 20.76 13.24 23.1672 16.2727 23.5018V25H17.7273V23.5018C20.76 23.1672 23.1672 20.76 23.5018 17.7273H25V16.2727H23.5018ZM17 22.0909C14.1891 22.0909 11.9091 19.8109 11.9091 17C11.9091 14.1891 14.1891 11.9091 17 11.9091C19.8109 11.9091 22.0909 14.1891 22.0909 17C22.0909 19.8109 19.8109 22.0909 17 22.0909Z" fill="black"/>
</svg>
