<svg width="36" height="36" viewBox="0 0 36 36" fill="none" xmlns="http://www.w3.org/2000/svg">
<g clip-path="url(#clip0_366_5568)">
<path d="M29.4809 0H27.3079V36H29.4809C33.0664 36 36 33.0664 36 29.4809V6.51909C36 2.93358 33.0664 0 29.4809 0Z" fill="#E0230D"/>
<path d="M33.827 6.51909V29.4808C33.827 33.0663 30.8934 35.9999 27.3079 35.9999H6.51909C2.93358 36 0 33.0664 0 29.4809V6.51909C0 2.93358 2.93358 0 6.51909 0H27.3078C30.8933 0 33.827 2.93358 33.827 6.51909Z" fill="#FF5440"/>
<path d="M8.14888 26.0403C6.03205 26.0403 4.30981 24.3182 4.30981 22.2013C4.30981 21.6012 4.79631 21.1147 5.39635 21.1147C5.9964 21.1147 6.48289 21.6012 6.48289 22.2013C6.48289 23.12 7.23024 23.8672 8.14888 23.8672C9.06751 23.8672 9.81486 23.12 9.81486 22.2013V20.7525C9.81486 19.8338 9.06751 19.0866 8.14888 19.0866C6.03205 19.0866 4.30981 17.3644 4.30981 15.2475V13.7988C4.30981 11.6819 6.03205 9.95972 8.14888 9.95972C10.2657 9.95972 11.9879 11.6819 11.9879 13.7988C11.9879 14.3988 11.5014 14.8853 10.9014 14.8853C10.3014 14.8853 9.81486 14.3988 9.81486 13.7988C9.81486 12.8801 9.06751 12.1328 8.14888 12.1328C7.23024 12.1328 6.48289 12.8801 6.48289 13.7988V15.2475C6.48289 16.1662 7.23024 16.9135 8.14888 16.9135C10.2657 16.9135 11.9879 18.6356 11.9879 20.7525V22.2013C11.9879 24.3182 10.2657 26.0403 8.14888 26.0403ZM27.8511 26.0403C25.7342 26.0403 24.0121 24.3182 24.0121 22.2013C24.0121 21.6012 24.4986 21.1147 25.0986 21.1147C25.6987 21.1147 26.1852 21.6012 26.1852 22.2013C26.1852 23.12 26.9324 23.8672 27.8511 23.8672C28.7698 23.8672 29.5171 23.12 29.5171 22.2013V20.7525C29.5171 19.8338 28.7698 19.0866 27.8511 19.0866C25.7342 19.0866 24.0121 17.3644 24.0121 15.2475V13.7988C24.0121 11.6819 25.7342 9.95972 27.8511 9.95972C29.968 9.95972 31.6902 11.6819 31.6902 13.7988C31.6902 14.3988 31.2037 14.8853 30.6037 14.8853C30.0036 14.8853 29.5171 14.3988 29.5171 13.7988C29.5171 12.8801 28.7698 12.1328 27.8511 12.1328C26.9324 12.1328 26.1852 12.8801 26.1852 13.7988V15.2475C26.1852 16.1662 26.9324 16.9135 27.8511 16.9135C29.968 16.9135 31.6902 18.6356 31.6902 20.7525V22.2013C31.6901 24.3182 29.968 26.0403 27.8511 26.0403ZM18 26.0403C15.8832 26.0403 14.1609 24.3182 14.1609 22.2013V13.7988C14.1609 11.682 15.8832 9.95979 18 9.95979C20.1169 9.95979 21.8391 11.682 21.8391 13.7988V22.2013C21.8391 24.3182 20.1169 26.0403 18 26.0403ZM18 12.1329C17.0814 12.1329 16.334 12.8801 16.334 13.7988V22.2013C16.334 23.12 17.0814 23.8672 18 23.8672C18.9187 23.8672 19.666 23.12 19.666 22.2013V13.7988C19.666 12.8802 18.9187 12.1329 18 12.1329Z" fill="white"/>
</g>
<defs>
<clipPath id="clip0_366_5568">
<rect width="36" height="36" fill="white"/>
</clipPath>
</defs>
</svg>
