<svg width="18" height="18" viewBox="0 0 18 18" fill="none" xmlns="http://www.w3.org/2000/svg">
<path d="M1.5 0.875C1.5 0.529822 1.22018 0.25 0.875001 0.25C0.529823 0.25 0.25 0.529822 0.25 0.875V14.1508C0.249993 14.6539 0.249986 15.0691 0.277622 15.4074C0.306325 15.7587 0.367928 16.0816 0.522485 16.385C0.762168 16.8554 1.14462 17.2378 1.61502 17.4775C1.91836 17.6321 2.2413 17.6937 2.59261 17.7224C2.93085 17.75 3.34607 17.75 3.84917 17.75H17.125C17.4702 17.75 17.75 17.4702 17.75 17.125C17.75 16.7798 17.4702 16.5 17.125 16.5H3.875C3.33964 16.5 2.97571 16.4995 2.6944 16.4765C2.42039 16.4541 2.28026 16.4136 2.18251 16.3638C1.94731 16.2439 1.75608 16.0527 1.63624 15.8175C1.58644 15.7197 1.54586 15.5796 1.52347 15.3056C1.50049 15.0243 1.5 14.6604 1.5 14.125V0.875Z" fill="#242729"/>
<path d="M7.125 6.1875C7.125 5.84232 6.84518 5.5625 6.5 5.5625C6.15482 5.5625 5.875 5.84232 5.875 6.1875V12.125C5.875 12.4702 6.15482 12.75 6.5 12.75C6.84518 12.75 7.125 12.4702 7.125 12.125V6.1875Z" fill="#242729"/>
<path d="M13.6875 5.5625C14.0327 5.5625 14.3125 5.84232 14.3125 6.1875V12.125C14.3125 12.4702 14.0327 12.75 13.6875 12.75C13.3423 12.75 13.0625 12.4702 13.0625 12.125V6.1875C13.0625 5.84232 13.3423 5.5625 13.6875 5.5625Z" fill="#242729"/>
<path d="M10.875 3.6875C10.875 3.34232 10.5952 3.0625 10.25 3.0625C9.90482 3.0625 9.625 3.34232 9.625 3.6875V12.125C9.625 12.4702 9.90482 12.75 10.25 12.75C10.5952 12.75 10.875 12.4702 10.875 12.125V3.6875Z" fill="#242729"/>
</svg>
