<svg width="101" height="100" viewBox="0 0 101 100" fill="none" xmlns="http://www.w3.org/2000/svg">
<path d="M95.1821 58.2821L95.153 58.2966C91.7253 60.9253 90.273 65.3985 91.4931 69.538L91.5075 69.5671C93.4536 76.1464 88.6319 82.7835 81.7765 82.9579H81.7476C77.4194 83.0741 73.6142 85.8335 72.1763 89.9147V89.9292C69.8813 96.4067 62.0679 98.9483 56.4181 95.0413C52.9099 92.6458 48.2722 92.5208 44.5812 95.0413H44.5667C38.9171 98.9337 31.1032 96.4065 28.823 89.9146C28.1191 87.9225 26.8274 86.191 25.1184 84.9489C23.4095 83.7067 21.3638 83.0124 19.2519 82.9577H19.2228C12.3677 82.7833 7.54561 76.1462 9.49189 69.5669L9.50635 69.5378C10.7261 65.3983 9.27373 60.9251 5.84639 58.2964L5.81729 58.2819C0.370801 54.0989 0.370801 45.9077 5.81729 41.7249L5.84639 41.7104C9.27373 39.0817 10.7261 34.6083 9.49189 30.469V30.4399C7.53096 23.8608 12.3675 17.2233 19.2228 17.0491H19.2519C23.5653 16.9329 27.3851 14.1733 28.823 10.0923V10.0778C31.103 3.60029 38.9171 1.05869 44.5667 4.96572H44.5812C48.1394 7.42021 52.845 7.42021 56.4181 4.96572C62.1247 1.0249 69.8948 3.63916 72.1763 10.0778V10.0923C73.6142 14.1589 77.4192 16.9331 81.7476 17.0491H81.7765C88.6317 17.2233 93.4536 23.8608 91.5075 30.4399L91.4931 30.469C90.273 34.6083 91.7253 39.0817 95.153 41.7104L95.1821 41.7249C100.629 45.9077 100.629 54.0991 95.1821 58.2821Z" fill="#3EB655"/>
<path d="M50.4999 77.0542C65.4415 77.0542 77.554 64.9417 77.554 50.0001C77.554 35.0586 65.4415 22.946 50.4999 22.946C35.5583 22.946 23.4458 35.0586 23.4458 50.0001C23.4458 64.9417 35.5583 77.0542 50.4999 77.0542Z" fill="#8BD399"/>
<path d="M71.2726 32.6823C66.5931 28.8327 60.6062 26.5188 54.0796 26.5188C39.1382 26.5188 27.019 38.6379 27.019 53.5793C27.019 60.1059 29.3329 66.0928 33.1823 70.7723C27.2368 65.8127 23.4497 58.3524 23.4497 49.9997C23.4497 35.0581 35.5585 22.9495 50.4999 22.9495C58.8526 22.9495 66.313 26.7366 71.2726 32.6823Z" fill="black" fill-opacity="0.0627451"/>
<path d="M44.0633 60.591L38.0807 54.2262C36.5139 52.559 36.5948 49.9377 38.2614 48.3709C39.928 46.8022 42.5504 46.8864 44.1159 48.5524L46.9717 51.5895L59.111 37.7149C60.6157 35.993 63.2329 35.8184 64.9561 37.3252C66.678 38.8321 66.8518 41.4485 65.3458 43.1703L50.1983 60.4819C48.5846 62.3242 45.7368 62.3725 44.0633 60.591Z" fill="white"/>
</svg>
