<svg width="20" height="20" viewBox="0 0 20 20" fill="none" xmlns="http://www.w3.org/2000/svg">
<path d="M12.5 10H8.33333" stroke="black" stroke-width="1.5" stroke-linecap="round" stroke-linejoin="round"/>
<path d="M12.5 6.6665H8.33333" stroke="black" stroke-width="1.5" stroke-linecap="round" stroke-linejoin="round"/>
<path d="M15.8333 14.1667V4.16667C15.8333 3.72464 15.6577 3.30072 15.3452 2.98816C15.0326 2.67559 14.6087 2.5 14.1667 2.5H3.33333" stroke="black" stroke-width="1.5" stroke-linecap="round" stroke-linejoin="round"/>
<path d="M6.66667 17.5H16.6667C17.1087 17.5 17.5326 17.3244 17.8452 17.0118C18.1577 16.6993 18.3333 16.2754 18.3333 15.8333V15C18.3333 14.779 18.2455 14.567 18.0893 14.4107C17.933 14.2545 17.721 14.1667 17.5 14.1667H9.16667C8.94565 14.1667 8.73369 14.2545 8.57741 14.4107C8.42113 14.567 8.33333 14.779 8.33333 15V15.8333C8.33333 16.2754 8.15774 16.6993 7.84518 17.0118C7.53262 17.3244 7.1087 17.5 6.66667 17.5ZM6.66667 17.5C6.22464 17.5 5.80072 17.3244 5.48816 17.0118C5.1756 16.6993 5 16.2754 5 15.8333V4.16667C5 3.72464 4.82441 3.30072 4.51185 2.98816C4.19929 2.67559 3.77536 2.5 3.33333 2.5C2.89131 2.5 2.46738 2.67559 2.15482 2.98816C1.84226 3.30072 1.66667 3.72464 1.66667 4.16667V5.83333C1.66667 6.05435 1.75447 6.26631 1.91075 6.42259C2.06703 6.57887 2.27899 6.66667 2.5 6.66667H5" stroke="black" stroke-width="1.5" stroke-linecap="round" stroke-linejoin="round"/>
</svg>
