<svg width="38" height="30" viewBox="0 0 38 30" fill="none" xmlns="http://www.w3.org/2000/svg">
<path d="M7.125 19.6133C7.45292 19.6133 7.71875 19.3475 7.71875 19.0195C7.71875 18.6916 7.45292 18.4258 7.125 18.4258C6.79708 18.4258 6.53125 18.6916 6.53125 19.0195C6.53125 19.3475 6.79708 19.6133 7.125 19.6133Z" fill="#A855F7"/>
<path d="M19 12.4883C15.3987 12.4883 12.4688 15.4182 12.4688 19.0195C12.4688 22.6208 15.3987 25.5508 19 25.5508C22.6013 25.5508 25.5312 22.6208 25.5312 19.0195C25.5312 15.4182 22.6013 12.4883 19 12.4883ZM19.0293 18.4259C20.3254 18.4417 21.375 19.501 21.375 20.8008C21.375 21.8662 20.6698 22.77 19.7017 23.07C19.6383 23.0897 19.5938 23.1465 19.5938 23.2128V23.7492C19.5938 24.0654 19.3551 24.3415 19.0396 24.362C18.9584 24.3674 18.8771 24.3561 18.8005 24.3288C18.7239 24.3015 18.6538 24.2587 18.5944 24.2031C18.535 24.1476 18.4877 24.0805 18.4553 24.0059C18.423 23.9313 18.4063 23.8508 18.4062 23.7695V23.2152C18.4062 23.1499 18.3649 23.0905 18.3025 23.0713C17.3457 22.7768 16.6448 21.8929 16.6254 20.8454C16.6193 20.515 16.8623 20.2219 17.1923 20.2076C17.2724 20.2041 17.3524 20.2168 17.4275 20.245C17.5026 20.2732 17.5711 20.3163 17.6291 20.3717C17.687 20.4272 17.7332 20.4938 17.7647 20.5675C17.7962 20.6412 17.8124 20.7206 17.8124 20.8008C17.8124 21.4744 18.3762 22.0188 19.0567 21.9869C19.6608 21.9587 20.1579 21.4616 20.1861 20.8576C20.2179 20.1771 19.6735 19.6133 18.9999 19.6133C17.6903 19.6133 16.6249 18.5479 16.6249 17.2383C16.6249 16.1729 17.3302 15.269 18.2983 14.969C18.3616 14.9494 18.4062 14.8926 18.4062 14.8262V14.2899C18.4062 13.9736 18.6448 13.6975 18.9604 13.677C19.0415 13.6716 19.1229 13.6829 19.1994 13.7103C19.276 13.7376 19.3462 13.7804 19.4055 13.8359C19.4649 13.8915 19.5122 13.9586 19.5446 14.0332C19.577 14.1078 19.5937 14.1882 19.5937 14.2695V14.8239C19.5937 14.8892 19.635 14.9486 19.6974 14.9678C20.6542 15.2623 21.3551 16.1462 21.3746 17.1937C21.3806 17.524 21.1376 17.8172 20.8076 17.8314C20.7275 17.835 20.6475 17.8223 20.5724 17.7941C20.4974 17.7659 20.4288 17.7228 20.3708 17.6673C20.3129 17.6119 20.2668 17.5453 20.2353 17.4716C20.2037 17.3978 20.1875 17.3185 20.1875 17.2383C20.1875 16.5835 19.6548 16.0508 19 16.0508C18.341 16.0508 17.8056 16.5904 17.8126 17.251C17.8195 17.9064 18.3739 18.418 19.0293 18.4259Z" fill="#A855F7"/>
<path d="M36.2188 8.92578H1.78125C0.799113 8.92578 0 9.72489 0 10.707V27.332C0 28.3142 0.799113 29.1133 1.78125 29.1133H36.2188C37.2009 29.1133 38 28.3142 38 27.332V10.707C38 9.72482 37.2009 8.92578 36.2188 8.92578ZM12.4688 26.7383H4.75C4.42373 26.7383 4.15506 26.4751 4.15625 26.1488C4.15863 25.4907 3.62262 24.9547 2.96445 24.957C2.63818 24.9582 2.375 24.6895 2.375 24.3633V13.6758C2.375 13.3495 2.63818 13.0808 2.96445 13.082C3.62262 13.0844 4.15863 12.5484 4.15625 11.8902C4.15506 11.564 4.42373 11.3008 4.75 11.3008H12.4484C12.7647 11.3008 13.0408 11.5394 13.0612 11.855C13.0666 11.9361 13.0553 12.0175 13.028 12.094C13.0007 12.1706 12.9579 12.2408 12.9024 12.3001C12.8468 12.3595 12.7797 12.4069 12.7051 12.4392C12.6305 12.4716 12.5501 12.4883 12.4688 12.4883H5.4343C5.33841 12.4883 5.2538 12.5499 5.22359 12.6409C4.98787 13.3512 4.42537 13.9137 3.71517 14.1494C3.67079 14.164 3.63215 14.1922 3.60474 14.23C3.57733 14.2679 3.56255 14.3134 3.5625 14.3601V23.6789C3.5625 23.7748 3.6241 23.8594 3.71517 23.8896C4.42544 24.1253 4.98795 24.6878 5.22359 25.398C5.2382 25.4424 5.26642 25.481 5.30425 25.5085C5.34208 25.5359 5.38758 25.5506 5.4343 25.5507H12.4483C12.7646 25.5507 13.0407 25.7893 13.0612 26.1049C13.0666 26.186 13.0553 26.2674 13.028 26.344C13.0007 26.4206 12.9579 26.4907 12.9024 26.5501C12.8468 26.6095 12.7797 26.6568 12.7051 26.6892C12.6305 26.7216 12.5501 26.7383 12.4688 26.7383ZM8.90625 19.0195C8.90625 20.0017 8.10714 20.8008 7.125 20.8008C6.14286 20.8008 5.34375 20.0017 5.34375 19.0195C5.34375 18.0374 6.14286 17.2383 7.125 17.2383C8.10714 17.2383 8.90625 18.0373 8.90625 19.0195ZM19 26.7383C14.7439 26.7383 11.2812 23.2757 11.2812 19.0195C11.2812 14.7634 14.7439 11.3008 19 11.3008C23.2561 11.3008 26.7188 14.7634 26.7188 19.0195C26.7188 23.2757 23.2561 26.7383 19 26.7383ZM35.625 24.3633C35.625 24.6895 35.3618 24.9582 35.0356 24.957C34.3774 24.9547 33.8414 25.4907 33.8438 26.1488C33.8449 26.4751 33.5763 26.7383 33.25 26.7383H25.5516C25.2353 26.7383 24.9592 26.4997 24.9388 26.1841C24.9334 26.103 24.9447 26.0216 24.972 25.945C24.9993 25.8684 25.0421 25.7983 25.0976 25.7389C25.1532 25.6795 25.2203 25.6322 25.2949 25.5998C25.3695 25.5675 25.4499 25.5508 25.5312 25.5508H32.5657C32.6616 25.5508 32.7462 25.4892 32.7764 25.3981C33.0121 24.6878 33.5746 24.1253 34.2848 23.8897C34.3292 23.8751 34.3678 23.8469 34.3952 23.809C34.4227 23.7712 34.4374 23.7257 34.4375 23.679V14.3601C34.4375 14.2642 34.3759 14.1796 34.2848 14.1494C33.5746 13.9137 33.0121 13.3511 32.7764 12.6409C32.7618 12.5966 32.7336 12.5579 32.6957 12.5305C32.6579 12.5031 32.6124 12.4883 32.5657 12.4883H25.5517C25.2354 12.4883 24.9593 12.2497 24.9388 11.9341C24.9334 11.853 24.9447 11.7716 24.9721 11.695C24.9994 11.6184 25.0422 11.5483 25.0977 11.4889C25.1533 11.4295 25.2204 11.3822 25.295 11.3498C25.3696 11.3175 25.45 11.3008 25.5313 11.3008H33.2501C33.5763 11.3008 33.845 11.564 33.8438 11.8902C33.8414 12.5484 34.3775 13.0844 35.0356 13.082C35.3619 13.0808 35.6251 13.3495 35.6251 13.6758V24.3633H35.625ZM29.0938 19.0195C29.0938 18.0374 29.8929 17.2383 30.875 17.2383C31.8571 17.2383 32.6562 18.0374 32.6562 19.0195C32.6562 20.0017 31.8571 20.8008 30.875 20.8008C29.8929 20.8008 29.0938 20.0017 29.0938 19.0195Z" fill="#A855F7"/>
<path d="M30.875 19.6133C31.2029 19.6133 31.4688 19.3475 31.4688 19.0195C31.4688 18.6916 31.2029 18.4258 30.875 18.4258C30.5471 18.4258 30.2812 18.6916 30.2812 19.0195C30.2812 19.3475 30.5471 19.6133 30.875 19.6133Z" fill="#A855F7"/>
<path d="M35.7695 5.88944C35.6472 4.90783 34.7477 4.20957 33.7552 4.34643L11.0735 7.59054C10.9823 7.6036 10.9918 7.73823 11.084 7.73823H35.8323C35.8533 7.73824 35.8741 7.73376 35.8933 7.72511C35.9125 7.71646 35.9296 7.70382 35.9436 7.68804C35.9575 7.67227 35.9679 7.6537 35.9741 7.63359C35.9803 7.61348 35.9822 7.59228 35.9796 7.57139L35.7695 5.88944ZM32.4441 3.33431C32.4646 3.33137 32.4843 3.32414 32.5019 3.31309C32.5194 3.30204 32.5345 3.28742 32.546 3.27018C32.5575 3.25294 32.5653 3.23346 32.5688 3.21302C32.5723 3.19257 32.5715 3.17162 32.5664 3.15151L32.3376 2.23565C32.0971 1.27074 31.1134 0.687525 30.1407 0.949443L11.476 6.18394C11.3868 6.20895 11.4144 6.34203 11.5061 6.32889C16.1964 5.65818 28.9906 3.82876 32.4441 3.33431Z" fill="#A855F7"/>
</svg>
