<svg width="38" height="38" viewBox="0 0 38 38" fill="none" xmlns="http://www.w3.org/2000/svg">
<path d="M20.8734 17.0835C20.8734 17.1313 20.8828 17.1786 20.9011 17.2227C20.9193 17.2669 20.9461 17.307 20.9799 17.3408C21.0137 17.3745 21.0538 17.4013 21.0979 17.4196C21.1421 17.4379 21.1894 17.4473 21.2372 17.4472H22.692C22.8931 17.4472 23.0558 17.2845 23.0558 17.0835C23.0558 16.8824 22.8931 16.7197 22.692 16.7197H21.2372C21.1894 16.7197 21.1421 16.7291 21.098 16.7474C21.0538 16.7657 21.0137 16.7925 20.9799 16.8262C20.9461 16.86 20.9193 16.9001 20.9011 16.9443C20.8828 16.9884 20.8734 17.0357 20.8734 17.0835ZM23.5338 10.8855H22.079C21.8779 10.8855 21.7152 11.0482 21.7152 11.2492C21.7152 11.4503 21.8779 11.613 22.079 11.613H23.5338C23.5816 11.613 23.6289 11.6036 23.673 11.5853C23.7172 11.5671 23.7573 11.5403 23.7911 11.5065C23.8249 11.4727 23.8517 11.4326 23.8699 11.3885C23.8882 11.3443 23.8976 11.297 23.8975 11.2492C23.8976 11.2015 23.8882 11.1542 23.8699 11.11C23.8516 11.0659 23.8248 11.0258 23.791 10.992C23.7573 10.9582 23.7171 10.9314 23.673 10.9132C23.6289 10.8949 23.5816 10.8855 23.5338 10.8855ZM22.459 30.0467H23.9138C24.1149 30.0467 24.2775 29.884 24.2775 29.6829C24.2775 29.4819 24.1149 29.3192 23.9138 29.3192H22.459C22.2579 29.3192 22.0952 29.4819 22.0952 29.6829C22.0952 29.884 22.258 30.0467 22.459 30.0467ZM17.9638 17.0835C17.9637 17.1313 17.9731 17.1786 17.9914 17.2227C18.0097 17.2669 18.0364 17.307 18.0702 17.3408C18.104 17.3745 18.1441 17.4013 18.1883 17.4196C18.2324 17.4379 18.2797 17.4473 18.3275 17.4472H19.7823C19.9834 17.4472 20.1461 17.2845 20.1461 17.0835C20.1461 16.8824 19.9834 16.7197 19.7823 16.7197H18.3275C18.2797 16.7197 18.2324 16.7291 18.1883 16.7474C18.1441 16.7657 18.104 16.7925 18.0703 16.8262C18.0365 16.86 18.0097 16.9001 17.9914 16.9443C17.9731 16.9884 17.9637 17.0357 17.9638 17.0835ZM23.7831 17.0835C23.7831 17.1313 23.7925 17.1786 23.8107 17.2227C23.829 17.2669 23.8558 17.307 23.8896 17.3408C23.9234 17.3745 23.9635 17.4013 24.0076 17.4196C24.0518 17.4379 24.0991 17.4473 24.1468 17.4472H25.6017C25.8027 17.4472 25.9654 17.2845 25.9654 17.0835C25.9654 16.8824 25.8027 16.7197 25.6017 16.7197H24.1468C24.0991 16.7197 24.0518 16.7291 24.0076 16.7474C23.9635 16.7657 23.9234 16.7925 23.8896 16.8262C23.8558 16.86 23.829 16.9001 23.8108 16.9443C23.7925 16.9884 23.7831 17.0357 23.7831 17.0835ZM16.5935 26.0939C16.6158 26 16.6 25.9012 16.5495 25.819C16.499 25.7368 16.418 25.678 16.3242 25.6555C16.1295 25.61 15.9324 25.7294 15.8859 25.9248C15.7644 26.4326 15.7652 27.0298 15.8866 27.5359C15.9058 27.6152 15.951 27.6858 16.0151 27.7363C16.0792 27.7868 16.1584 27.8143 16.24 27.8144C16.4772 27.8144 16.6487 27.5927 16.5941 27.3655C16.4979 26.9666 16.5002 26.4834 16.5935 26.0939ZM20.6241 10.8855H19.1692C18.9682 10.8855 18.8055 11.0482 18.8055 11.2492C18.8055 11.4503 18.9682 11.613 19.1692 11.613H20.6241C20.8251 11.613 20.9878 11.4503 20.9878 11.2492C20.9878 11.0482 20.8251 10.8855 20.6241 10.8855ZM17.1813 24.98C17.4675 24.6632 17.8302 24.4213 18.2298 24.281C18.2748 24.2652 18.3164 24.2407 18.352 24.2089C18.3876 24.177 18.4165 24.1385 18.4372 24.0954C18.4579 24.0524 18.4699 24.0057 18.4725 23.958C18.4752 23.9103 18.4683 23.8626 18.4525 23.8175C18.3861 23.6278 18.178 23.5277 17.989 23.5948C17.4747 23.7752 17.009 24.0857 16.6414 24.492C16.5768 24.5636 16.5432 24.658 16.5481 24.7543C16.5529 24.8507 16.5958 24.9412 16.6673 25.006C16.739 25.0705 16.8333 25.1041 16.9297 25.0992C17.026 25.0943 17.1165 25.0515 17.1813 24.98ZM19.5493 29.3193C19.3482 29.3193 19.1855 29.482 19.1855 29.683C19.1855 29.8841 19.3482 30.0468 19.5493 30.0468H21.0041C21.2052 30.0468 21.3679 29.8841 21.3679 29.683C21.3679 29.482 21.2052 29.3193 21.0041 29.3193H19.5493ZM31.0942 23.3312C31.0017 23.3546 30.9221 23.4134 30.8725 23.4949C30.8229 23.5765 30.8074 23.6742 30.8292 23.7671C30.851 23.86 30.9085 23.9406 30.9892 23.9916C31.0698 24.0425 31.1673 24.0597 31.2606 24.0395C31.7868 23.917 32.2793 23.6796 32.703 23.3444C32.7788 23.2846 32.8277 23.1973 32.839 23.1015C32.8503 23.0057 32.8231 22.9093 32.7634 22.8336C32.7037 22.7578 32.6163 22.7089 32.5205 22.6976C32.4248 22.6863 32.3284 22.7135 32.2526 22.7732C31.9123 23.0422 31.5168 23.2328 31.0942 23.3312ZM31.5134 16.8867C31.1562 16.7761 30.7844 16.7198 30.4105 16.7198H29.9662C29.7651 16.7198 29.6024 16.8825 29.6024 17.0836C29.6024 17.2846 29.7651 17.4473 29.9662 17.4473H30.4102C30.711 17.4473 31.0101 17.4926 31.2975 17.5816C31.3431 17.5958 31.391 17.6008 31.4386 17.5965C31.4862 17.5921 31.5325 17.5785 31.5747 17.5562C31.617 17.534 31.6545 17.5036 31.6851 17.4669C31.7156 17.4302 31.7386 17.3878 31.7528 17.3421C31.7814 17.25 31.7723 17.1503 31.7274 17.0649C31.6825 16.9794 31.6055 16.9154 31.5134 16.8867ZM29.7332 29.3193H28.2784C28.0773 29.3193 27.9146 29.482 27.9146 29.683C27.9146 29.8841 28.0773 30.0468 28.2784 30.0468H29.7332C29.9343 30.0468 30.097 29.8841 30.097 29.683C30.097 29.482 29.9342 29.3193 29.7332 29.3193ZM33.4932 19.4913C33.5533 19.4913 33.6124 19.4764 33.6653 19.448C33.7182 19.4196 33.7632 19.3785 33.7964 19.3285C33.8295 19.2784 33.8498 19.221 33.8553 19.1612C33.8608 19.1014 33.8515 19.0412 33.8281 18.9859C33.6172 18.4892 33.3014 18.0442 32.9021 17.6812C32.8307 17.6165 32.7365 17.5827 32.6402 17.5874C32.5439 17.5921 32.4534 17.6348 32.3885 17.7061C32.3564 17.7415 32.3316 17.7828 32.3155 17.8277C32.2994 17.8727 32.2922 17.9204 32.2945 17.9681C32.2969 18.0158 32.3085 18.0625 32.3289 18.1057C32.3493 18.1489 32.378 18.1876 32.4134 18.2197C32.7331 18.5103 32.9909 18.8729 33.1583 19.2693C33.1861 19.3351 33.2327 19.3913 33.2923 19.4308C33.3519 19.4702 33.4217 19.4913 33.4932 19.4913ZM33.7663 20.1835C33.5635 20.1697 33.3973 20.3335 33.3906 20.5344C33.3764 20.9678 33.2669 21.3927 33.0699 21.779C33.0481 21.8215 33.035 21.8679 33.0312 21.9156C33.0274 21.9632 33.0331 22.0111 33.0478 22.0565C33.0626 22.1019 33.0861 22.144 33.1172 22.1803C33.1482 22.2166 33.1861 22.2465 33.2286 22.2681C33.2711 22.2899 33.3175 22.3031 33.3652 22.3069C33.4128 22.3107 33.4607 22.3051 33.5061 22.2903C33.5516 22.2756 33.5937 22.252 33.63 22.2209C33.6663 22.1899 33.6961 22.152 33.7177 22.1094C33.9642 21.6256 34.0985 21.1042 34.1173 20.5593C34.119 20.5116 34.1112 20.464 34.0945 20.4193C34.0778 20.3745 34.0524 20.3335 34.0198 20.2986C33.9872 20.2637 33.948 20.2356 33.9045 20.2158C33.861 20.1961 33.8141 20.1851 33.7663 20.1835ZM26.82 24.1375C27.021 24.1375 27.1837 23.9748 27.1837 23.7737C27.1837 23.5727 27.021 23.41 26.82 23.41H25.3652C25.1641 23.41 25.0014 23.5727 25.0014 23.7737C25.0014 23.9748 25.1641 24.1375 25.3652 24.1375H26.82ZM27.9111 23.7738C27.911 23.8216 27.9204 23.8689 27.9387 23.913C27.957 23.9572 27.9838 23.9973 28.0175 24.0311C28.0513 24.0648 28.0914 24.0916 28.1356 24.1099C28.1797 24.1282 28.227 24.1376 28.2748 24.1375H29.7297C29.9307 24.1375 30.0934 23.9748 30.0934 23.7738C30.0934 23.5727 29.9307 23.41 29.7297 23.41H28.2748C28.227 23.41 28.1797 23.4194 28.1356 23.4377C28.0914 23.4559 28.0513 23.4827 28.0175 23.5165C27.9838 23.5503 27.957 23.5904 27.9387 23.6346C27.9204 23.6787 27.911 23.726 27.9111 23.7738ZM25.3686 30.0467H26.8235C27.0245 30.0467 27.1872 29.884 27.1872 29.6829C27.1872 29.4819 27.0245 29.3192 26.8235 29.3192H25.3686C25.1676 29.3192 25.0049 29.4819 25.0049 29.6829C25.0049 29.884 25.1677 30.0467 25.3686 30.0467ZM26.4435 10.8855H24.9886C24.7876 10.8855 24.6249 11.0482 24.6249 11.2492C24.6249 11.4503 24.7876 11.613 24.9886 11.613H26.4435C26.4912 11.613 26.5386 11.6036 26.5827 11.5853C26.6269 11.5671 26.667 11.5403 26.7007 11.5065C26.7345 11.4727 26.7613 11.4326 26.7796 11.3885C26.7979 11.3443 26.8072 11.297 26.8072 11.2492C26.8072 11.2015 26.7978 11.1542 26.7796 11.11C26.7613 11.0659 26.7345 11.0258 26.7007 10.992C26.6669 10.9582 26.6268 10.9314 26.5827 10.9132C26.5385 10.8949 26.4912 10.8855 26.4435 10.8855ZM28.5114 16.7198H27.0565C26.8555 16.7198 26.6928 16.8825 26.6928 17.0836C26.6928 17.2846 26.8555 17.4473 27.0565 17.4473H28.5114C28.5591 17.4473 28.6064 17.438 28.6506 17.4197C28.6947 17.4014 28.7348 17.3746 28.7686 17.3408C28.8024 17.3071 28.8292 17.2669 28.8475 17.2228C28.8657 17.1787 28.8751 17.1313 28.8751 17.0836C28.8751 17.0358 28.8657 16.9885 28.8475 16.9443C28.8292 16.9002 28.8024 16.8601 28.7686 16.8263C28.7348 16.7925 28.6947 16.7657 28.6506 16.7474C28.6064 16.7292 28.5591 16.7198 28.5114 16.7198ZM22.7289 36.0505H21.2741C21.073 36.0505 20.9103 36.2132 20.9103 36.4142C20.9103 36.6153 21.073 36.778 21.2741 36.778H22.7289C22.93 36.778 23.0926 36.6153 23.0926 36.4142C23.0926 36.2132 22.93 36.0505 22.7289 36.0505ZM17.7144 10.8855H16.2595C16.0585 10.8855 15.8958 11.0482 15.8958 11.2492C15.8958 11.4503 16.0585 11.613 16.2595 11.613H17.7144C17.9154 11.613 18.0781 11.4503 18.0781 11.2492C18.0781 11.0482 17.9154 10.8855 17.7144 10.8855ZM25.6386 36.0505H24.1837C23.9827 36.0505 23.82 36.2132 23.82 36.4142C23.82 36.6153 23.9827 36.778 24.1837 36.778H25.6386C25.8396 36.778 26.0023 36.6153 26.0023 36.4142C26.0023 36.2132 25.8396 36.0505 25.6386 36.0505ZM18.4561 29.64C18.4718 29.595 18.4786 29.5473 18.476 29.4996C18.4733 29.4519 18.4613 29.4052 18.4406 29.3622C18.4198 29.3192 18.3908 29.2807 18.3552 29.2489C18.3196 29.2171 18.2781 29.1926 18.233 29.1768C17.8306 29.0352 17.4699 28.7954 17.1834 28.4793C17.1514 28.4438 17.1127 28.415 17.0696 28.3945C17.0264 28.374 16.9797 28.3622 16.9319 28.3598C16.8842 28.3574 16.8365 28.3645 16.7915 28.3806C16.7465 28.3967 16.7052 28.4215 16.6698 28.4537C16.6344 28.4857 16.6056 28.5244 16.5851 28.5675C16.5646 28.6107 16.5529 28.6574 16.5505 28.7051C16.5481 28.7528 16.5552 28.8006 16.5713 28.8455C16.5873 28.8905 16.6121 28.9319 16.6442 28.9673C17.0122 29.3734 17.4758 29.6813 17.9929 29.863C18.178 29.9292 18.389 29.8324 18.4561 29.64ZM16.9096 36.0505H15.4547C15.2537 36.0505 15.091 36.2132 15.091 36.4142C15.091 36.6153 15.2537 36.778 15.4547 36.778H16.9096C17.1106 36.778 17.2733 36.6153 17.2733 36.4142C17.2733 36.2132 17.1106 36.0505 16.9096 36.0505ZM28.5483 36.0505H27.0935C26.8924 36.0505 26.7297 36.2132 26.7297 36.4142C26.7297 36.6153 26.8924 36.778 27.0935 36.778H28.5483C28.7494 36.778 28.9121 36.6153 28.9121 36.4142C28.9121 36.2132 28.7493 36.0505 28.5483 36.0505ZM15.4178 17.4472H16.8726C17.0737 17.4472 17.2363 17.2845 17.2363 17.0835C17.2363 16.8824 17.0737 16.7197 16.8726 16.7197H15.4178C15.37 16.7197 15.3227 16.7291 15.2785 16.7474C15.2344 16.7656 15.1943 16.7924 15.1605 16.8262C15.1267 16.86 15.0999 16.9001 15.0816 16.9443C15.0634 16.9884 15.054 17.0357 15.054 17.0835C15.054 17.1313 15.0634 17.1786 15.0817 17.2227C15.0999 17.2669 15.1267 17.307 15.1605 17.3407C15.1943 17.3745 15.2344 17.4013 15.2785 17.4196C15.3227 17.4379 15.37 17.4473 15.4178 17.4472ZM33.2303 31.1915C33.1444 31.2353 33.0793 31.3113 33.0494 31.4031C33.0195 31.4948 33.0272 31.5946 33.0708 31.6806C33.2678 32.0671 33.377 32.4923 33.3905 32.9259C33.3936 33.0202 33.4332 33.1095 33.5009 33.1752C33.5686 33.2408 33.6592 33.2775 33.7535 33.2776C33.7577 33.2776 33.7617 33.2776 33.766 33.2772C33.8137 33.2757 33.8606 33.2647 33.9041 33.245C33.9476 33.2253 33.9868 33.1972 34.0194 33.1623C34.0521 33.1275 34.0775 33.0865 34.0943 33.0418C34.1111 32.9971 34.1189 32.9495 34.1172 32.9018C34.1004 32.3619 33.9646 31.8324 33.7194 31.3511C33.6757 31.2651 33.5996 31.2001 33.5079 31.1702C33.4162 31.1402 33.3164 31.1479 33.2303 31.1915ZM33.6452 33.9996C33.4605 33.9239 33.2474 34.0127 33.1707 34.1985C33.0055 34.5994 32.7555 34.9599 32.4379 35.2551C32.3691 35.3212 32.329 35.4116 32.3262 35.5069C32.3234 35.6022 32.3582 35.6949 32.423 35.7648C32.4878 35.8347 32.5776 35.8764 32.6728 35.8809C32.7681 35.8853 32.8613 35.8522 32.9323 35.7886C33.3275 35.4213 33.6385 34.9729 33.8441 34.4741C33.8806 34.3848 33.8801 34.2846 33.8428 34.1957C33.8055 34.1067 33.7344 34.0362 33.6452 33.9996ZM31.3291 35.9063C30.7243 36.1023 30.2818 36.0374 30.0032 36.0505C29.8021 36.0505 29.6394 36.2132 29.6394 36.4142C29.6394 36.6153 29.8021 36.778 30.0032 36.778C30.264 36.7646 30.8121 36.8377 31.5528 36.5986C31.5983 36.5839 31.6404 36.5604 31.6768 36.5295C31.7132 36.4985 31.7431 36.4607 31.7648 36.4182C31.7866 36.3757 31.7997 36.3293 31.8035 36.2816C31.8073 36.234 31.8017 36.1861 31.7869 36.1407C31.7258 35.9499 31.5215 35.8462 31.3291 35.9063ZM32.7658 30.625C32.7954 30.5875 32.8173 30.5445 32.8302 30.4986C32.8432 30.4526 32.847 30.4045 32.8414 30.3571C32.8358 30.3097 32.8209 30.2638 32.7975 30.2221C32.7742 30.1805 32.7429 30.1438 32.7054 30.1142C32.2771 29.7765 31.7922 29.5424 31.2641 29.4181C31.0719 29.3733 30.873 29.493 30.8268 29.689C30.8049 29.7829 30.821 29.8817 30.8719 29.9637C30.9227 30.0457 31.0039 30.1041 31.0978 30.1262C31.52 30.2252 31.9151 30.4161 32.255 30.6853C32.2925 30.7149 32.3355 30.7368 32.3814 30.7498C32.4274 30.7628 32.4755 30.7666 32.5229 30.761C32.5703 30.7554 32.6162 30.7405 32.6579 30.7171C32.6996 30.6938 32.7362 30.6625 32.7658 30.625ZM19.8192 36.0505H18.3644C18.1633 36.0505 18.0006 36.2132 18.0006 36.4142C18.0006 36.6153 18.1633 36.778 18.3644 36.778H19.8192C20.0203 36.778 20.183 36.6153 20.183 36.4142C20.183 36.2132 20.0203 36.0505 19.8192 36.0505ZM5.99643 11.6129C5.57052 11.9576 5.23696 12.4027 5.02572 12.9082C4.98879 12.9974 4.98873 13.0975 5.02555 13.1867C5.06237 13.2758 5.13306 13.3467 5.22211 13.3838C5.31123 13.4207 5.41135 13.4208 5.50051 13.384C5.58967 13.3472 5.66058 13.2765 5.6977 13.1875C5.86202 12.7935 6.12192 12.4467 6.45391 12.1784C6.49107 12.1484 6.52194 12.1113 6.54477 12.0693C6.56759 12.0274 6.58192 11.9813 6.58693 11.9338C6.59194 11.8863 6.58754 11.8383 6.57397 11.7925C6.56041 11.7467 6.53794 11.704 6.50787 11.6669C6.47786 11.6298 6.44082 11.5989 6.39886 11.5761C6.3569 11.5532 6.31086 11.5389 6.26335 11.5339C6.21585 11.5289 6.16783 11.5333 6.12202 11.5468C6.07622 11.5604 6.03354 11.5828 5.99643 11.6129ZM4.79342 14.5098C4.85067 15.0552 5.04373 15.5774 5.35496 16.0289C5.40985 16.1082 5.49398 16.1626 5.58887 16.1799C5.68377 16.1973 5.78168 16.1763 5.86113 16.1216C5.94046 16.0667 5.99477 15.9826 6.01215 15.8877C6.02953 15.7928 6.00855 15.6949 5.95383 15.6154C5.71164 15.2645 5.56131 14.8585 5.51661 14.4345C5.49597 14.2345 5.31985 14.0878 5.11738 14.1105C5.06988 14.1154 5.02382 14.1297 4.98182 14.1524C4.93983 14.1751 4.90272 14.2059 4.87263 14.243C4.84255 14.2801 4.82006 14.3227 4.80647 14.3685C4.79288 14.4143 4.78844 14.4623 4.79342 14.5098ZM11.895 11.6129C12.0961 11.6129 12.2588 11.4502 12.2588 11.2492C12.2588 11.0481 12.0961 10.8854 11.895 10.8854H10.4402C10.2391 10.8854 10.0765 11.0481 10.0765 11.2492C10.0765 11.4502 10.2391 11.6129 10.4402 11.6129H11.895ZM13.9999 36.0505H12.545C12.344 36.0505 12.1813 36.2132 12.1813 36.4142C12.1813 36.6153 12.344 36.778 12.545 36.778H13.9999C14.2009 36.778 14.3636 36.6153 14.3636 36.4142C14.3636 36.2132 14.2009 36.0505 13.9999 36.0505ZM15.1685 11.2492C15.1685 11.2015 15.1591 11.1541 15.1408 11.11C15.1226 11.0658 15.0958 11.0257 15.062 10.992C15.0282 10.9582 14.9881 10.9314 14.9439 10.9131C14.8998 10.8948 14.8525 10.8855 14.8047 10.8855H13.3499C13.1488 10.8855 12.9861 11.0482 12.9861 11.2492C12.9861 11.4503 13.1488 11.613 13.3499 11.613H14.8047C14.8525 11.613 14.8998 11.6036 14.9439 11.5853C14.9881 11.567 15.0282 11.5402 15.0619 11.5065C15.0957 11.4727 15.1225 11.4326 15.1408 11.3884C15.1591 11.3443 15.1685 11.297 15.1685 11.2492ZM6.41413 16.6051C6.39252 16.6477 6.37951 16.6941 6.37585 16.7417C6.37218 16.7893 6.37794 16.8372 6.39279 16.8826C6.40763 16.928 6.43128 16.97 6.46237 17.0062C6.49347 17.0425 6.5314 17.0722 6.574 17.0938C7.37653 17.5003 8.08628 17.4411 8.14358 17.4472C8.34464 17.4472 8.50732 17.2845 8.50732 17.0835C8.50732 16.8824 8.34464 16.7197 8.14358 16.7197C8.08383 16.7135 7.54597 16.7708 6.90294 16.4452C6.86038 16.4234 6.81394 16.4103 6.76627 16.4065C6.71861 16.4027 6.67068 16.4085 6.62524 16.4233C6.57979 16.4382 6.53774 16.4619 6.50151 16.4931C6.46528 16.5243 6.43558 16.5623 6.41413 16.6051ZM8.98537 10.8855C8.19613 10.8961 7.92879 10.8556 7.46908 10.9377C7.37562 10.9563 7.2932 11.0108 7.23953 11.0896C7.18585 11.1683 7.16522 11.265 7.18206 11.3588C7.1989 11.4525 7.25186 11.536 7.32957 11.5911C7.40728 11.6463 7.50353 11.6688 7.59763 11.6537C7.96167 11.5885 8.15686 11.6222 8.98537 11.6129C9.03314 11.6129 9.08046 11.6035 9.1246 11.5853C9.16875 11.567 9.20886 11.5402 9.24264 11.5064C9.27642 11.4726 9.30322 11.4325 9.32148 11.3884C9.33975 11.3442 9.34914 11.2969 9.34911 11.2492C9.34911 11.2014 9.3397 11.1541 9.32142 11.11C9.30314 11.0658 9.27635 11.0257 9.24257 10.992C9.20879 10.9582 9.16869 10.9314 9.12456 10.9131C9.08043 10.8949 9.03313 10.8855 8.98537 10.8855ZM14.3279 17.0831C14.3277 17.1795 14.2892 17.2719 14.2211 17.34C14.1529 17.4082 14.0606 17.4466 13.9642 17.4469H13.3531C13.2222 18.498 12.3275 19.3127 11.2436 19.3127C10.0724 19.3127 9.11955 18.3598 9.11955 17.1887C9.11955 16.0138 10.0724 15.061 11.2436 15.061C12.2548 15.061 13.1022 15.7739 13.3168 16.7195H13.9642C14.1643 16.7194 14.3279 16.8831 14.3279 17.0831ZM24.2754 23.7753C24.2751 23.8717 24.2367 23.9641 24.1686 24.0323C24.1004 24.1004 24.008 24.1388 23.9116 24.1391H23.3006C23.126 25.1356 22.2568 25.8994 21.2093 25.8994C20.0381 25.8994 19.0852 24.9465 19.0852 23.7753C19.0852 22.6005 20.0381 21.6476 21.2093 21.6476C22.2568 21.6476 23.126 22.4114 23.3006 23.4116H23.9116C23.9595 23.4114 24.0068 23.4207 24.051 23.439C24.0952 23.4572 24.1354 23.484 24.1692 23.5178C24.203 23.5516 24.2298 23.5918 24.248 23.636C24.2663 23.6802 24.2756 23.7275 24.2754 23.7753ZM7.49379 23.4117C4.50775 23.4117 2.07812 25.8376 2.07812 28.8236C2.07812 31.7369 7.03186 36.4761 7.24278 36.6762C7.31029 36.741 7.40021 36.7771 7.49376 36.7771C7.5873 36.7771 7.67722 36.741 7.74473 36.6762C7.95566 36.4761 12.9094 31.737 12.9094 28.8236C12.9095 25.8376 10.4798 23.4117 7.49379 23.4117ZM7.49379 30.6604C6.39543 30.6604 5.50429 29.7693 5.50429 28.6709C5.50429 27.5725 6.39536 26.6777 7.49379 26.6777C8.59223 26.6777 9.4833 27.5725 9.4833 28.6709C9.4833 29.7693 8.59223 30.6604 7.49379 30.6604ZM31.7497 1.22168C29.451 1.22168 27.5779 3.0911 27.5779 5.39344C27.5779 7.62661 31.3423 11.2237 31.5024 11.3764C31.5681 11.4418 31.657 11.4784 31.7497 11.4783C31.8406 11.4783 31.9315 11.4455 32.0006 11.3764C32.1606 11.2237 35.9214 7.62661 35.9214 5.39344C35.9214 3.0911 34.0519 1.22168 31.7497 1.22168ZM31.7497 6.68826C30.9713 6.68826 30.3385 6.0554 30.3385 5.27699C30.3385 4.49866 30.9713 3.86587 31.7497 3.86587C32.528 3.86587 33.1645 4.49873 33.1645 5.27699C33.1645 6.0554 32.528 6.68826 31.7497 6.68826Z" fill="#A855F7"/>
</svg>
