<svg width="24" height="12" viewBox="0 0 24 12" fill="none" xmlns="http://www.w3.org/2000/svg">
<path d="M19.5607 11.4279C18.1732 11.4279 17.0436 10.2982 17.0436 8.91074C17.0436 7.72012 17.8873 6.67949 19.0545 6.44512L19.1482 6.90449C18.2014 7.09668 17.5123 7.94512 17.5123 8.91543C17.5123 10.0451 18.4311 10.9639 19.5607 10.9639C20.6904 10.9639 21.6092 10.0451 21.6092 8.91543C21.6092 7.94981 20.9248 7.10605 19.9779 6.90918L20.0717 6.44981C21.2342 6.69356 22.0732 7.72949 22.0732 8.91543C22.0779 10.2982 20.9482 11.4279 19.5607 11.4279ZM4.36387 11.4279C2.97637 11.4279 1.84668 10.2982 1.84668 8.91074C1.84668 7.52324 2.97637 6.39355 4.36387 6.39355C5.75137 6.39355 6.88105 7.52324 6.88105 8.91074C6.88105 10.2982 5.75137 11.4279 4.36387 11.4279ZM4.36387 6.85762C3.23418 6.85762 2.31543 7.77637 2.31543 8.90606C2.31543 10.0357 3.23418 10.9545 4.36387 10.9545C5.49355 10.9545 6.4123 10.0357 6.4123 8.90606C6.4123 7.77637 5.49355 6.85762 4.36387 6.85762Z" fill="black"/>
<path d="M4.36397 10.2658C3.61865 10.2658 3.00928 9.65645 3.00928 8.91113C3.00928 8.16582 3.61865 7.55645 4.36397 7.55645C5.10928 7.55645 5.71865 8.16582 5.71865 8.91113C5.71865 9.65645 5.10928 10.2658 4.36397 10.2658ZM4.36397 8.0252C3.87646 8.0252 3.47803 8.42363 3.47803 8.91113C3.47803 9.39863 3.87178 9.79707 4.36397 9.79707C4.85615 9.79707 5.2499 9.39863 5.2499 8.91113C5.2499 8.42363 4.85146 8.0252 4.36397 8.0252ZM19.5515 10.2658C18.8062 10.2658 18.1968 9.65645 18.1968 8.91113C18.1968 8.16582 18.8062 7.55645 19.5515 7.55645C20.2968 7.55645 20.9062 8.16582 20.9062 8.91113C20.9062 9.65645 20.2968 10.2658 19.5515 10.2658ZM19.5515 8.0252C19.064 8.0252 18.6655 8.42363 18.6655 8.91113C18.6655 9.39863 19.064 9.79707 19.5515 9.79707C20.039 9.79707 20.4374 9.39863 20.4374 8.91113C20.4374 8.42363 20.039 8.0252 19.5515 8.0252ZM21.4312 6.30957H20.9765C20.578 6.30957 20.2499 5.98145 20.2499 5.58301C20.2499 5.18457 20.578 4.85645 20.9765 4.85645H21.4312C21.8296 4.85645 22.1577 5.18457 22.1577 5.58301C22.1577 5.98145 21.8296 6.30957 21.4312 6.30957ZM20.9765 5.3252C20.8358 5.3252 20.7187 5.44238 20.7187 5.58301C20.7187 5.72363 20.8358 5.84082 20.9765 5.84082H21.4312C21.5718 5.84082 21.689 5.72363 21.689 5.58301C21.689 5.44238 21.5718 5.3252 21.4312 5.3252H20.9765ZM2.12334 9.60019H0.576465C0.459277 9.60019 0.36084 9.51582 0.34209 9.39863L-9.76564e-05 6.96113C-0.00947266 6.89551 0.00927734 6.8252 0.0561523 6.77363C0.0983398 6.72207 0.163965 6.69394 0.234277 6.69394H0.768652L1.34053 3.88145C1.34521 3.8627 1.3499 3.84395 1.35928 3.82988L2.83584 0.70332C2.87334 0.623633 2.95772 0.567383 3.04678 0.567383H5.38115V1.03613H3.19678L1.79521 4.00332L1.19053 6.97519C1.16709 7.08301 1.07334 7.16269 0.96084 7.16269H0.506152L0.782715 9.13144H2.12334V9.60019Z" fill="black"/>
<path d="M23.7657 9.60019H21.797V9.13144H23.5313V7.47676C23.5313 5.87832 22.3314 4.56113 20.7423 4.41113L17.9813 4.14863C17.9345 4.14394 17.8876 4.12519 17.8501 4.09238L15.1173 1.76738C14.5642 1.29394 13.8563 1.03613 13.1298 1.03613H6.31885V0.567383H13.1298C13.9688 0.567383 14.7845 0.867383 15.422 1.41113L18.0985 3.68926L20.7892 3.94238C21.6704 4.02676 22.486 4.42988 23.0813 5.08613C23.6767 5.74238 24.0048 6.59082 24.0048 7.47676V9.36582C24.0001 9.49707 23.897 9.60019 23.7657 9.60019ZM6.6001 9.13144H17.3204V9.60019H6.6001V9.13144Z" fill="black"/>
<path d="M23.7655 8.56933H23.1093C22.6968 8.56933 22.3593 8.23184 22.3593 7.81933C22.3593 7.40684 22.6968 7.06933 23.1093 7.06933H23.7655C23.8968 7.06933 23.9999 7.17246 23.9999 7.30371V8.33496C23.9999 8.46621 23.8968 8.56933 23.7655 8.56933ZM23.1093 7.53808C22.9546 7.53808 22.828 7.66465 22.828 7.81933C22.828 7.97402 22.9546 8.10058 23.1093 8.10058H23.5312V7.53808H23.1093ZM7.78115 4.17246H3.42178C3.34209 4.17246 3.27178 4.13027 3.2249 4.06465C3.18272 3.99902 3.17334 3.91465 3.20615 3.83965L4.19053 1.54746C4.22803 1.46309 4.3124 1.40684 4.40615 1.40684H7.54678C7.66865 1.40684 7.76709 1.4959 7.78115 1.61309L8.01553 3.90996C8.02022 3.97559 8.00146 4.0459 7.95459 4.09277C7.9124 4.13965 7.84678 4.17246 7.78115 4.17246ZM3.77803 3.70371H7.52334L7.33584 1.87559H4.56084L3.77803 3.70371ZM16.4999 4.16309H8.76553C8.64365 4.16309 8.54521 4.07402 8.53115 3.95215L8.29678 1.65527C8.29209 1.58965 8.31084 1.52402 8.35772 1.47246C8.3999 1.42559 8.46553 1.39746 8.53115 1.39746H12.7499C13.6546 1.39746 14.5171 1.73965 15.1733 2.3584L16.6593 3.75527C16.7296 3.8209 16.753 3.92402 16.7155 4.01309C16.6827 4.10684 16.5937 4.16309 16.4999 4.16309ZM8.97647 3.69434H15.9093L14.8546 2.70059C14.2827 2.16152 13.5374 1.86621 12.7499 1.86621H8.78897L8.97647 3.69434ZM9.51553 5.06309H11.3437V5.53184H9.51553V5.06309ZM1.59365 9.60058H0.576465C0.459277 9.60058 0.36084 9.51621 0.34209 9.39902L-9.76564e-05 6.96152C-0.00947266 6.8959 0.00927734 6.82559 0.0561523 6.77402C0.0983398 6.72246 0.163965 6.69433 0.234277 6.69433H1.06396C1.48584 6.69433 1.82803 7.03652 1.82803 7.4584V9.36621C1.82803 9.49746 1.7249 9.60058 1.59365 9.60058ZM0.782715 9.13183H1.35928V7.4584C1.35928 7.29434 1.22803 7.16308 1.06396 7.16308H0.506152L0.782715 9.13183ZM2.0624 6.37559H1.1249C1.05459 6.37559 0.988965 6.33809 0.94209 6.28652C0.899902 6.23027 0.881152 6.15996 0.895215 6.08965L1.21865 4.50059C1.24209 4.39277 1.33584 4.31309 1.44834 4.31309H2.0624C2.19365 4.31309 2.29678 4.41152 2.29678 4.53809V6.13183C2.29678 6.26309 2.19365 6.37559 2.0624 6.37559ZM1.41084 5.90684H1.82803V4.78184H1.64053L1.41084 5.90684Z" fill="black"/>
</svg>
