<svg width="31" height="31" viewBox="0 0 31 31" fill="none" xmlns="http://www.w3.org/2000/svg">
<path d="M23.0019 18.4239C22.8137 18.3181 22.6005 18.1981 22.3436 18.0435C22.2002 17.9569 22.0199 17.8385 21.8288 17.7131C20.8483 17.0695 20.1053 16.614 19.4728 16.614C19.3246 16.614 19.1845 16.6391 19.0568 16.6883C18.5027 16.9017 18.0476 17.4718 17.6076 18.023C17.4463 18.225 17.2155 18.5141 17.0754 18.6433C16.5198 18.5423 15.348 17.8164 14.0834 16.5518C12.8174 15.2858 12.0913 14.1126 11.9917 13.5584C12.1207 13.4178 12.4121 13.1853 12.6153 13.023C13.1645 12.5846 13.7323 12.1312 13.9469 11.5788C14.2206 10.8691 13.719 10.0202 12.9222 8.80645C12.7969 8.61541 12.6784 8.43499 12.5925 8.29271C12.4373 8.0348 12.3173 7.82142 12.2115 7.63335C11.7771 6.86133 11.4901 6.35107 10.4116 6.35107C9.71167 6.35107 8.72203 7.01251 8.05169 7.66846C7.0775 8.62195 6.54089 9.72276 6.54089 10.7703C6.54275 13.6154 8.13059 16.8763 10.8973 19.72C10.9021 19.7248 10.9068 19.726 10.9117 19.7308C13.7555 22.4976 17.0181 24.08 19.8632 24.08H19.8643C20.9104 24.08 22.0116 23.5496 22.965 22.5759C23.6214 21.9056 24.2838 20.9232 24.2838 20.2237C24.2839 19.1453 23.7739 18.8584 23.0019 18.4239ZM19.8635 22.6101C17.4401 22.6083 14.4839 21.1397 11.9542 18.6813C9.49554 16.1514 8.0269 13.1949 8.02534 10.7718C8.02534 9.30602 9.92742 7.91241 10.4248 7.83604C10.5264 7.83649 10.5797 7.8425 10.6051 7.8468C10.6709 7.92251 10.8016 8.15481 10.9179 8.36166C11.0233 8.54884 11.1544 8.78189 11.3214 9.05939C11.4223 9.22661 11.5482 9.41831 11.6814 9.62123C11.9336 10.0054 12.4404 10.7776 12.5258 11.1072C12.3829 11.3094 11.9396 11.6633 11.6894 11.8631C11.0488 12.3745 10.4956 12.8161 10.4956 13.4402C10.4971 14.9478 12.4389 17.0066 13.034 17.6017C13.6291 18.1968 15.6879 20.1385 17.1986 20.14C17.8187 20.138 18.2585 19.5871 18.7678 18.9492C18.9686 18.6977 19.3246 18.2517 19.5277 18.1096C19.8569 18.1944 20.6301 18.7018 21.0145 18.9542C21.2174 19.0874 21.4091 19.2132 21.5773 19.3148C21.8539 19.4812 22.0868 19.6123 22.2741 19.7176C22.4809 19.834 22.7132 19.9648 22.7889 20.0306C22.7932 20.0559 22.7992 20.1092 22.7997 20.2107C22.7227 20.7077 21.3287 22.6083 19.8635 22.6101Z" fill="#8C52FF"/>
<path d="M30.1691 15.5708C30.117 11.5599 28.507 7.76988 25.636 4.89873C22.7119 1.97466 18.8521 0.364258 14.7676 0.364258C10.8247 0.364258 7.1362 1.88144 4.38135 4.63621C1.93673 7.08083 0.436916 10.3413 0.157928 13.817C-0.106662 17.1147 0.732826 20.4519 2.52543 23.2578L0.0775489 29.8745C0.0360261 29.9867 0.0222548 30.1074 0.0374087 30.2261C0.0525626 30.3448 0.0961925 30.458 0.164579 30.5562C0.232966 30.6544 0.324082 30.7346 0.43016 30.79C0.536238 30.8454 0.654133 30.8743 0.773795 30.8743C0.871467 30.8743 0.970029 30.846 1.06347 30.8063L7.43879 28.0933C9.87257 29.6081 12.6555 30.3888 15.513 30.3888H15.5133C19.4555 30.3888 23.144 28.8897 25.8985 26.1352C28.7045 23.3291 30.2213 19.5888 30.1691 15.5708ZM24.8487 25.1037C22.3744 27.578 19.0589 28.9406 15.513 28.9405C12.8134 28.9404 10.187 28.1503 7.9175 26.6554C7.81538 26.5881 7.69822 26.5471 7.57644 26.536C7.45466 26.525 7.33203 26.5442 7.21947 26.592L2.06602 28.7777L4.04766 23.4213C4.08852 23.3108 4.1025 23.1921 4.08843 23.0751C4.07436 22.9582 4.03266 22.8462 3.96676 22.7486C0.324401 17.3525 0.940193 10.1766 5.43095 5.68589C7.9054 3.21144 11.2212 1.84863 14.7676 1.84863C18.4556 1.84863 21.9426 3.30458 24.5863 5.94833C27.1822 8.5442 28.6377 11.9684 28.6848 15.5901C28.7318 19.2044 27.3694 22.583 24.8487 25.1037Z" fill="#8C52FF"/>
</svg>
